<svg xmlns="http://www.w3.org/2000/svg" xmlns:xlink="http://www.w3.org/1999/xlink" xmlns:lucid="lucid" width="1423.39" height="940"><g transform="translate(-1018.3466561215572 60)" lucid:page-tab-id="0_0"><path d="M-3000-1000h5500v2000h-5500z" fill="#fff"/><path d="M2420 310c0 11.05-8.95 20-20 20s-20-8.95-20-20 8.95-20 20-20 20 8.95 20 20z" stroke="#3a414a" stroke-width="4" fill="#fff"/><path d="M2400 330v59.56a22.7 22.7 0 0 0 2.97 11.2l37.03 65.17m-40-70.37l-40 70.37m0-115.93h80" stroke="#3a414a" stroke-width="4" fill="none"/><path d="M2360 296a6 6 0 0 1 6-6h68a6 6 0 0 1 6 6v185.93a6 6 0 0 1-6 6h-68a6 6 0 0 1-6-6z" fill="none"/><use xlink:href="#a" transform="matrix(1,0,0,1,2280.000300000003,465.93000000000006) translate(75.98958333333334 24.739583333333336)"/><use xlink:href="#b" transform="matrix(1,0,0,1,2280.000300000003,465.93000000000006) translate(59.700520833333336 55.98958333333334)"/><path d="M1260-52a8 8 0 0 1 8-8h924a8 8 0 0 1 8 8v924a8 8 0 0 1-8 8h-924a8 8 0 0 1-8-8z" stroke="#000" stroke-opacity="0" fill="#edf5ff"/><use xlink:href="#c" transform="matrix(1,0,0,1,1268,-52) translate(271.9625325520833 28.02916666666667)"/><use xlink:href="#d" transform="matrix(1,0,0,1,1268,-52) translate(401.7669596354167 28.02916666666667)"/><use xlink:href="#e" transform="matrix(1,0,0,1,1268,-52) translate(545.51533203125 28.02916666666667)"/><path d="M1680 112.14a8 8 0 0 1 8-8h443a8 8 0 0 1 8 8V732a8 8 0 0 1-8 8h-443a8 8 0 0 1-8-8z" stroke="#333" fill-opacity="0"/><path d="M1680 44.9a8 8 0 0 1 8-8h216.18a8 8 0 0 1 8 8v39.24a8 8 0 0 1-8 8H1688a8 8 0 0 1-8-8z" fill="#333"/><use xlink:href="#f" transform="matrix(1,0,0,1,1692,48.889999999999986) translate(0 25.114583333333336)"/><use xlink:href="#g" transform="matrix(1,0,0,1,1692,48.889999999999986) translate(110.55989583333334 25.114583333333336)"/><path d="M1477.9 122.07c0 33.14-35.82 60-80 60-44.2 0-80-26.86-80-60s35.8-60 80-60c44.18 0 80 26.86 80 60z" stroke="#ff80df" stroke-width="2" fill="#4d9eff"/><use xlink:href="#h" transform="matrix(1,0,0,1,1317.8943690700562,62.069999999999936) translate(32.64714409722222 69.36631944444444)"/><use xlink:href="#i" transform="matrix(1,0,0,1,1317.8943690700562,62.069999999999936) translate(87.31294270833334 69.36631944444444)"/><path d="M1479.4 122.07h9.16m9.17 0h9.16l1.87.15 1.83.44 1.74.72 1.6.98 1.44 1.22 1.22 1.44 1 1.6.7 1.74.45 1.83.14 1.87v15.26l.14 1.88.44 1.84.72 1.74 1 1.6 1.2 1.44 1.44 1.22 1.6 1 1.75.7 1.82.45 1.87.13h9.72m9.73 0h19.46m9.74 0H1599m9.72 0h19.45m9.73 0h19.46m9.73 0h19.44m9.73 0h9.73l1.88.15 1.83.44 1.75.72 1.6 1 1.43 1.2 1.23 1.44 1 1.6.7 1.75.45 1.83.15 1.87V188l.15 1.88.44 1.83.7 1.75 1 1.6 1.22 1.44 1.43 1.2 1.6 1 1.74.7 1.82.45 1.88.15h11.62" stroke="#333" fill="none"/><path d="M1479.4 122.55h-.52v-.97l.53.02z" stroke="#333" stroke-width=".05" fill="#333"/><path d="M1756.38 200l-14.26 4.63v-9.26z" stroke="#333" fill="#333"/><use xlink:href="#j" transform="matrix(1,0,0,1,1526.8943776499916,123.68119824911876) translate(0.0049999999999954525 20.616319444444443)"/><use xlink:href="#k" transform="matrix(1,0,0,1,1526.8943776499916,123.68119824911876) translate(67.6048263888889 20.616319444444443)"/><use xlink:href="#l" transform="matrix(1,0,0,1,1526.8943776499916,123.68119824911876) translate(113.98069444444445 20.616319444444443)"/><use xlink:href="#m" transform="matrix(1,0,0,1,1526.8943776499916,123.68119824911876) translate(139.2628125 20.616319444444443)"/><path d="M1460 800c0 33.14-35.82 60-80 60s-80-26.86-80-60 35.82-60 80-60 80 26.86 80 60z" stroke="#ff80df" stroke-width="2" fill="#4d9eff"/><use xlink:href="#n" transform="matrix(1,0,0,1,1300,740) translate(12.844626736111119 54.36631944444444)"/><use xlink:href="#o" transform="matrix(1,0,0,1,1300,740) translate(98.00087673611111 54.36631944444444)"/><use xlink:href="#p" transform="matrix(1,0,0,1,1300,740) translate(41.31684895833333 80.40798611111111)"/><path d="M1082.77 379.75c0 10.9-8.85 19.75-19.75 19.75s-19.75-8.84-19.75-19.75c0-10.9 8.84-19.75 19.75-19.75 10.9 0 19.75 8.84 19.75 19.75z" stroke="#3a414a" stroke-width="4" fill="#fff"/><path d="M1063.02 399.5v49.3a19.48 19.48 0 0 0 3.37 10.96l39.64 58.24m-43.02-63.2L1020 518m0-98.75h86.04" stroke="#3a414a" stroke-width="4" fill="none"/><path d="M1020 366a6 6 0 0 1 6-6h74.04a6 6 0 0 1 6 6v168a6 6 0 0 1-6 6H1026a6 6 0 0 1-6-6z" fill="none"/><use xlink:href="#q" transform="matrix(1,0,0,1,940,518) translate(95.79817708333333 24.739583333333336)"/><path d="M1999 140h120v120h-120V140z" stroke="#fff" stroke-opacity="0" stroke-width="2" fill="#3b48cc"/><path d="M2063.1 222h-2.1c-.87 0-1.58-.7-1.58-1.6v-35.6c0-.9.7-1.6 1.6-1.6h18.9c.47 0 .86.2 1.18.54l4.8 5.78-2.26 2.06-4.44-5.2h-16.66v32.56h.56z" stroke="#fff" stroke-opacity="0" stroke-width="2" fill="#fff"/><path d="M2092.3 227.8h-25.85c-.87 0-1.6-.7-1.6-1.6v-35.62c0-.9.73-1.6 1.6-1.6h19.95c.43 0 .78.17 1.1.48l5.9 5.97c.3.3.45.66.45 1.1v29.7c-.03.86-.7 1.52-1.54 1.56zm-24.3-3h22.78v-27.66l-5.02-5H2068z" stroke="#fff" stroke-opacity="0" stroke-width="2" fill="#fff"/><path d="M2092.3 199.65h-7.5c-.87 0-1.6-.72-1.6-1.6v-7.52h3.08v5.96h5.97zM2078 219.44h-1c-.82.02-1.52-.3-2.05-.92-.66-.98-.87-2.05-.66-3.22-.1-2.84-1.7-3.3-1.7-3.3-.82-.3-1.24-1.24-.93-2.06.17-.45.48-.76.93-.94.14 0 1.6-.6 1.6-3.4 0-1.68.78-3.55 2.66-3.62h1.05v3.1h-.5c-.02.17-.02.34 0 .52.1 1.87-.4 3.5-1.6 4.92 1.2 1.45 1.7 3.05 1.6 4.92.02.1.02.2 0 .28-.02.25-.02.46 0 .7h.7zM2082.3 219.44v-3.07h.6c.02-.2.02-.33 0-.52-.1-1.86.42-3.48 1.6-4.92-1.18-1.44-1.7-3.06-1.6-4.92v-.27c.03-.24.03-.44 0-.68h-.68v-3.08h1c.82-.02 1.53.3 2.05.93.66.98.87 2.04.66 3.2 0 2.7 1.6 3.2 1.6 3.3.7.22 1.14.86 1.1 1.6 0 .7-.45 1.28-1.13 1.45-.13 0-1.6.6-1.6 3.42 0 1.68-.8 3.55-2.66 3.6zM2050.57 183.52c-12.8 0-26.42-3.94-26.42-11.2s13.58-11.2 26.42-11.2c12.84 0 26.4 3.94 26.4 11.2s-13.62 11.2-26.4 11.2zm0-19.4c-13.74 0-23.35 4.3-23.35 8.18 0 3.85 9.6 8.13 23.35 8.13 13.73 0 23.35-4.28 23.35-8.13 0-3.88-9.62-8.18-23.35-8.18z" stroke="#fff" stroke-opacity="0" stroke-width="2" fill="#fff"/><path d="M2073.9 172.3h3.07v9.68h-3.07v-9.7zM2050.57 238.94c-12.8 0-26.42-3.93-26.42-11.2V172.3h3.07v55.38c0 3.86 9.6 8.2 23.35 8.2 13.73 0 23.35-4.34 23.35-8.2h3.06c0 7.33-13.63 11.26-26.4 11.26z" stroke="#fff" stroke-opacity="0" stroke-width="2" fill="#fff"/><path d="M2050.6 202.9c-15 0-26.34-4.8-26.34-11.2h3.1c0 3.85 9.6 8.16 23.25 8.16 2.46 0 4.5-.12 6.93-.4l.33 3.06c-2.55.28-4.7.4-7.25.38zM2050.63 221.94c-15.05 0-26.37-4.8-26.37-11.2h3.1c0 3.85 9.6 8.15 23.27 8.15 2.4 0 4.46-.12 6.88-.4l.35 3.1c-2.52.26-4.7.35-7.22.34z" stroke="#fff" stroke-opacity="0" stroke-width="2" fill="#fff"/><use xlink:href="#r" transform="matrix(1,0,0,1,1968.9999414200647,269) translate(39.96202256944444 21.52777777777778)"/><path d="M1477.9 337.93c0 33.14-35.82 60-80 60-44.2 0-80-26.86-80-60s35.8-60 80-60c44.18 0 80 26.86 80 60z" stroke="#ff80df" stroke-width="2" fill="#4d9eff"/><use xlink:href="#s" transform="matrix(1,0,0,1,1317.8943690700562,277.92999999999995) translate(41.680347222222224 54.36631944444444)"/><use xlink:href="#t" transform="matrix(1,0,0,1,1317.8943690700562,277.92999999999995) translate(14.927960069444461 80.40798611111111)"/><use xlink:href="#u" transform="matrix(1,0,0,1,1317.8943690700562,277.92999999999995) translate(105.90018229166667 80.40798611111111)"/><path d="M1919 200c0 33.14-35.82 60-80 60s-80-26.86-80-60 35.82-60 80-60 80 26.86 80 60z" stroke="#ff80df" stroke-width="2" fill="#4d9eff"/><use xlink:href="#v" transform="matrix(1,0,0,1,1758.9999414200645,140) translate(37.61133680555555 46.86631944444444)"/><use xlink:href="#w" transform="matrix(1,0,0,1,1758.9999414200645,140) translate(37.14475694444444 72.90798611111111)"/><use xlink:href="#x" transform="matrix(1,0,0,1,1758.9999414200645,140) translate(49.118498263888895 98.94965277777777)"/><path d="M1477.9 547.93c0 33.14-35.82 60-80 60-44.2 0-80-26.86-80-60s35.8-60 80-60c44.18 0 80 26.86 80 60z" stroke="#ff80df" stroke-width="2" fill="#4d9eff"/><use xlink:href="#y" transform="matrix(1,0,0,1,1317.8943690700562,487.93000000000006) translate(7.554913194444447 69.36631944444444)"/><use xlink:href="#z" transform="matrix(1,0,0,1,1317.8943690700562,487.93000000000006) translate(86.53711805555555 69.36631944444444)"/><path d="M2397.5 389.44h-10.58v-.95h10.58zm-21.17 0h-21.16v-.95h21.16zm-31.75 0h-21.16v-.95h21.16zm-31.75 0h-21.16v-.95h21.16zm-53.86-12.5l.15 1.83.42 1.76.7 1.67.94 1.54 1.17 1.37 1.38 1.2 1.54.93 1.67.7 1.76.42 1.82.14h10.56v.94h-10.6l-1.93-.15-1.9-.47-1.8-.75-1.68-1.02-1.5-1.27-1.26-1.5-1.02-1.67-.75-1.8-.45-1.9-.15-1.95v-3.96h.94zm0-29.96h-.94v-14h.94zm0-25h-.94v-22h.94zm0-33h-.94v-22h.94zm0-33h-.94v-12.7h.94zm-10.52-56.3l1.9.45 1.8.75 1.68 1.03 1.5 1.28 1.26 1.5 1.02 1.66.75 1.8.45 1.9.15 1.94v5.26h-.94v-5.22l-.15-1.82-.42-1.76-.7-1.67-.94-1.54-1.17-1.38-1.38-1.17-1.54-.95-1.67-.7-1.76-.4-1.82-.16h-9.24v-.94h9.28zm-20.47.8h-18.52v-.95h18.52zm-27.78 0h-18.52v-.95h18.52zm-27.78 0h-18.52v-.95h18.52zm-27.78 0h-9.26v-.95h9.26zM2401 389.44h-3.5v-.95h3.5z" stroke="#333" stroke-width=".05" fill="#333"/><path d="M2134.88 204.63l-14.26-4.63 14.26-4.63z" fill="#333"/><path d="M2135.36 205.3l-16.28-5.3 16.28-5.3zm-13.2-5.3l12.25 3.98v-7.96z" stroke="#333" stroke-width=".05" fill="#333"/><use xlink:href="#A" transform="matrix(1,0,0,1,2132.7622109878116,217.2419563642554) translate(0.0049999999999954525 20.616319444444443)"/><use xlink:href="#B" transform="matrix(1,0,0,1,2132.7622109878116,217.2419563642554) translate(52.35960069444444 20.616319444444443)"/><use xlink:href="#l" transform="matrix(1,0,0,1,2132.7622109878116,217.2419563642554) translate(130.88607638888888 20.616319444444443)"/><use xlink:href="#C" transform="matrix(1,0,0,1,2132.7622109878116,217.2419563642554) translate(156.16819444444445 20.616319444444443)"/><path d="M2060 630c0 49.7-62.68 90-140 90s-140-40.3-140-90 62.68-90 140-90 140 40.3 140 90zm-280 0h280" stroke="#333" fill="#cfe4ff"/><use xlink:href="#D" transform="matrix(1,0,0,1,1822,558) translate(12.029947916666657 43.595486111111114)"/><use xlink:href="#E" transform="matrix(1,0,0,1,1822,558) translate(88.65755208333333 43.595486111111114)"/><use xlink:href="#F" transform="matrix(1,0,0,1,1822,654) translate(24.486545138888886 27.09548611111111)"/><use xlink:href="#G" transform="matrix(1,0,0,1,1822,654) translate(104.08723958333333 27.09548611111111)"/><use xlink:href="#H" transform="matrix(1,0,0,1,1780,630) translate(71.822099609375 18.089501953125)"/><use xlink:href="#I" transform="matrix(1,0,0,1,1780,630) translate(156.862607421875 18.089501953125)"/><path d="M1479.4 547.93h254.1a6 6 0 0 1 6 6V624a6 6 0 0 0 6 6h17.62" stroke="#3a414a" fill="none"/><path d="M1479.4 548.4h-.52V547.46h.53z" stroke="#3a414a" stroke-width=".05" fill="#3a414a"/><path d="M1777.88 630l-14.26 4.63v-9.26z" stroke="#3a414a" fill="#3a414a"/><path d="M1920 539v-83a6 6 0 0 1 6-6h127a6 6 0 0 0 6-6V276.38" stroke="#3a414a" fill="none"/><path d="M1920.47 539.5h-.94v-.5h.94z" stroke="#3a414a" stroke-width=".05" fill="#3a414a"/><path d="M2059 261.62l4.64 14.26h-9.28z" stroke="#3a414a" fill="#3a414a"/><path d="M1065.56 450h106.33a6 6 0 0 0 6-6V128.07a6 6 0 0 1 6-6h132.5M1065.58 450h-3.52" stroke="#3a414a" fill="none"/><path d="M1316.9 122.06v.5l-.52-.02v-.95h.53z" stroke="#3a414a" stroke-width=".05" fill="#3a414a"/><path d="M1061.55 450h61.4a6 6 0 0 1 6 6v338a6 6 0 0 0 6 6h163.55M1061.57 450h-3.52" stroke="#3a414a" fill="none"/><path d="M1299 800V800.47h-.5v-.96h.5z" stroke="#3a414a" stroke-width=".05" fill="#3a414a"/><path d="M1316.4 337.93h-33.5a6 6 0 0 1-6-6V306a6 6 0 0 0-6-6H1069a6 6 0 0 0-6 6v35.62" stroke="#3a414a" fill="none"/><path d="M1316.9 337.92V338.4h-.52v-.94h.53z" stroke="#3a414a" stroke-width=".05" fill="#3a414a"/><path d="M1063.02 356.38l-4.64-14.26h9.27z" stroke="#3a414a" fill="#3a414a"/><path d="M2397.5 389.44h-9.17v-.95h9.17zm-49.55-29.76l1.9.45 1.8.75 1.68 1.03 1.5 1.28 1.26 1.5 1.02 1.66.75 1.8.45 1.9.15 1.94v4.97l.15 1.82.42 1.76.7 1.67.94 1.54 1.17 1.37 1.38 1.2 1.54.93 1.67.7 1.76.42 1.82.14h9.15v.94h-9.2l-1.92-.15-1.9-.47-1.8-.75-1.68-1.02-1.5-1.27-1.26-1.5-1.02-1.67-.75-1.8-.45-1.9-.15-1.95v-4.96l-.15-1.82-.42-1.76-.7-1.67-.94-1.54-1.17-1.38-1.38-1.17-1.54-.95-1.67-.7-1.76-.4-1.82-.15h-10.37v-.96h10.42zm-22.73.8h-20.77v-.96h20.77zm-249.33 0h-20.8v-.96h20.8zm-31.18 0h-20.78v-.96h20.78zm-31.16 0h-20.78v-.96h20.78zm-53.1-12.5l.16 1.82.42 1.76.7 1.67.94 1.54 1.17 1.38 1.38 1.17 1.54.95 1.67.7 1.76.4 1.82.15h10.37v.96h-10.42l-1.93-.16-1.9-.45-1.8-.75-1.68-1.03-1.5-1.28-1.26-1.5-1.02-1.66-.75-1.8-.45-1.9-.15-1.94v-9.1h.94zm333.6 12.5h-6.44v-.96h6.44zm-333.6-30.6h-.93v-18.15h.94zm0-27.2h-.93v-18.15h.94zm0-27.2h-.93v-18.15h.94zm0-27.2h-.93v-18.15h.94zm-10.5-48.6l1.9.45 1.8.75 1.67 1.03 1.5 1.28 1.26 1.5 1.02 1.66.75 1.8.45 1.9.15 1.94v9.1h-.94V212l-.15-1.82-.42-1.76-.7-1.67-.94-1.54-1.17-1.38-1.38-1.17-1.54-.95-1.67-.7-1.76-.4-1.82-.16h-11.6v-.94h11.64zM2401 389.44h-3.5v-.95h3.5z" stroke="#333" stroke-width=".05" fill="#333"/><path d="M1935.88 204.63l-14.26-4.63 14.26-4.63z" fill="#333"/><path d="M1936.36 205.3l-16.28-5.3 16.28-5.3zm-13.2-5.3l12.25 3.98v-7.96z" stroke="#333" stroke-width=".05" fill="#333"/><g><use xlink:href="#J" transform="matrix(1,0,0,1,2082.8362969834993,346.9791666666667) translate(0.0049999999999954525 20.616319444444443)"/><use xlink:href="#K" transform="matrix(1,0,0,1,2082.8362969834993,346.9791666666667) translate(68.03885416666667 20.616319444444443)"/><use xlink:href="#L" transform="matrix(1,0,0,1,2082.8362969834993,346.9791666666667) translate(105.52800347222222 20.616319444444443)"/><use xlink:href="#M" transform="matrix(1,0,0,1,2082.8362969834993,346.9791666666667) translate(142.5614236111111 20.616319444444443)"/></g><path d="M1839.47 325.95l-.15 1.93-.45 1.9-.75 1.8-1.03 1.68-1.28 1.5-1.5 1.26-1.66 1.03-1.8.75-1.9.45-1.94.15h-10.07v-.94h10.03l1.82-.15 1.76-.4 1.67-.7 1.54-.95 1.38-1.17 1.17-1.38.95-1.54.7-1.67.4-1.77.16-1.82v-10.7h.94zm-32.57 12.45h-20.1v-.94h20.1zm-285.96 0h-5.56v-.94h5.56zm-15.6 0h-10.06v-.94h10.05zm271.4 0h-7.38v-.94h7.38zm62.73-33.95h-.94v-21.47h.94zm0-32.2h-.94V261.5h.94z" stroke="#333" stroke-width=".05" fill="#333"/><path d="M1839 261h.47v.5h-.94v-.5z" fill="#333"/><path stroke="#333" stroke-width=".05" fill="#333"/><path d="M1494.78 342.56l-14.27-4.63 14.28-4.63z" fill="#333"/><path d="M1495.25 343.22l-16.28-5.3 16.28-5.28zm-13.2-5.3l12.25 4v-7.97z" stroke="#333" stroke-width=".05" fill="#333"/><g><use xlink:href="#N" transform="matrix(1,0,0,1,1520.9432663992982,324.90916666666664) translate(0.0049999999999954525 20.616319444444443)"/><use xlink:href="#O" transform="matrix(1,0,0,1,1520.9432663992982,324.90916666666664) translate(80.41949652777778 20.616319444444443)"/><use xlink:href="#P" transform="matrix(1,0,0,1,1520.9432663992982,324.90916666666664) translate(129.34527777777777 20.616319444444443)"/><use xlink:href="#Q" transform="matrix(1,0,0,1,1520.9432663992982,324.90916666666664) translate(212.65690972222222 20.616319444444443)"/></g><path d="M1065.56 450h119.42a6 6 0 0 1 6 6v85.93a6 6 0 0 0 6 6h119.4M1065.58 450h-3.52" stroke="#3a414a" fill="none"/><path d="M1316.9 547.92V548.4h-.52v-.94h.53z" stroke="#3a414a" stroke-width=".05" fill="#3a414a"/><path d="M1461.5 800h442a6 6 0 0 0 6-6v-37.12" stroke="#3a414a" fill="none"/><path d="M1461.5 800.48h-.5v-.95h.5z" stroke="#3a414a" stroke-width=".05" fill="#3a414a"/><path d="M1909.5 742.12l4.63 14.26h-9.27z" stroke="#3a414a" fill="#3a414a"/><defs><path d="M952-300H426L326 0H7l542-1456h278L1372 0h-319zM507-543h364l-183-545" id="R"/><path d="M488 20C204 20 66-234 66-549c0-305 140-551 424-553 105 0 192 39 261 118v-552h290V0H780l-14-115C694-25 601 20 488 20zM355-528c0 176 51 314 207 314 89 0 152-38 189-113v-427c-36-75-98-113-187-113-139 0-209 113-209 339" id="S"/><path d="M741-689c-2-124-40-177-163-178-82 0-141 34-178 102V0H111v-1082h271l9 121c77-94 180-141 311-141 139 0 235 55 287 165 76-110 184-165 325-165 249 0 348 151 348 411V0h-290v-690c-2-123-39-176-163-177-87 0-147 41-180 124l1 743H741v-689" id="T"/><path d="M416 0H126v-1082h290V0zM271-1212c-92 0-162-61-162-150s68-149 162-149c93 0 162 60 162 149s-70 150-162 150" id="U"/><path d="M750-692c-1-124-48-174-173-175-81 0-142 35-183 104V0H105v-1082h272l9 125c77-97 181-145 311-145 244 0 342 151 342 403V0H750v-692" id="V"/><path d="M202 125H-13l536-1581h215" id="W"/><g id="a"><use transform="matrix(0.013020833333333334,0,0,0.013020833333333334,0,0)" xlink:href="#R"/><use transform="matrix(0.013020833333333334,0,0,0.013020833333333334,17.942708333333336,0)" xlink:href="#S"/><use transform="matrix(0.013020833333333334,0,0,0.013020833333333334,32.96875,0)" xlink:href="#T"/><use transform="matrix(0.013020833333333334,0,0,0.013020833333333334,56.0546875,0)" xlink:href="#U"/><use transform="matrix(0.013020833333333334,0,0,0.013020833333333334,63.125,0)" xlink:href="#V"/><use transform="matrix(0.013020833333333334,0,0,0.013020833333333334,78.05989583333333,0)" xlink:href="#W"/></g><path d="M130 0v-1456h448c435 14 673 299 665 762-5 285-130 500-319 606C822-31 708 0 581 0H130zm809-685c9-311-79-526-361-528H430v972h145c252-2 356-181 364-444" id="X"/><path d="M1031-175C952-60 797 20 609 20 287 20 60-206 72-543c12-330 180-559 505-559 309 0 482 214 477 537v118H365c15 134 115 234 263 234 111 0 198-40 261-121zM770-644c5-139-62-226-194-224-130 1-191 97-208 224h402" id="Y"/><path d="M516-353l201-729h302L654 0H378L13-1082h302" id="Z"/><path d="M416 0H126v-1536h290V0" id="aa"/><path d="M579 20C257 20 58-214 66-551c8-331 182-551 511-551 324 0 514 231 514 572 0 319-198 550-512 550zm-2-888c-169 0-222 141-222 338 0 181 61 317 224 317 170 0 223-137 223-338 0-178-64-317-225-317" id="ab"/><path d="M663-1102c295 0 422 250 422 571 0 300-141 549-420 551-109 0-198-38-265-114v510H111v-1498h268l10 106c70-84 161-126 274-126zm133 550c0-175-53-315-209-315-91 0-153 35-187 104v443c35 71 98 107 189 107 138 0 207-113 207-339" id="ac"/><path d="M719-811c-143-24-279 1-319 103V0H111v-1082h273l8 129c74-124 180-175 331-136" id="ad"/><g id="b"><use transform="matrix(0.013020833333333334,0,0,0.013020833333333334,0,0)" xlink:href="#X"/><use transform="matrix(0.013020833333333334,0,0,0.013020833333333334,17.330729166666668,0)" xlink:href="#Y"/><use transform="matrix(0.013020833333333334,0,0,0.013020833333333334,31.575520833333336,0)" xlink:href="#Z"/><use transform="matrix(0.013020833333333334,0,0,0.013020833333333334,44.8828125,0)" xlink:href="#Y"/><use transform="matrix(0.013020833333333334,0,0,0.013020833333333334,59.296875,0)" xlink:href="#aa"/><use transform="matrix(0.013020833333333334,0,0,0.013020833333333334,66.3671875,0)" xlink:href="#ab"/><use transform="matrix(0.013020833333333334,0,0,0.013020833333333334,81.4453125,0)" xlink:href="#ac"/><use transform="matrix(0.013020833333333334,0,0,0.013020833333333334,96.45833333333333,0)" xlink:href="#Y"/><use transform="matrix(0.013020833333333334,0,0,0.013020833333333334,110.87239583333334,0)" xlink:href="#ad"/></g><path d="M135 0v-1490h581c339 0 533 210 533 503 0 295-197 500-540 500H440V0H135zm305-733h220c186 0 274-104 274-254s-88-251-275-251H440v505" id="ae"/><path d="M428-647V0H128v-1490h294v586c65-146 175-228 341-228 232 0 385 159 385 421V0H847v-659c0-139-76-222-202-222-128 0-217 86-217 234" id="af"/><path d="M128 0v-1118h300V0H128zm150-1264c-91 0-165-68-165-154 0-85 74-154 165-154 90 0 165 69 165 154 0 86-75 154-165 154" id="ag"/><path d="M572 22C302 22 117-98 78-306l279-48c29 105 101 156 224 156 114 0 185-48 185-115 0-118-228-130-337-155-215-49-322-150-322-317 0-215 187-347 470-347 265 0 424 116 466 298l-266 47c-24-76-87-130-196-130-98 0-174 46-174 113 0 56 38 95 144 117l201 40c216 44 320 143 320 302 0 220-207 367-500 367" id="ah"/><path d="M428-647V0H128v-1118h283l4 231c63-156 176-245 348-245 232 0 384 159 384 421V0H847v-659c0-139-76-222-202-222-128 0-217 86-217 234" id="ai"/><path d="M625 442c-280 0-454-114-503-274l258-72c28 63 97 128 243 128 153 0 246-69 246-216v-206h-23C805-108 717-16 536-16 284-16 81-191 81-561c0-378 208-571 456-571 188 0 280 113 321 202h13v-188h295V-9c0 303-226 451-541 451zm5-686c153 0 240-119 240-319 0-198-86-329-240-329-158 0-241 137-241 329 0 195 85 319 241 319" id="aj"/><g id="c"><use transform="matrix(0.014127604166666669,0,0,0.014127604166666669,0,0)" xlink:href="#ae"/><use transform="matrix(0.014127604166666669,0,0,0.014127604166666669,18.74733072916667,0)" xlink:href="#af"/><use transform="matrix(0.014127604166666669,0,0,0.014127604166666669,36.76002604166668,0)" xlink:href="#ag"/><use transform="matrix(0.014127604166666669,0,0,0.014127604166666669,44.60084635416668,0)" xlink:href="#ah"/><use transform="matrix(0.014127604166666669,0,0,0.014127604166666669,60.80520833333334,0)" xlink:href="#af"/><use transform="matrix(0.014127604166666669,0,0,0.014127604166666669,78.81790364583335,0)" xlink:href="#ag"/><use transform="matrix(0.014127604166666669,0,0,0.014127604166666669,86.65872395833335,0)" xlink:href="#ai"/><use transform="matrix(0.014127604166666669,0,0,0.014127604166666669,104.67141927083335,0)" xlink:href="#aj"/></g><path d="M659 0H135v-1490h529c448 0 721 280 721 744 0 466-273 746-726 746zM440-263h204c287 0 437-148 437-483 0-333-150-481-435-481H440v964" id="ak"/><path d="M633 22C291 22 81-200 81-553c0-345 210-579 537-579 292 0 525 185 525 567v84H378c7 183 109 277 260 277 105 0 184-46 216-132l272 51C1071-99 893 22 633 22zM380-669h474c-15-146-94-237-233-237-143 0-229 99-241 237" id="al"/><path d="M683-1118v229H474v562c0 71 29 104 102 104 23 0 73-7 95-13l43 225C647 9 580 16 520 16 296 16 174-96 174-301v-588H20v-229h154v-266h300v266h209" id="am"/><path d="M628 22C291 22 81-210 81-554c0-346 210-578 547-578 265 0 455 142 497 372l-279 52c-25-116-99-188-215-188-160 0-244 139-244 341 0 200 84 341 244 341 116 0 193-74 217-195l279 51C1085-123 896 22 628 22" id="an"/><path d="M628 22C291 22 81-210 81-554c0-346 210-578 547-578 336 0 547 232 547 578 0 344-211 576-547 576zm0-236c160 0 242-146 242-341 0-197-82-341-242-341S387-753 387-555c0 195 81 341 241 341" id="ao"/><g id="d"><use transform="matrix(0.014127604166666669,0,0,0.014127604166666669,0,0)" xlink:href="#ak"/><use transform="matrix(0.014127604166666669,0,0,0.014127604166666669,20.894726562500004,0)" xlink:href="#al"/><use transform="matrix(0.014127604166666669,0,0,0.014127604166666669,38.13040364583334,0)" xlink:href="#am"/><use transform="matrix(0.014127604166666669,0,0,0.014127604166666669,48.443554687500004,0)" xlink:href="#al"/><use transform="matrix(0.014127604166666669,0,0,0.014127604166666669,65.67923177083334,0)" xlink:href="#an"/><use transform="matrix(0.014127604166666669,0,0,0.014127604166666669,82.70299479166667,0)" xlink:href="#am"/><use transform="matrix(0.014127604166666669,0,0,0.014127604166666669,93.29869791666667,0)" xlink:href="#ag"/><use transform="matrix(0.014127604166666669,0,0,0.014127604166666669,101.13951822916667,0)" xlink:href="#ao"/><use transform="matrix(0.014127604166666669,0,0,0.014127604166666669,118.88378906249999,0)" xlink:href="#ai"/></g><path d="M681 22C323 22 94-145 85-462h297c10 151 131 226 296 226 163 0 271-77 271-190 0-102-95-149-257-189l-164-41c-252-61-403-188-403-405 0-269 236-449 560-449 330 0 546 183 551 445H941c-11-119-106-188-259-188-156 0-244 72-244 172-3 156 226 185 373 221 250 61 445 186 445 436 0 271-213 446-575 446" id="ap"/><path d="M120 396l69-226c123 42 245 23 254-107l8-60L31-1118h319c87 288 199 559 259 872 72-308 185-583 277-872h315L726 132c-68 181-186 294-410 294-79 0-153-13-196-30" id="aq"/><path d="M128 0v-1118h278l12 217c60-163 185-234 319-234 143 0 236 81 288 251 63-172 205-251 359-251 205 0 357 138 357 381V0h-301v-697c0-126-76-187-177-187-114 0-184 79-184 196V0H789v-705c0-109-72-179-174-179-106 0-187 74-187 208V0H128" id="ar"/><g id="e"><use transform="matrix(0.014127604166666669,0,0,0.014127604166666669,0,0)" xlink:href="#ap"/><use transform="matrix(0.014127604166666669,0,0,0.014127604166666669,18.945117187500003,0)" xlink:href="#aq"/><use transform="matrix(0.014127604166666669,0,0,0.014127604166666669,36.364453125000004,0)" xlink:href="#ah"/><use transform="matrix(0.014127604166666669,0,0,0.014127604166666669,52.568815104166674,0)" xlink:href="#am"/><use transform="matrix(0.014127604166666669,0,0,0.014127604166666669,62.88196614583334,0)" xlink:href="#al"/><use transform="matrix(0.014127604166666669,0,0,0.014127604166666669,80.11764322916667,0)" xlink:href="#ar"/></g><path fill="#fff" d="M658-217c127 0 227-49 227-165 0-57-21-98-60-130-79-64-370-142-463-196-162-95-248-210-248-361 0-280 246-403 537-407 213-3 383 84 467 216 45 69 68 147 68 234H886c0-139-96-211-240-211-129 0-232 55-232 169 0 47 24 87 72 119s117 62 210 90c171 51 295 115 373 191s117 171 117 284c-2 272-237 411-528 404C331 13 78-135 69-458h301c0 161 96 241 288 241" id="as"/><path fill="#fff" d="M632-800l303-656h328L785-528V0H480v-528L2-1456h329" id="at"/><path fill="#fff" d="M1226-1213H780V0H480v-1213H40v-243h1186v243" id="au"/><path fill="#fff" d="M1006-631H430v390h676V0H130v-1456h974v243H430v347h576v235" id="av"/><path fill="#fff" d="M522-1456L896-400l372-1056h394V0h-301c-7-379 15-728 30-1085L998 0H792L400-1084c15 357 37 705 30 1084H130v-1456h392" id="aw"/><g id="f"><use transform="matrix(0.013020833333333334,0,0,0.013020833333333334,0,0)" xlink:href="#as"/><use transform="matrix(0.013020833333333334,0,0,0.013020833333333334,16.393229166666668,0)" xlink:href="#at"/><use transform="matrix(0.013020833333333334,0,0,0.013020833333333334,32.669270833333336,0)" xlink:href="#as"/><use transform="matrix(0.013020833333333334,0,0,0.013020833333333334,49.0625,0)" xlink:href="#au"/><use transform="matrix(0.013020833333333334,0,0,0.013020833333333334,65.55989583333334,0)" xlink:href="#av"/><use transform="matrix(0.013020833333333334,0,0,0.013020833333333334,80.55989583333334,0)" xlink:href="#aw"/></g><path fill="#fff" d="M1209-1016c0 219-100 334-260 407l315 595V0H942L669-533H430V0H130v-1456h541c318-3 538 141 538 440zm-300 24c-1-144-85-221-238-221H430v437h242c144 2 238-77 237-216" id="ax"/><path fill="#fff" d="M668-361l330-1095h334L825 0H512L7-1456h333" id="ay"/><g id="g"><use transform="matrix(0.013020833333333334,0,0,0.013020833333333334,0,0)" xlink:href="#as"/><use transform="matrix(0.013020833333333334,0,0,0.013020833333333334,16.393229166666668,0)" xlink:href="#av"/><use transform="matrix(0.013020833333333334,0,0,0.013020833333333334,31.393229166666668,0)" xlink:href="#ax"/><use transform="matrix(0.013020833333333334,0,0,0.013020833333333334,48.1640625,0)" xlink:href="#ay"/><use transform="matrix(0.013020833333333334,0,0,0.013020833333333334,65.59895833333334,0)" xlink:href="#av"/><use transform="matrix(0.013020833333333334,0,0,0.013020833333333334,80.59895833333334,0)" xlink:href="#ax"/></g><path d="M631-137c179 0 314-70 314-231 0-71-25-127-75-166s-141-77-272-115c-165-47-285-106-360-175s-112-154-112-255c0-245 231-397 495-397 206 0 369 89 449 218 43 68 65 142 65 223H942c0-184-129-283-321-283-172 0-299 76-301 236 0 59 26 109 76 150s135 78 256 113c205 59 345 116 436 256 35 53 50 119 50 193-2 256-231 398-507 390C333 12 90-129 80-422h193c0 187 160 285 358 285" id="az"/><path d="M277-555c0 244 77 420 297 424 127 2 249-93 255-210h175C980-127 805 20 574 20 258 20 81-222 92-562c11-319 164-533 481-540 237-5 426 165 431 392H829c-7-133-115-242-256-240-209 4-296 166-296 395" id="aA"/><path d="M561-1102c238-4 403 126 403 351v498c0 99 13 178 38 237V0H808c-11-21-19-59-26-114C696-25 593 20 474 20c-199 0-368-130-365-320 4-251 214-359 490-356h180v-85c-1-135-86-212-229-212-115 0-232 67-233 171H131c20-205 206-316 430-320zM294-326c0 117 90 185 207 185 122 0 239-75 278-162v-222H634c-227 0-340 66-340 199" id="aB"/><path d="M589-945c-131 0-219 81-264 174V0H140v-1082h175l6 136c83-104 191-156 324-156 229 0 346 129 346 387V0H806v-716c-2-153-65-229-217-229" id="aC"/><g id="h"><use transform="matrix(0.010850694444444444,0,0,0.010850694444444444,0,0)" xlink:href="#az"/><use transform="matrix(0.010850694444444444,0,0,0.010850694444444444,13.18359375,0)" xlink:href="#aA"/><use transform="matrix(0.010850694444444444,0,0,0.010850694444444444,24.815538194444443,0)" xlink:href="#aB"/><use transform="matrix(0.010850694444444444,0,0,0.010850694444444444,36.90321180555556,0)" xlink:href="#aC"/></g><path d="M665-137c214 0 337-121 336-332v-987h193v990c-3 300-218 486-529 486-309 0-526-181-525-484v-992h190v986c-1 210 123 333 335 333" id="aD"/><path d="M1161-1018c0 201-122 330-278 388l342 618V0h-206L703-589H361V0H168v-1456h482c310-2 511 139 511 438zm-193 0c0-187-120-280-313-280H361v552h295c179 3 313-101 312-272" id="aE"/><path d="M362-157h690V0H169v-1456h193v1299" id="aF"/><g id="i"><use transform="matrix(0.010850694444444444,0,0,0.010850694444444444,0,0)" xlink:href="#aD"/><use transform="matrix(0.010850694444444444,0,0,0.010850694444444444,14.409722222222221,0)" xlink:href="#aE"/><use transform="matrix(0.010850694444444444,0,0,0.010850694444444444,28.092447916666664,0)" xlink:href="#aF"/></g><path d="M658-217c127 0 227-49 227-165 0-57-21-98-60-130-79-64-370-142-463-196-162-95-248-210-248-361 0-280 246-403 537-407 213-3 383 84 467 216 45 69 68 147 68 234H886c0-139-96-211-240-211-129 0-232 55-232 169 0 47 24 87 72 119s117 62 210 90c171 51 295 115 373 191s117 171 117 284c-2 272-237 411-528 404C331 13 78-135 69-458h301c0 161 96 241 288 241" id="aG"/><path d="M529-185c94 0 168-33 168-114 0-35-18-63-53-83s-91-39-168-55C219-491 90-600 90-765c0-208 203-337 432-337 246 0 451 124 453 349H686c-2-91-62-143-165-143-86 0-151 41-153 117 0 32 16 57 46 77 63 43 257 69 335 100 151 60 229 153 229 291C978-13 554 93 282-28 162-81 60-190 56-344h274c5 106 86 159 199 159" id="aH"/><g id="j"><use transform="matrix(0.010850694444444444,0,0,0.010850694444444444,0,0)" xlink:href="#aG"/><use transform="matrix(0.010850694444444444,0,0,0.010850694444444444,13.661024305555555,0)" xlink:href="#Y"/><use transform="matrix(0.010850694444444444,0,0,0.010850694444444444,25.67274305555556,0)" xlink:href="#V"/><use transform="matrix(0.010850694444444444,0,0,0.010850694444444444,38.118489583333336,0)" xlink:href="#S"/><use transform="matrix(0.010850694444444444,0,0,0.010850694444444444,50.64019097222223,0)" xlink:href="#aH"/></g><path d="M416-495c-3 181 88 274 258 274 169 0 257-89 257-266v-969h301v959c3 324-227 517-558 517-328 0-557-188-558-506v-970h300v961" id="aI"/><path d="M1209-1016c0 219-100 334-260 407l315 595V0H942L669-533H430V0H130v-1456h541c318-3 538 141 538 440zm-300 24c-1-144-85-221-238-221H430v437h242c144 2 238-77 237-216" id="aJ"/><path d="M430-241h637V0H130v-1456h300v1215" id="aK"/><g id="k"><use transform="matrix(0.010850694444444444,0,0,0.010850694444444444,0,0)" xlink:href="#aI"/><use transform="matrix(0.010850694444444444,0,0,0.010850694444444444,14.62673611111111,0)" xlink:href="#aJ"/><use transform="matrix(0.010850694444444444,0,0,0.010850694444444444,28.80859375,0)" xlink:href="#aK"/></g><path d="M457-330c2 83 25 111 111 112 32 0 60-2 85-7V-6c-57 17-115 26-175 26-203 0-310-102-310-307v-583H10v-212h158v-266h289v266h185v212H457v540" id="aL"/><g id="l"><use transform="matrix(0.010850694444444444,0,0,0.010850694444444444,0,0)" xlink:href="#aL"/><use transform="matrix(0.010850694444444444,0,0,0.010850694444444444,7.183159722222222,0)" xlink:href="#ab"/></g><path d="M522-1456L896-400l372-1056h394V0h-301c-7-379 15-728 30-1085L998 0H792L400-1084c15 357 37 705 30 1084H130v-1456h392" id="aM"/><g id="m"><use transform="matrix(0.010850694444444444,0,0,0.010850694444444444,0,0)" xlink:href="#aM"/><use transform="matrix(0.010850694444444444,0,0,0.010850694444444444,19.466145833333332,0)" xlink:href="#ab"/><use transform="matrix(0.010850694444444444,0,0,0.010850694444444444,32.03125,0)" xlink:href="#S"/><use transform="matrix(0.010850694444444444,0,0,0.010850694444444444,44.552951388888886,0)" xlink:href="#Y"/><use transform="matrix(0.010850694444444444,0,0,0.010850694444444444,56.564670138888886,0)" xlink:href="#aa"/></g><path d="M599-131c141 0 220-65 285-146l113 88C906-50 770 20 589 20 281 21 93-214 93-545c0-223 93-397 233-485 74-48 154-72 240-72 300 2 449 218 445 537v77H278c0 197 129 357 321 357zm227-509c-3-180-88-310-260-310-170 0-264 140-282 310h542" id="aN"/><path d="M456 20C285 20 205-92 206-268v-671H9v-143h197v-262h185v262h202v143H391v671c-9 125 92 149 207 118V0c-49 13-96 20-142 20" id="aO"/><path d="M663-916c-163-27-288 18-338 148V0H140v-1082h180l3 125c61-97 147-145 258-145 36 0 63 5 82 14v172" id="aP"/><path d="M341 0H156v-1082h185V0zm-91-1264c-68 0-108-42-109-105 0-62 41-107 109-107s110 44 110 107-42 105-110 105" id="aQ"/><path d="M497-251l268-831h189L566 0H425L33-1082h189" id="aR"/><g id="n"><use transform="matrix(0.010850694444444444,0,0,0.010850694444444444,0,0)" xlink:href="#aE"/><use transform="matrix(0.010850694444444444,0,0,0.010850694444444444,13.682725694444445,0)" xlink:href="#aN"/><use transform="matrix(0.010850694444444444,0,0,0.010850694444444444,25.455729166666664,0)" xlink:href="#aO"/><use transform="matrix(0.010850694444444444,0,0,0.010850694444444444,32.71484375,0)" xlink:href="#aP"/><use transform="matrix(0.010850694444444444,0,0,0.010850694444444444,40.234375,0)" xlink:href="#aQ"/><use transform="matrix(0.010850694444444444,0,0,0.010850694444444444,45.627170138888886,0)" xlink:href="#aN"/><use transform="matrix(0.010850694444444444,0,0,0.010850694444444444,57.25911458333333,0)" xlink:href="#aR"/><use transform="matrix(0.010850694444444444,0,0,0.010850694444444444,67.88194444444444,0)" xlink:href="#aN"/></g><g id="o"><use transform="matrix(0.010850694444444444,0,0,0.010850694444444444,0,0)" xlink:href="#az"/><use transform="matrix(0.010850694444444444,0,0,0.010850694444444444,13.18359375,0)" xlink:href="#aA"/><use transform="matrix(0.010850694444444444,0,0,0.010850694444444444,24.815538194444443,0)" xlink:href="#aB"/><use transform="matrix(0.010850694444444444,0,0,0.010850694444444444,36.90321180555556,0)" xlink:href="#aC"/></g><path d="M632-1102c291 0 422 251 422 573 0 297-141 548-419 549-131 0-235-42-310-125v521H140v-1498h169l9 120c75-93 180-140 314-140zm-53 971c207 0 290-180 290-419 0-218-92-395-292-395-112 0-196 50-252 149v517c55 99 140 148 254 148" id="aS"/><path d="M584 20C278 26 81-227 91-551c10-320 175-545 491-551 308-5 503 247 494 573-9 322-175 543-492 549zm-2-970c-208 0-305 185-305 421 0 216 106 398 307 398 211 0 307-186 307-420 0-214-109-399-309-399" id="aT"/><path d="M538-131c121 0 232-49 232-156 0-50-20-88-56-117-73-60-334-92-420-143-92-55-162-110-162-238 0-190 192-317 400-317 223 0 414 129 413 338H759c0-108-110-186-227-186-119 0-215 53-215 159 0 45 18 78 53 101 76 52 331 90 416 139 98 57 169 115 169 251C955-92 760 20 538 20c-176 0-314-68-386-174-38-55-57-115-57-179h185c6 129 116 202 258 202" id="aU"/><g id="p"><use transform="matrix(0.010850694444444444,0,0,0.010850694444444444,0,0)" xlink:href="#aE"/><use transform="matrix(0.010850694444444444,0,0,0.010850694444444444,13.682725694444445,0)" xlink:href="#aN"/><use transform="matrix(0.010850694444444444,0,0,0.010850694444444444,25.455729166666664,0)" xlink:href="#aS"/><use transform="matrix(0.010850694444444444,0,0,0.010850694444444444,37.92317708333333,0)" xlink:href="#aT"/><use transform="matrix(0.010850694444444444,0,0,0.010850694444444444,50.59678819444444,0)" xlink:href="#aP"/><use transform="matrix(0.010850694444444444,0,0,0.010850694444444444,58.658854166666664,0)" xlink:href="#aO"/><use transform="matrix(0.010850694444444444,0,0,0.010850694444444444,65.91796875,0)" xlink:href="#aU"/></g><g id="q"><use transform="matrix(0.013020833333333334,0,0,0.013020833333333334,0,0)" xlink:href="#aI"/><use transform="matrix(0.013020833333333334,0,0,0.013020833333333334,17.552083333333336,0)" xlink:href="#aH"/><use transform="matrix(0.013020833333333334,0,0,0.013020833333333334,31.263020833333336,0)" xlink:href="#Y"/><use transform="matrix(0.013020833333333334,0,0,0.013020833333333334,45.677083333333336,0)" xlink:href="#ad"/></g><path d="M645 0H180v-1490h484c435 0 692 280 692 742 0 466-257 748-711 748zM370-168h263c363 0 539-218 539-580 0-358-176-574-521-574H370v1154" id="aV"/><path d="M471 26C259 26 90-98 90-318c0-256 228-303 435-329 202-27 287-16 287-108 0-139-79-219-234-219-161 0-248 86-283 164l-173-57c86-203 278-265 451-265 150 0 419 46 419 395V0H815v-152h-12C765-73 660 26 471 26zm31-159c199 0 310-134 310-271v-155c-30 35-226 55-295 64-131 17-246 59-246 186 0 116 97 176 231 176" id="aW"/><path d="M598-1118v154H368v674c0 100 37 144 132 144 23 0 62-6 92-12L629-6c-37 13-88 20-134 20-193 0-307-107-307-290v-688H20v-154h168v-266h180v266h230" id="aX"/><path d="M180 0v-1490h528c311 0 458 177 458 395 0 191-114 278-244 313v14c139 9 302 137 302 371 0 225-148 397-499 397H180zm190-168h350c232 0 321-102 321-231 0-149-120-277-311-277H370v508zm0-668h328c160 0 286-101 286-255 0-129-87-231-280-231H370v486" id="aY"/><path d="M538 24C308 24 148-78 108-271l171-41c32 123 123 178 257 178 156 0 256-77 256-169 0-77-54-128-164-154l-186-44c-203-48-300-148-300-305 0-192 176-326 414-326 230 0 351 112 402 269l-163 42c-31-80-94-158-238-158-133 0-233 69-233 162 0 83 57 129 188 160l169 40c203 48 298 149 298 302 0 196-179 339-441 339" id="aZ"/><path d="M628 24c-324 0-524-230-524-574 0-343 198-582 503-582 237 0 487 146 487 559v75H286c9 234 145 362 343 362 132 0 231-58 273-172l174 48C1024-91 857 24 628 24zM287-650h624c-17-190-120-322-304-322-192 0-309 151-320 322" id="ba"/><g id="r"><use transform="matrix(0.010850694444444444,0,0,0.010850694444444444,0,0)" xlink:href="#aV"/><use transform="matrix(0.010850694444444444,0,0,0.010850694444444444,16.03732638888889,0)" xlink:href="#aW"/><use transform="matrix(0.010850694444444444,0,0,0.010850694444444444,28.515625,0)" xlink:href="#aX"/><use transform="matrix(0.010850694444444444,0,0,0.010850694444444444,35.89409722222222,0)" xlink:href="#aW"/><use transform="matrix(0.010850694444444444,0,0,0.010850694444444444,48.37239583333333,0)" xlink:href="#aY"/><use transform="matrix(0.010850694444444444,0,0,0.010850694444444444,62.912326388888886,0)" xlink:href="#aW"/><use transform="matrix(0.010850694444444444,0,0,0.010850694444444444,75.390625,0)" xlink:href="#aZ"/><use transform="matrix(0.010850694444444444,0,0,0.010850694444444444,87.12022569444444,0)" xlink:href="#ba"/></g><g id="s"><use transform="matrix(0.010850694444444444,0,0,0.010850694444444444,0,0)" xlink:href="#aE"/><use transform="matrix(0.010850694444444444,0,0,0.010850694444444444,13.682725694444445,0)" xlink:href="#aN"/><use transform="matrix(0.010850694444444444,0,0,0.010850694444444444,25.455729166666664,0)" xlink:href="#aA"/><use transform="matrix(0.010850694444444444,0,0,0.010850694444444444,37.08767361111111,0)" xlink:href="#aN"/><use transform="matrix(0.010850694444444444,0,0,0.010850694444444444,48.86067708333333,0)" xlink:href="#aQ"/><use transform="matrix(0.010850694444444444,0,0,0.010850694444444444,54.25347222222221,0)" xlink:href="#aR"/><use transform="matrix(0.010850694444444444,0,0,0.010850694444444444,64.87630208333333,0)" xlink:href="#aN"/></g><path d="M1216-1011c-1 297-202 441-512 441H361V0H169v-1456h537c297-6 510 164 510 445zm-192 2c1-178-126-288-307-289H361v571h345c196 1 318-92 318-282" id="bb"/><path d="M589-945c-131 0-219 81-264 174V0H140v-1536h185v585c82-101 189-151 320-151 229 0 346 129 346 387V0H806v-716c-2-153-65-229-217-229" id="bc"/><path d="M521 20C240 20 96-239 96-550c0-303 147-552 427-552 132 0 235 47 309 140l9-120h169V-26c4 277-183 454-459 452-165-1-334-81-400-187l96-111c79 98 176 147 291 147 180 1 288-109 286-290v-93C750-23 649 20 521 20zm48-965c-209 0-287 178-287 416 0 217 86 392 285 392 117 0 202-53 257-159v-494c-57-103-142-155-255-155" id="bd"/><g id="t"><use transform="matrix(0.010850694444444444,0,0,0.010850694444444444,0,0)" xlink:href="#bb"/><use transform="matrix(0.010850694444444444,0,0,0.010850694444444444,14.019097222222221,0)" xlink:href="#bc"/><use transform="matrix(0.010850694444444444,0,0,0.010850694444444444,26.258680555555554,0)" xlink:href="#aQ"/><use transform="matrix(0.010850694444444444,0,0,0.010850694444444444,31.651475694444443,0)" xlink:href="#aU"/><use transform="matrix(0.010850694444444444,0,0,0.010850694444444444,43.10980902777777,0)" xlink:href="#bc"/><use transform="matrix(0.010850694444444444,0,0,0.010850694444444444,55.3493923611111,0)" xlink:href="#aQ"/><use transform="matrix(0.010850694444444444,0,0,0.010850694444444444,60.742187499999986,0)" xlink:href="#aC"/><use transform="matrix(0.010850694444444444,0,0,0.010850694444444444,73.0034722222222,0)" xlink:href="#bd"/></g><path d="M973-380H363L226 0H28l556-1456h168L1309 0h-197zM421-538h495l-248-681" id="be"/><path d="M341 0H156v-1536h185V0" id="bf"/><g id="u"><use transform="matrix(0.010850694444444444,0,0,0.010850694444444444,0,0)" xlink:href="#be"/><use transform="matrix(0.010850694444444444,0,0,0.010850694444444444,14.496527777777777,0)" xlink:href="#bf"/><use transform="matrix(0.010850694444444444,0,0,0.010850694444444444,19.889322916666664,0)" xlink:href="#aN"/><use transform="matrix(0.010850694444444444,0,0,0.010850694444444444,31.66232638888889,0)" xlink:href="#aP"/></g><path d="M417-1456L893-268l476-1188h249V0h-192c-4-403 4-794 18-1179L966 0H819L342-1176c15 384 23 773 19 1176H169v-1456h248" id="bg"/><g id="v"><use transform="matrix(0.010850694444444444,0,0,0.010850694444444444,0,0)" xlink:href="#bg"/><use transform="matrix(0.010850694444444444,0,0,0.010850694444444444,19.401041666666664,0)" xlink:href="#aB"/><use transform="matrix(0.010850694444444444,0,0,0.010850694444444444,31.488715277777775,0)" xlink:href="#aA"/><use transform="matrix(0.010850694444444444,0,0,0.010850694444444444,43.12065972222222,0)" xlink:href="#bc"/><use transform="matrix(0.010850694444444444,0,0,0.010850694444444444,55.36024305555556,0)" xlink:href="#aQ"/><use transform="matrix(0.010850694444444444,0,0,0.010850694444444444,60.75303819444444,0)" xlink:href="#aC"/><use transform="matrix(0.010850694444444444,0,0,0.010850694444444444,73.01432291666666,0)" xlink:href="#aN"/></g><g id="w"><use transform="matrix(0.010850694444444444,0,0,0.010850694444444444,0,0)" xlink:href="#aF"/><use transform="matrix(0.010850694444444444,0,0,0.010850694444444444,11.957465277777777,0)" xlink:href="#aN"/><use transform="matrix(0.010850694444444444,0,0,0.010850694444444444,23.73046875,0)" xlink:href="#aB"/><use transform="matrix(0.010850694444444444,0,0,0.010850694444444444,35.818142361111114,0)" xlink:href="#aP"/><use transform="matrix(0.010850694444444444,0,0,0.010850694444444444,43.337673611111114,0)" xlink:href="#aC"/><use transform="matrix(0.010850694444444444,0,0,0.010850694444444444,55.59895833333333,0)" xlink:href="#aQ"/><use transform="matrix(0.010850694444444444,0,0,0.010850694444444444,60.99175347222222,0)" xlink:href="#aC"/><use transform="matrix(0.010850694444444444,0,0,0.010850694444444444,73.25303819444444,0)" xlink:href="#bd"/></g><path d="M520 20C244 20 95-247 95-550c0-298 151-550 427-552 127 0 227 43 301 130v-564h185V0H838l-9-116C755-25 652 20 520 20zm48-965c-210 0-288 177-288 416 0 218 87 392 286 392 117 0 203-53 257-158v-497c-55-102-140-153-255-153" id="bh"/><g id="x"><use transform="matrix(0.010850694444444444,0,0,0.010850694444444444,0,0)" xlink:href="#bg"/><use transform="matrix(0.010850694444444444,0,0,0.010850694444444444,19.401041666666664,0)" xlink:href="#aT"/><use transform="matrix(0.010850694444444444,0,0,0.010850694444444444,32.07465277777777,0)" xlink:href="#bh"/><use transform="matrix(0.010850694444444444,0,0,0.010850694444444444,44.6072048611111,0)" xlink:href="#aN"/><use transform="matrix(0.010850694444444444,0,0,0.010850694444444444,56.38020833333332,0)" xlink:href="#bf"/></g><path d="M491 20c-241-1-355-148-355-398v-704h185v699c0 164 67 246 200 246 141 0 235-53 282-158v-787h185V0H812l-4-107C736-22 630 20 491 20" id="bi"/><g id="y"><use transform="matrix(0.010850694444444444,0,0,0.010850694444444444,0,0)" xlink:href="#bg"/><use transform="matrix(0.010850694444444444,0,0,0.010850694444444444,19.401041666666664,0)" xlink:href="#aB"/><use transform="matrix(0.010850694444444444,0,0,0.010850694444444444,31.488715277777775,0)" xlink:href="#aC"/><use transform="matrix(0.010850694444444444,0,0,0.010850694444444444,43.75,0)" xlink:href="#bi"/><use transform="matrix(0.010850694444444444,0,0,0.010850694444444444,56.00043402777778,0)" xlink:href="#aB"/><use transform="matrix(0.010850694444444444,0,0,0.010850694444444444,68.08810763888889,0)" xlink:href="#bf"/></g><g id="z"><use transform="matrix(0.010850694444444444,0,0,0.010850694444444444,0,0)" xlink:href="#aE"/><use transform="matrix(0.010850694444444444,0,0,0.010850694444444444,13.682725694444445,0)" xlink:href="#aN"/><use transform="matrix(0.010850694444444444,0,0,0.010850694444444444,25.455729166666664,0)" xlink:href="#aS"/><use transform="matrix(0.010850694444444444,0,0,0.010850694444444444,37.92317708333333,0)" xlink:href="#aT"/><use transform="matrix(0.010850694444444444,0,0,0.010850694444444444,50.59678819444444,0)" xlink:href="#aP"/><use transform="matrix(0.010850694444444444,0,0,0.010850694444444444,58.658854166666664,0)" xlink:href="#aO"/></g><g id="A"><use transform="matrix(0.010850694444444444,0,0,0.010850694444444444,0,0)" xlink:href="#aJ"/><use transform="matrix(0.010850694444444444,0,0,0.010850694444444444,14.181857638888888,0)" xlink:href="#ab"/><use transform="matrix(0.010850694444444444,0,0,0.010850694444444444,26.746961805555554,0)" xlink:href="#ab"/><use transform="matrix(0.010850694444444444,0,0,0.010850694444444444,39.31206597222222,0)" xlink:href="#aL"/></g><path d="M355-556c-2 203 30 338 206 343 102 3 181-63 182-161h271C1001-128 821 17 566 20 242 24 66-212 66-554c0-320 184-548 498-548 262 0 451 167 450 423H743c-1-108-75-193-184-189-162 6-202 123-204 312" id="bj"/><g id="B"><use transform="matrix(0.010850694444444444,0,0,0.010850694444444444,0,0)" xlink:href="#R"/><use transform="matrix(0.010850694444444444,0,0,0.010850694444444444,14.952256944444445,0)" xlink:href="#bj"/><use transform="matrix(0.010850694444444444,0,0,0.010850694444444444,26.54079861111111,0)" xlink:href="#bj"/><use transform="matrix(0.010850694444444444,0,0,0.010850694444444444,38.12934027777778,0)" xlink:href="#Y"/><use transform="matrix(0.010850694444444444,0,0,0.010850694444444444,50.14105902777778,0)" xlink:href="#aH"/><use transform="matrix(0.010850694444444444,0,0,0.010850694444444444,61.56684027777778,0)" xlink:href="#aH"/></g><path d="M552-1102c254-4 435 134 435 383v469c1 103 15 180 43 233V0H738c-13-26-23-58-29-97C639-19 548 20 436 20 238 20 64-113 68-304c5-258 212-357 496-357h133c11-137-29-227-160-227-90 0-156 45-156 131H92c15-231 213-342 460-345zM357-325c0 76 61 124 142 124 88 0 168-45 198-105v-186H589c-152 2-232 51-232 167" id="bk"/><path d="M1212-428C1211-131 1004 0 696 0H130v-1456h510c318-1 539 108 539 399 0 155-89 264-208 308 141 33 242 151 241 321zM687-241c132 2 225-65 225-190 0-133-69-203-207-203H430v393h257zm192-786c0-145-86-186-239-186H430v367h222c151-3 227-63 227-181" id="bl"/><g id="C"><use transform="matrix(0.010850694444444444,0,0,0.010850694444444444,0,0)" xlink:href="#X"/><use transform="matrix(0.010850694444444444,0,0,0.010850694444444444,14.442274305555555,0)" xlink:href="#bk"/><use transform="matrix(0.010850694444444444,0,0,0.010850694444444444,26.35633680555556,0)" xlink:href="#aL"/><use transform="matrix(0.010850694444444444,0,0,0.010850694444444444,33.865017361111114,0)" xlink:href="#bk"/><use transform="matrix(0.010850694444444444,0,0,0.010850694444444444,45.77907986111111,0)" xlink:href="#bl"/><use transform="matrix(0.010850694444444444,0,0,0.010850694444444444,59.9609375,0)" xlink:href="#bk"/><use transform="matrix(0.010850694444444444,0,0,0.010850694444444444,71.875,0)" xlink:href="#aH"/><use transform="matrix(0.010850694444444444,0,0,0.010850694444444444,83.30078125,0)" xlink:href="#Y"/></g><g id="D"><use transform="matrix(0.010850694444444444,0,0,0.010850694444444444,0,0)" xlink:href="#aI"/><use transform="matrix(0.010850694444444444,0,0,0.010850694444444444,14.62673611111111,0)" xlink:href="#ac"/><use transform="matrix(0.010850694444444444,0,0,0.010850694444444444,27.13758680555556,0)" xlink:href="#S"/><use transform="matrix(0.010850694444444444,0,0,0.010850694444444444,39.65928819444444,0)" xlink:href="#bk"/><use transform="matrix(0.010850694444444444,0,0,0.010850694444444444,51.57335069444444,0)" xlink:href="#aL"/><use transform="matrix(0.010850694444444444,0,0,0.010850694444444444,59.08203125,0)" xlink:href="#Y"/></g><g id="E"><use transform="matrix(0.010850694444444444,0,0,0.010850694444444444,0,0)" xlink:href="#X"/><use transform="matrix(0.010850694444444444,0,0,0.010850694444444444,14.442274305555555,0)" xlink:href="#bk"/><use transform="matrix(0.010850694444444444,0,0,0.010850694444444444,26.35633680555556,0)" xlink:href="#aL"/><use transform="matrix(0.010850694444444444,0,0,0.010850694444444444,33.865017361111114,0)" xlink:href="#bk"/><use transform="matrix(0.010850694444444444,0,0,0.010850694444444444,45.77907986111111,0)" xlink:href="#bl"/><use transform="matrix(0.010850694444444444,0,0,0.010850694444444444,59.9609375,0)" xlink:href="#bk"/><use transform="matrix(0.010850694444444444,0,0,0.010850694444444444,71.875,0)" xlink:href="#aH"/><use transform="matrix(0.010850694444444444,0,0,0.010850694444444444,83.30078125,0)" xlink:href="#Y"/></g><path d="M463 20c-241-1-359-147-359-393v-709h289v699c0 113 51 169 154 169 98 0 165-34 202-102v-766h290V0H767l-8-110C688-23 589 20 463 20" id="bm"/><g id="F"><use transform="matrix(0.010850694444444444,0,0,0.010850694444444444,0,0)" xlink:href="#aM"/><use transform="matrix(0.010850694444444444,0,0,0.010850694444444444,19.466145833333332,0)" xlink:href="#bk"/><use transform="matrix(0.010850694444444444,0,0,0.010850694444444444,31.380208333333332,0)" xlink:href="#V"/><use transform="matrix(0.010850694444444444,0,0,0.010850694444444444,43.82595486111111,0)" xlink:href="#bm"/><use transform="matrix(0.010850694444444444,0,0,0.010850694444444444,56.26085069444444,0)" xlink:href="#bk"/><use transform="matrix(0.010850694444444444,0,0,0.010850694444444444,68.17491319444444,0)" xlink:href="#aa"/></g><g id="G"><use transform="matrix(0.010850694444444444,0,0,0.010850694444444444,0,0)" xlink:href="#aJ"/><use transform="matrix(0.010850694444444444,0,0,0.010850694444444444,14.181857638888888,0)" xlink:href="#Y"/><use transform="matrix(0.010850694444444444,0,0,0.010850694444444444,26.19357638888889,0)" xlink:href="#ac"/><use transform="matrix(0.010850694444444444,0,0,0.010850694444444444,38.70442708333333,0)" xlink:href="#ab"/><use transform="matrix(0.010850694444444444,0,0,0.010850694444444444,51.269531249999986,0)" xlink:href="#ad"/><use transform="matrix(0.010850694444444444,0,0,0.010850694444444444,59.91753472222221,0)" xlink:href="#aL"/></g><path d="M135 0v-1490h997v253H440v360h640v249H440v375h694V0H135" id="bn"/><path d="M42 0l360-574-338-544h324c72 124 151 261 209 394 58-134 140-271 215-394h318L785-570 1146 0H824c-79-136-169-280-234-425C528-278 439-134 360 0H42" id="bo"/><g id="H"><use transform="matrix(0.008173828125000001,0,0,0.008173828125000001,0,0)" xlink:href="#bn"/><use transform="matrix(0.008173828125000001,0,0,0.008173828125000001,10.1682421875,0)" xlink:href="#bo"/><use transform="matrix(0.008173828125000001,0,0,0.008173828125000001,20.115791015625,0)" xlink:href="#am"/><use transform="matrix(0.008173828125000001,0,0,0.008173828125000001,26.082685546875,0)" xlink:href="#al"/><use transform="matrix(0.008173828125000001,0,0,0.008173828125000001,36.054755859375,0)" xlink:href="#ai"/><use transform="matrix(0.008173828125000001,0,0,0.008173828125000001,46.47638671875,0)" xlink:href="#ah"/><use transform="matrix(0.008173828125000001,0,0,0.008173828125000001,55.851767578125,0)" xlink:href="#ag"/><use transform="matrix(0.008173828125000001,0,0,0.008173828125000001,60.3882421875,0)" xlink:href="#ao"/><use transform="matrix(0.008173828125000001,0,0,0.008173828125000001,70.6545703125,0)" xlink:href="#ai"/></g><g id="I"><use transform="matrix(0.008173828125000001,0,0,0.008173828125000001,0,0)" xlink:href="#ae"/><use transform="matrix(0.008173828125000001,0,0,0.008173828125000001,10.70771484375,0)" xlink:href="#ao"/><use transform="matrix(0.008173828125000001,0,0,0.008173828125000001,20.974042968750002,0)" xlink:href="#ag"/><use transform="matrix(0.008173828125000001,0,0,0.008173828125000001,25.510517578125004,0)" xlink:href="#ai"/><use transform="matrix(0.008173828125000001,0,0,0.008173828125000001,35.932148437500004,0)" xlink:href="#am"/><use transform="matrix(0.008173828125000001,0,0,0.008173828125000001,41.939912109374994,0)" xlink:href="#ah"/></g><path d="M1226-1213H780V0H480v-1213H40v-243h1186v243" id="bp"/><g id="J"><use transform="matrix(0.010850694444444444,0,0,0.010850694444444444,0,0)" xlink:href="#bp"/><use transform="matrix(0.010850694444444444,0,0,0.010850694444444444,13.042534722222221,0)" xlink:href="#ad"/><use transform="matrix(0.010850694444444444,0,0,0.010850694444444444,20.822482638888886,0)" xlink:href="#bk"/><use transform="matrix(0.010850694444444444,0,0,0.010850694444444444,32.736545138888886,0)" xlink:href="#U"/><use transform="matrix(0.010850694444444444,0,0,0.010850694444444444,38.62847222222222,0)" xlink:href="#V"/><use transform="matrix(0.010850694444444444,0,0,0.010850694444444444,51.07421875,0)" xlink:href="#aH"/></g><path d="M750-685c-1-124-48-182-173-182-85 0-146 33-184 98V0H104v-1536h289v572c77-92 173-138 289-138 235 0 357 136 357 409V0H750v-685" id="bq"/><g id="K"><use transform="matrix(0.010850694444444444,0,0,0.010850694444444444,0,0)" xlink:href="#aL"/><use transform="matrix(0.010850694444444444,0,0,0.010850694444444444,7.508680555555555,0)" xlink:href="#bq"/><use transform="matrix(0.010850694444444444,0,0,0.010850694444444444,19.943576388888886,0)" xlink:href="#Y"/></g><g id="L"><use transform="matrix(0.010850694444444444,0,0,0.010850694444444444,0,0)" xlink:href="#aM"/><use transform="matrix(0.010850694444444444,0,0,0.010850694444444444,19.466145833333332,0)" xlink:href="#aK"/></g><g id="M"><use transform="matrix(0.010850694444444444,0,0,0.010850694444444444,0,0)" xlink:href="#T"/><use transform="matrix(0.010850694444444444,0,0,0.010850694444444444,19.23828125,0)" xlink:href="#ab"/><use transform="matrix(0.010850694444444444,0,0,0.010850694444444444,31.803385416666664,0)" xlink:href="#S"/><use transform="matrix(0.010850694444444444,0,0,0.010850694444444444,44.32508680555556,0)" xlink:href="#Y"/><use transform="matrix(0.010850694444444444,0,0,0.010850694444444444,56.33680555555555,0)" xlink:href="#aa"/></g><g id="N"><use transform="matrix(0.010850694444444444,0,0,0.010850694444444444,0,0)" xlink:href="#aJ"/><use transform="matrix(0.010850694444444444,0,0,0.010850694444444444,14.181857638888888,0)" xlink:href="#Y"/><use transform="matrix(0.010850694444444444,0,0,0.010850694444444444,26.19357638888889,0)" xlink:href="#aH"/><use transform="matrix(0.010850694444444444,0,0,0.010850694444444444,37.619357638888886,0)" xlink:href="#bm"/><use transform="matrix(0.010850694444444444,0,0,0.010850694444444444,50.05425347222221,0)" xlink:href="#aa"/><use transform="matrix(0.010850694444444444,0,0,0.010850694444444444,55.94618055555555,0)" xlink:href="#aL"/><use transform="matrix(0.010850694444444444,0,0,0.010850694444444444,63.45486111111111,0)" xlink:href="#aH"/></g><g id="O"><use transform="matrix(0.010850694444444444,0,0,0.010850694444444444,0,0)" xlink:href="#aH"/><use transform="matrix(0.010850694444444444,0,0,0.010850694444444444,11.42578125,0)" xlink:href="#Y"/><use transform="matrix(0.010850694444444444,0,0,0.010850694444444444,23.4375,0)" xlink:href="#V"/><use transform="matrix(0.010850694444444444,0,0,0.010850694444444444,35.88324652777778,0)" xlink:href="#aL"/></g><path d="M505 20C221 18 69-239 69-549c0-302 153-553 438-553 119 0 211 41 277 122l12-102h262V-36c-8 305-208 458-520 462-160 1-335-76-403-170L263 80c72 81 159 121 262 121 172 1 260-107 243-294C701-18 614 20 505 20zm76-887c-165 0-223 147-223 339 0 172 66 314 221 314 88 0 151-33 189-99v-455c-39-66-101-99-187-99" id="br"/><g id="P"><use transform="matrix(0.010850694444444444,0,0,0.010850694444444444,0,0)" xlink:href="#aL"/><use transform="matrix(0.010850694444444444,0,0,0.010850694444444444,7.508680555555555,0)" xlink:href="#bq"/><use transform="matrix(0.010850694444444444,0,0,0.010850694444444444,19.943576388888886,0)" xlink:href="#ad"/><use transform="matrix(0.010850694444444444,0,0,0.010850694444444444,27.65842013888889,0)" xlink:href="#ab"/><use transform="matrix(0.010850694444444444,0,0,0.010850694444444444,40.22352430555555,0)" xlink:href="#bm"/><use transform="matrix(0.010850694444444444,0,0,0.010850694444444444,52.658420138888886,0)" xlink:href="#br"/><use transform="matrix(0.010850694444444444,0,0,0.010850694444444444,65.34288194444444,0)" xlink:href="#bq"/></g><path d="M1245-974c0 302-233 466-552 461H430V0H130v-1456h568c323 5 547 167 547 482zm-303 2c1-143-93-241-237-241H430v457h268c151 1 244-71 244-216" id="bs"/><path d="M449 0H149v-1456h300V0" id="bt"/><g id="Q"><use transform="matrix(0.010850694444444444,0,0,0.010850694444444444,0,0)" xlink:href="#R"/><use transform="matrix(0.010850694444444444,0,0,0.010850694444444444,14.952256944444445,0)" xlink:href="#bs"/><use transform="matrix(0.010850694444444444,0,0,0.010850694444444444,29.28602430555556,0)" xlink:href="#bt"/></g></defs></g></svg>