<svg xmlns="http://www.w3.org/2000/svg" xmlns:xlink="http://www.w3.org/1999/xlink" xmlns:lucid="lucid" width="840.5" height="640.5"><g transform="translate(660 -1700)" lucid:page-tab-id="0_0"><path d="M-516.73 1768.52c16.5 10.2 26.73 28.92 26.73 48.72 0 1.56-1.2 2.76-2.75 2.76h-104.5c-1.54 0-2.75-1.2-2.75-2.76 0-26.64 18.04-49.08 42.13-55.08-11.55-5.04-19.58-16.44-19.58-29.76 0-17.88 14.52-32.4 32.45-32.4 17.93 0 32.45 14.52 32.45 32.4 0 13.32-8.03 24.72-19.58 29.76 5.4 1.32 10.56 3.36 15.4 6.36zm-77.66 46.08h98.8c-.9-17.04-9.9-32.64-24.1-41.4-7.6-4.8-16.4-7.2-25.3-7.2-26.4 0-48.07 21.48-49.4 48.6zm22.45-82.2c0 14.88 12.1 26.88 26.95 26.88s26.95-12 26.95-26.88c0-14.88-12.1-27-26.95-27s-26.95 12.12-26.95 27z" stroke="#000" stroke-opacity="0" fill="#3a414a"/><use xlink:href="#a" transform="matrix(1,0,0,1,-630,1829) translate(59.245876736111114 21.74305555555555)"/><path d="M-90.6 1968c49.8 0 90.16 40.36 90.16 90.15 0 49.78-40.37 90.15-90.15 90.15h-255.25c-49.8 0-90.15-40.37-90.15-90.15 0-49.8 40.36-90.15 90.15-90.15z" stroke="#3a414a" fill="#fff"/><use xlink:href="#b" transform="matrix(1,0,0,1,-431,1973) translate(65.58230251736114 93.66460503472223)"/><use xlink:href="#c" transform="matrix(1,0,0,1,-431,1973) translate(166.27544487847223 93.66460503472223)"/><use xlink:href="#d" transform="matrix(1,0,0,1,-431,1973) translate(277.78531901041663 93.66460503472223)"/><path d="M-527.58 2046.13l.15 1.82.42 1.76.68 1.68.95 1.54 1.17 1.38 1.38 1.17 1.54.95 1.67.7 1.75.4 1.82.15h63.15v.95h-63.2l-1.92-.15-1.9-.46-1.82-.74-1.66-1.02-1.5-1.27-1.26-1.5-1.03-1.66-.75-1.8-.46-1.9-.15-1.93V1920.2h.95zm0-153.1h-.95V1760.5h.95z" stroke="#3a414a" stroke-width=".05" fill="#3a414a"/><path d="M-527.58 1760.5h-.95v-.25l.8-.42.15-.12z" fill="#3a414a"/><path stroke="#3a414a" stroke-width=".05" fill="#3a414a"/><path d="M-438.12 2058.15l-14.26 4.63v-9.27z" fill="#3a414a"/><path d="M-436.58 2058.15l-16.28 5.3v-10.6zm-15.33 3.98l12.25-3.98-12.26-3.98z" stroke="#3a414a" stroke-width=".05" fill="#3a414a"/><use xlink:href="#e" transform="matrix(1,0,0,1,-549.9702071556915,1893.0346658103792) translate(0.004999999999999005 21.74305555555555)"/><path d="M-622.38 2174.13a10.4 10.4 0 0 1 10.06-7.73h143.43a6.15 6.15 0 0 1 5.95 7.73l-35.56 133.34a10.4 10.4 0 0 1-10.07 7.73H-652a6.15 6.15 0 0 1-5.94-7.73z" stroke="#3a414a" fill="#fff"/><use xlink:href="#f" transform="matrix(1,0,0,1,-655,2171.4) translate(69.70068359375 77.66460503472223)"/><path d="M-328.3 2241.28h-151.4v-.96h151.4zm110.55-12.46l-.15 1.93-.46 1.9-.75 1.8-1.03 1.68-1.27 1.5-1.5 1.26-1.66 1.02-1.8.75-1.9.45-1.94.16h-47.94v-.96h47.9l1.82-.14 1.76-.42 1.67-.7 1.55-.94 1.38-1.17 1.17-1.38.94-1.54.7-1.67.42-1.76.14-1.82v-63.6h.95z" stroke="#3a414a" stroke-width=".05" fill="#3a414a"/><path d="M-479.7 2241.28h-.64l.25-.96h.4z" fill="#3a414a"/><path stroke="#3a414a" stroke-width=".05" fill="#3a414a"/><path d="M-213.6 2164.68h-9.26l4.64-14.27z" fill="#3a414a"/><path d="M-212.93 2165.16h-10.58l5.28-16.28zm-9.27-.95h7.96l-3.98-12.25z" stroke="#3a414a" stroke-width=".05" fill="#3a414a"/><use xlink:href="#g" transform="matrix(1,0,0,1,-328.2895049068093,2227.2215494791667) translate(0.004999999999999005 21.74305555555555)"/><path d="M180 2325.12c0 8.22-33.43 14.88-74.67 14.88-41.23 0-74.66-6.66-74.66-14.88v-119.04c0-8.22 33.43-14.88 74.66-14.88 41.24 0 74.67 6.66 74.67 14.88z" stroke="#3a414a" fill="#fff"/><path d="M180 2206.08c0 8.22-33.43 14.88-74.67 14.88-41.23 0-74.66-6.66-74.66-14.88" stroke="#3a414a" fill="none"/><use xlink:href="#h" transform="matrix(1,0,0,1,35.6666666666667,2225.96) translate(18.0314670138889 63.16460503472222)"/><path d="M43.27 1768.52c16.5 10.2 26.73 28.92 26.73 48.72 0 1.56-1.2 2.76-2.75 2.76h-104.5c-1.54 0-2.75-1.2-2.75-2.76 0-26.64 18.04-49.08 42.13-55.08-11.55-5.04-19.58-16.44-19.58-29.76 0-17.88 14.52-32.4 32.45-32.4 17.93 0 32.45 14.52 32.45 32.4 0 13.32-8.03 24.72-19.58 29.76 5.4 1.32 10.56 3.36 15.4 6.36zm-77.66 46.08h98.8c-.9-17.04-9.9-32.64-24.1-41.4-7.6-4.8-16.4-7.2-25.3-7.2-26.4 0-48.07 21.48-49.4 48.6zm22.45-82.2c0 14.88 12.1 26.88 26.95 26.88s26.95-12 26.95-26.88c0-14.88-12.1-27-26.95-27s-26.95 12.12-26.95 27z" stroke="#000" stroke-opacity="0" fill="#242f3e"/><use xlink:href="#i" transform="matrix(1,0,0,1,-70,1829) translate(8.11328125 17.4375)"/><path d="M-124.93 1864.22h-81.27l-1.83.15-1.75.42-1.67.68-1.55.95-1.37 1.17-1.17 1.38-.95 1.54-.68 1.67-.42 1.75-.15 1.82v75.35h-.95v-75.4l.16-1.92.45-1.9.76-1.8 1.02-1.68 1.28-1.5 1.48-1.26 1.67-1.03 1.82-.75 1.9-.45 1.94-.15h81.3zm123.54-12.45l-.14 1.93-.46 1.9-.75 1.8-1.02 1.68-1.27 1.5-1.5 1.26-1.66 1.03-1.8.75-1.9.45-1.95.15h-34.1l.02-.94h34.04l1.84-.15 1.75-.42 1.67-.68 1.54-.95 1.38-1.17 1.18-1.38.94-1.54.7-1.67.42-1.75.14-1.82v-91.23h.95z" stroke="#3a414a" stroke-width=".05" fill="#3a414a"/><path d="M-1.4 1760.26v.25h-.94v-.76z" fill="#3a414a"/><path stroke="#3a414a" stroke-width=".05" fill="#3a414a"/><path d="M-218.22 1965.88l-4.64-14.26h9.27z" fill="#3a414a"/><path d="M-218.22 1967.42l-5.3-16.28h10.6zm-3.98-15.33l3.98 12.25 3.98-12.26z" stroke="#3a414a" stroke-width=".05" fill="#3a414a"/><use xlink:href="#j" transform="matrix(1,0,0,1,-124.93421049260253,1850.1715494791667) translate(0.005000000000002558 21.74305555555555)"/><path d="M105.8 2190.2h-.94v-81.74h.95zM95.3 2057.82l1.9.46 1.82.75 1.67 1.02 1.5 1.28 1.26 1.5 1.02 1.65.75 1.8.46 1.92.15 1.93v11.17h-.94v-11.13l-.14-1.83-.43-1.75-.7-1.68-.94-1.55-1.18-1.37-1.37-1.18-1.53-.94-1.68-.7-1.76-.4-1.83-.16H16.45v-.95h76.9z" stroke="#3a414a" stroke-width=".05" fill="#3a414a"/><path d="M105.8 2190.72l-.46-.02h-.48v-.5h.95z" fill="#3a414a"/><path stroke="#3a414a" stroke-width=".05" fill="#3a414a"/><path d="M15.94 2062.78l-14.27-4.63 14.27-4.64z" fill="#3a414a"/><path d="M16.4 2063.44l-16.26-5.3 16.27-5.28zm-13.2-5.3l12.26 4v-7.97z" stroke="#3a414a" stroke-width=".05" fill="#3a414a"/><g><use xlink:href="#k" transform="matrix(1,0,0,1,70.06114366319449,2081.2991577587923) translate(0.005000000000002558 21.74305555555555)"/></g><defs><path d="M750 21c-371 0-615-218-615-544v-967h305v942c0 174 123 299 310 299s309-125 309-299v-942h306v967c0 326-247 544-615 544" id="l"/><path d="M572 22C302 22 117-98 78-306l279-48c29 105 101 156 224 156 114 0 185-48 185-115 0-118-228-130-337-155-215-49-322-150-322-317 0-215 187-347 470-347 265 0 424 116 466 298l-266 47c-24-76-87-130-196-130-98 0-174 46-174 113 0 56 38 95 144 117l201 40c216 44 320 143 320 302 0 220-207 367-500 367" id="m"/><path d="M633 22C291 22 81-200 81-553c0-345 210-579 537-579 292 0 525 185 525 567v84H378c7 183 109 277 260 277 105 0 184-46 216-132l272 51C1071-99 893 22 633 22zM380-669h474c-15-146-94-237-233-237-143 0-229 99-241 237" id="n"/><path d="M128 0v-1118h290v195h12c54-169 184-238 367-200v268c-27-8-86-15-130-15-138 0-239 95-239 234V0H128" id="o"/><g id="a"><use transform="matrix(0.010959201388888886,0,0,0.010959201388888886,0,0)" xlink:href="#l"/><use transform="matrix(0.010959201388888886,0,0,0.010959201388888886,16.42784288194444,0)" xlink:href="#m"/><use transform="matrix(0.010959201388888886,0,0,0.010959201388888886,28.998046874999993,0)" xlink:href="#n"/><use transform="matrix(0.010959201388888886,0,0,0.010959201388888886,42.368272569444436,0)" xlink:href="#o"/></g><path d="M135 0v-1490h581c339 0 533 210 533 503 0 295-197 500-540 500H440V0H135zm305-733h220c186 0 274-104 274-254s-88-251-275-251H440v505" id="p"/><path d="M428-647V0H128v-1490h294v586c65-146 175-228 341-228 232 0 385 159 385 421V0H847v-659c0-139-76-222-202-222-128 0-217 86-217 234" id="q"/><path d="M128 0v-1118h300V0H128zm150-1264c-91 0-165-68-165-154 0-85 74-154 165-154 90 0 165 69 165 154 0 86-75 154-165 154" id="r"/><path d="M428-647V0H128v-1118h283l4 231c63-156 176-245 348-245 232 0 384 159 384 421V0H847v-659c0-139-76-222-202-222-128 0-217 86-217 234" id="s"/><path d="M625 442c-280 0-454-114-503-274l258-72c28 63 97 128 243 128 153 0 246-69 246-216v-206h-23C805-108 717-16 536-16 284-16 81-191 81-561c0-378 208-571 456-571 188 0 280 113 321 202h13v-188h295V-9c0 303-226 451-541 451zm5-686c153 0 240-119 240-319 0-198-86-329-240-329-158 0-241 137-241 329 0 195 85 319 241 319" id="t"/><g id="b"><use transform="matrix(0.010959201388888886,0,0,0.010959201388888886,0,0)" xlink:href="#p"/><use transform="matrix(0.010959201388888886,0,0,0.010959201388888886,14.542860243055552,0)" xlink:href="#q"/><use transform="matrix(0.010959201388888886,0,0,0.010959201388888886,28.515842013888882,0)" xlink:href="#r"/><use transform="matrix(0.010959201388888886,0,0,0.010959201388888886,34.598198784722214,0)" xlink:href="#m"/><use transform="matrix(0.010959201388888886,0,0,0.010959201388888886,47.168402777777764,0)" xlink:href="#q"/><use transform="matrix(0.010959201388888886,0,0,0.010959201388888886,61.1413845486111,0)" xlink:href="#r"/><use transform="matrix(0.010959201388888886,0,0,0.010959201388888886,67.22374131944443,0)" xlink:href="#s"/><use transform="matrix(0.010959201388888886,0,0,0.010959201388888886,81.19672309027776,0)" xlink:href="#t"/></g><path d="M659 0H135v-1490h529c448 0 721 280 721 744 0 466-273 746-726 746zM440-263h204c287 0 437-148 437-483 0-333-150-481-435-481H440v964" id="u"/><path d="M683-1118v229H474v562c0 71 29 104 102 104 23 0 73-7 95-13l43 225C647 9 580 16 520 16 296 16 174-96 174-301v-588H20v-229h154v-266h300v266h209" id="v"/><path d="M628 22C291 22 81-210 81-554c0-346 210-578 547-578 265 0 455 142 497 372l-279 52c-25-116-99-188-215-188-160 0-244 139-244 341 0 200 84 341 244 341 116 0 193-74 217-195l279 51C1085-123 896 22 628 22" id="w"/><path d="M628 22C291 22 81-210 81-554c0-346 210-578 547-578 336 0 547 232 547 578 0 344-211 576-547 576zm0-236c160 0 242-146 242-341 0-197-82-341-242-341S387-753 387-555c0 195 81 341 241 341" id="x"/><g id="c"><use transform="matrix(0.010959201388888886,0,0,0.010959201388888886,0,0)" xlink:href="#u"/><use transform="matrix(0.010959201388888886,0,0,0.010959201388888886,16.208658854166664,0)" xlink:href="#n"/><use transform="matrix(0.010959201388888886,0,0,0.010959201388888886,29.57888454861111,0)" xlink:href="#v"/><use transform="matrix(0.010959201388888886,0,0,0.010959201388888886,37.57910156249999,0)" xlink:href="#n"/><use transform="matrix(0.010959201388888886,0,0,0.010959201388888886,50.949327256944436,0)" xlink:href="#w"/><use transform="matrix(0.010959201388888886,0,0,0.010959201388888886,64.15516493055554,0)" xlink:href="#v"/><use transform="matrix(0.010959201388888886,0,0,0.010959201388888886,72.3745659722222,0)" xlink:href="#r"/><use transform="matrix(0.010959201388888886,0,0,0.010959201388888886,78.45692274305553,0)" xlink:href="#x"/><use transform="matrix(0.010959201388888886,0,0,0.010959201388888886,92.22167968749999,0)" xlink:href="#s"/></g><path d="M681 22C323 22 94-145 85-462h297c10 151 131 226 296 226 163 0 271-77 271-190 0-102-95-149-257-189l-164-41c-252-61-403-188-403-405 0-269 236-449 560-449 330 0 546 183 551 445H941c-11-119-106-188-259-188-156 0-244 72-244 172-3 156 226 185 373 221 250 61 445 186 445 436 0 271-213 446-575 446" id="y"/><path d="M120 396l69-226c123 42 245 23 254-107l8-60L31-1118h319c87 288 199 559 259 872 72-308 185-583 277-872h315L726 132c-68 181-186 294-410 294-79 0-153-13-196-30" id="z"/><path d="M128 0v-1118h278l12 217c60-163 185-234 319-234 143 0 236 81 288 251 63-172 205-251 359-251 205 0 357 138 357 381V0h-301v-697c0-126-76-187-177-187-114 0-184 79-184 196V0H789v-705c0-109-72-179-174-179-106 0-187 74-187 208V0H128" id="A"/><g id="d"><use transform="matrix(0.010959201388888886,0,0,0.010959201388888886,0,0)" xlink:href="#y"/><use transform="matrix(0.010959201388888886,0,0,0.010959201388888886,14.696289062499996,0)" xlink:href="#z"/><use transform="matrix(0.010959201388888886,0,0,0.010959201388888886,28.208984374999993,0)" xlink:href="#m"/><use transform="matrix(0.010959201388888886,0,0,0.010959201388888886,40.77918836805554,0)" xlink:href="#v"/><use transform="matrix(0.010959201388888886,0,0,0.010959201388888886,48.779405381944436,0)" xlink:href="#n"/><use transform="matrix(0.010959201388888886,0,0,0.010959201388888886,62.14963107638887,0)" xlink:href="#A"/></g><path fill="#3a414a" d="M763 24c-353 0-583-224-583-531v-983h190v968c0 214 149 370 393 370 243 0 391-156 391-370v-968h190v983c0 307-230 531-581 531" id="B"/><path fill="#3a414a" d="M180 0v-1490h510c348 0 508 194 508 460 0 198-88 351-276 417L1256 0h-220L726-579c-117 2-238 0-356 1V0H180zm190-747h312c235 0 327-108 327-283 0-177-92-293-329-293H370v576" id="C"/><path fill="#3a414a" d="M180 0v-1490h190v1322h690V0H180" id="D"/><g id="e"><use transform="matrix(0.010959201388888886,0,0,0.010959201388888886,0,0)" xlink:href="#B"/><use transform="matrix(0.010959201388888886,0,0,0.010959201388888886,16.701822916666664,0)" xlink:href="#C"/><use transform="matrix(0.010959201388888886,0,0,0.010959201388888886,31.146050347222214,0)" xlink:href="#D"/></g><path fill="#3a414a" d="M659 0H135v-1490h529c448 0 721 280 721 744 0 466-273 746-726 746zM440-263h204c287 0 437-148 437-483 0-333-150-481-435-481H440v964" id="E"/><path fill="#3a414a" d="M440 22C227 22 68-92 68-313c0-250 202-322 422-343 195-21 271-24 271-105 0-95-63-149-175-149-116 0-187 57-211 129l-275-46c57-194 237-305 487-305 240 0 474 108 474 379V0H777v-155h-10C713-51 605 22 440 22zm85-211c140 0 238-93 238-211v-121c-37 26-156 42-222 51-111 16-185 59-185 149 0 87 70 132 169 132" id="F"/><path fill="#3a414a" d="M683-1118v229H474v562c0 71 29 104 102 104 23 0 73-7 95-13l43 225C647 9 580 16 520 16 296 16 174-96 174-301v-588H20v-229h154v-266h300v266h209" id="G"/><g id="f"><use transform="matrix(0.010959201388888886,0,0,0.010959201388888886,0,0)" xlink:href="#E"/><use transform="matrix(0.010959201388888886,0,0,0.010959201388888886,16.208658854166664,0)" xlink:href="#F"/><use transform="matrix(0.010959201388888886,0,0,0.010959201388888886,29.23914930555555,0)" xlink:href="#G"/><use transform="matrix(0.010959201388888886,0,0,0.010959201388888886,37.5681423611111,0)" xlink:href="#F"/></g><path fill="#3a414a" d="M52 0l541-1490h220L1361 0h-200l-149-416H398L254 0H52zm404-582h497c-103-290-145-390-251-756-108 377-145 460-246 756" id="H"/><path fill="#3a414a" d="M338-1490V0H158v-1490h180" id="I"/><path fill="#3a414a" d="M628 24c-324 0-524-230-524-574 0-343 198-582 503-582 237 0 487 146 487 559v75H286c9 234 145 362 343 362 132 0 231-58 273-172l174 48C1024-91 857 24 628 24zM287-650h624c-17-190-120-322-304-322-192 0-309 151-320 322" id="J"/><path fill="#3a414a" d="M158 0v-1118h174v172h12c41-113 157-188 290-188 26 0 70 2 91 3v181c-11-2-60-10-108-10-161 0-279 109-279 260V0H158" id="K"/><path fill="#3a414a" d="M598-1118v154H368v674c0 100 37 144 132 144 23 0 62-6 92-12L629-6c-37 13-88 20-134 20-193 0-307-107-307-290v-688H20v-154h168v-266h180v266h230" id="L"/><g id="g"><use transform="matrix(0.010959201388888886,0,0,0.010959201388888886,0,0)" xlink:href="#H"/><use transform="matrix(0.010959201388888886,0,0,0.010959201388888886,15.485351562499996,0)" xlink:href="#I"/><use transform="matrix(0.010959201388888886,0,0,0.010959201388888886,20.921115451388886,0)" xlink:href="#J"/><use transform="matrix(0.010959201388888886,0,0,0.010959201388888886,34.006401909722214,0)" xlink:href="#K"/><use transform="matrix(0.010959201388888886,0,0,0.010959201388888886,42.806640624999986,0)" xlink:href="#L"/></g><path fill="#3a414a" d="M754 19C571 19 479-89 437-179h-14V0H128v-1490h300v560h9c41-89 129-202 319-202 248 0 453 193 453 575 0 372-197 576-455 576zm-92-241c156 0 240-139 240-336 0-196-83-334-240-334-154 0-241 131-241 334 0 202 88 336 241 336" id="M"/><path fill="#3a414a" d="M572 22C302 22 117-98 78-306l279-48c29 105 101 156 224 156 114 0 185-48 185-115 0-118-228-130-337-155-215-49-322-150-322-317 0-215 187-347 470-347 265 0 424 116 466 298l-266 47c-24-76-87-130-196-130-98 0-174 46-174 113 0 56 38 95 144 117l201 40c216 44 320 143 320 302 0 220-207 367-500 367" id="N"/><path fill="#3a414a" d="M633 22C291 22 81-200 81-553c0-345 210-579 537-579 292 0 525 185 525 567v84H378c7 183 109 277 260 277 105 0 184-46 216-132l272 51C1071-99 893 22 633 22zM380-669h474c-15-146-94-237-233-237-143 0-229 99-241 237" id="O"/><g id="h"><use transform="matrix(0.010959201388888886,0,0,0.010959201388888886,0,0)" xlink:href="#E"/><use transform="matrix(0.010959201388888886,0,0,0.010959201388888886,16.208658854166664,0)" xlink:href="#F"/><use transform="matrix(0.010959201388888886,0,0,0.010959201388888886,29.23914930555555,0)" xlink:href="#G"/><use transform="matrix(0.010959201388888886,0,0,0.010959201388888886,37.5681423611111,0)" xlink:href="#F"/><use transform="matrix(0.010959201388888886,0,0,0.010959201388888886,50.598632812499986,0)" xlink:href="#M"/><use transform="matrix(0.010959201388888886,0,0,0.010959201388888886,64.96614583333331,0)" xlink:href="#F"/><use transform="matrix(0.010959201388888886,0,0,0.010959201388888886,77.9966362847222,0)" xlink:href="#N"/><use transform="matrix(0.010959201388888886,0,0,0.010959201388888886,90.56684027777776,0)" xlink:href="#O"/></g><path d="M49 0l509-1490h400L1480 0h-339l-115-346H497L386 0H49zm524-585h374c-75-213-124-402-192-666-66 268-110 453-182 666" id="P"/><path d="M537 19C279 19 81-185 81-557c0-382 206-575 454-575 190 0 278 113 318 202h10v-560h300V0H868v-179h-15C812-89 719 19 537 19zm92-241c153 0 240-134 240-336 0-203-86-334-240-334-158 0-240 138-240 334 0 197 84 336 240 336" id="Q"/><path d="M768-1560L288 224H28l480-1784h260" id="R"/><path d="M443 0L31-1118h319c90 293 199 572 268 885 66-313 175-593 264-885h315L784 0H443" id="S"/><path d="M428-1490V0H128v-1490h300" id="T"/><path d="M128 418v-1536h295v188h14c41-89 129-202 319-202 248 0 453 193 453 575 0 372-197 576-455 576-183 0-275-108-317-198h-9v597H128zm534-640c156 0 240-139 240-336 0-196-83-334-240-334-154 0-241 131-241 334 0 202 88 336 241 336" id="U"/><g id="i"><use transform="matrix(0.0087890625,0,0,0.0087890625,0,0)" xlink:href="#P"/><use transform="matrix(0.0087890625,0,0,0.0087890625,13.025390625,0)" xlink:href="#Q"/><use transform="matrix(0.0087890625,0,0,0.0087890625,24.3720703125,0)" xlink:href="#A"/><use transform="matrix(0.0087890625,0,0,0.0087890625,40.798828125,0)" xlink:href="#r"/><use transform="matrix(0.0087890625,0,0,0.0087890625,45.6767578125,0)" xlink:href="#s"/><use transform="matrix(0.0087890625,0,0,0.0087890625,56.8828125,0)" xlink:href="#R"/><use transform="matrix(0.0087890625,0,0,0.0087890625,63.8701171875,0)" xlink:href="#u"/><use transform="matrix(0.0087890625,0,0,0.0087890625,76.869140625,0)" xlink:href="#n"/><use transform="matrix(0.0087890625,0,0,0.0087890625,87.2666015625,0)" xlink:href="#S"/><use transform="matrix(0.0087890625,0,0,0.0087890625,97.734375,0)" xlink:href="#n"/><use transform="matrix(0.0087890625,0,0,0.0087890625,108.45703125,0)" xlink:href="#T"/><use transform="matrix(0.0087890625,0,0,0.0087890625,113.3349609375,0)" xlink:href="#x"/><use transform="matrix(0.0087890625,0,0,0.0087890625,124.3740234375,0)" xlink:href="#U"/><use transform="matrix(0.0087890625,0,0,0.0087890625,135.720703125,0)" xlink:href="#n"/><use transform="matrix(0.0087890625,0,0,0.0087890625,146.443359375,0)" xlink:href="#o"/></g><path fill="#3a414a" d="M158 418v-1536h174v179h20c37-59 106-193 324-193 279 0 474 222 474 576 0 356-194 580-473 580-213 0-288-135-325-197h-14v591H158zm492-555c209 0 317-186 317-421 0-232-105-413-317-413-206 0-314 166-314 413 0 249 111 421 314 421" id="V"/><path fill="#3a414a" d="M577 24c-279 0-473-224-473-580 0-354 195-576 474-576 218 0 287 134 324 193h14v-551h180V0H922v-173h-20C865-111 790 24 577 24zm27-161c203 0 314-172 314-421 0-247-108-413-314-413-212 0-317 181-317 413 0 235 108 421 317 421" id="W"/><path fill="#3a414a" d="M471 26C259 26 90-98 90-318c0-256 228-303 435-329 202-27 287-16 287-108 0-139-79-219-234-219-161 0-248 86-283 164l-173-57c86-203 278-265 451-265 150 0 419 46 419 395V0H815v-152h-12C765-73 660 26 471 26zm31-159c199 0 310-134 310-271v-155c-30 35-226 55-295 64-131 17-246 59-246 186 0 116 97 176 231 176" id="X"/><g id="j"><use transform="matrix(0.010959201388888886,0,0,0.010959201388888886,0,0)" xlink:href="#B"/><use transform="matrix(0.010959201388888886,0,0,0.010959201388888886,16.701822916666664,0)" xlink:href="#V"/><use transform="matrix(0.010959201388888886,0,0,0.010959201388888886,30.444661458333325,0)" xlink:href="#W"/><use transform="matrix(0.010959201388888886,0,0,0.010959201388888886,44.18749999999999,0)" xlink:href="#X"/><use transform="matrix(0.010959201388888886,0,0,0.010959201388888886,56.79058159722222,0)" xlink:href="#L"/><use transform="matrix(0.010959201388888886,0,0,0.010959201388888886,63.914062499999986,0)" xlink:href="#J"/></g><path fill="#3a414a" d="M613 24c-304 0-509-231-509-576 0-350 205-580 509-580 305 0 511 230 511 580 0 345-206 576-511 576zm0-161c226 0 329-195 329-415 0-222-103-419-329-419-223 0-326 196-326 419 0 220 103 415 326 415" id="Y"/><g id="k"><use transform="matrix(0.010959201388888886,0,0,0.010959201388888886,0,0)" xlink:href="#C"/><use transform="matrix(0.010959201388888886,0,0,0.010959201388888886,14.115451388888886,0)" xlink:href="#J"/><use transform="matrix(0.010959201388888886,0,0,0.010959201388888886,27.200737847222214,0)" xlink:href="#V"/><use transform="matrix(0.010959201388888886,0,0,0.010959201388888886,40.94357638888888,0)" xlink:href="#Y"/><use transform="matrix(0.010959201388888886,0,0,0.010959201388888886,54.40147569444443,0)" xlink:href="#K"/><use transform="matrix(0.010959201388888886,0,0,0.010959201388888886,63.2017144097222,0)" xlink:href="#L"/></g></defs></g></svg>