<svg xmlns="http://www.w3.org/2000/svg" xmlns:xlink="http://www.w3.org/1999/xlink" xmlns:lucid="lucid" width="2022" height="1262"><g transform="translate(2540.9999500000004 281.00000002922843)" lucid:page-tab-id="0_0"><path d="M-2172 100c33.87 0 61.33 27.46 61.33 61.33 0 33.88-27.46 61.34-61.33 61.34h-166.67c-33.87 0-61.33-27.46-61.33-61.34 0-33.87 27.46-61.33 61.33-61.33z" stroke="#282c33" stroke-width="2" fill="#1071e5"/><use xlink:href="#a" transform="matrix(1,0,0,1,-2395,105) translate(97.947265625 68.890625)"/><path d="M-1260 860c33.14 0 60 26.86 60 60s-26.86 60-60 60h-240c-33.14 0-60-26.86-60-60s26.86-60 60-60z" stroke="#282c33" stroke-width="2" fill="#1071e5"/><use xlink:href="#b" transform="matrix(1,0,0,1,-1555,865) translate(18.53515625 68.046875)"/><path d="M-1344.6 460h-80.1c-5.5 0-10 3.96-10 8.82V640h100V468.82c0-4.86-4.5-8.82-9.9-8.82zm-5 162.36h-70.1v-8.82h70.1v8.82zm0-17.46h-70.1v-8.82h70.1v8.82zm0-109.8h-70.1v-8.82h70.1v8.82z" stroke="#000" stroke-opacity="0" fill="#2a3282"/><use xlink:href="#c" transform="matrix(1,0,0,1,-1464.7,649) translate(23.671875 37.109375)"/><path d="M-1927.36 161.8h-181.8v-.94h181.8zM-1501.08-.7h-290.1l-.87.08-.84.2-.8.33-.73.46-.66.57-.55.66-.45.73-.34.8-.2.84-.07.88V141.8h-.96V4.8l.08-.98.24-1 .4-.93.52-.87.66-.78.77-.66.88-.54.93-.4 1-.22 1-.08h290.12z" stroke="#3a414a" stroke-width=".05" fill="#3a414a"/><path d="M-2109.15 161.8h-.53v-.95h.53z" fill="#3a414a"/><path stroke="#3a414a" stroke-width=".05" fill="#3a414a"/><path d="M-1486.32-1.17l-14.26 4.64V-5.8z" fill="#3a414a"/><path d="M-1484.78-1.17l-16.28 5.3v-10.6zm-15.33 4l12.24-4-12.25-3.98z" stroke="#3a414a" stroke-width=".05" fill="#3a414a"/><use xlink:href="#d" transform="matrix(1,0,0,1,-1927.361050503726,141.80208333333331) translate(0 30.924479166666668)"/><use xlink:href="#e" transform="matrix(1,0,0,1,-1927.361050503726,141.80208333333331) translate(69.56380208333334 30.924479166666668)"/><path d="M-1436.76-35.36h83.72c2.36 0 3.54 1.2 3.54 3.57v84.4c0 2.37-1.18 3.56-3.54 3.56h-83.72c-2.36 0-3.54-1.2-3.54-3.57v-84.4c0-2.37 1.18-3.56 3.54-3.56z" stroke="#000" stroke-opacity="0" fill="url(#f)"/><path d="M-1291.85-100h-85.88c-2.02 0-3.57 1.57-3.57 3.54V-80.74c0 1.96 1.55 3.53 3.57 3.53h63.18c3.96 0 7.15 3.23 7.15 7.16V-5.3c0 1.97 1.55 3.54 3.48 3.54h15.65c2.02 0 3.57-1.57 3.57-3.54v-87.53c0-3.93-3.2-7.17-7.15-7.17z" stroke="#000" stroke-opacity="0" fill="#773adc"/><path d="M-1322.02 13.35v56.98c0 3.55-2.94 6.57-6.42 6.57h-129.12c-3.48 0-6.42-3.02-6.42-6.57V-52.5c0-3.55 2.94-6.57 6.42-6.57h64.74c2.02 0 3.5-1.6 3.5-3.55V-76.3c0-1.94-1.48-3.54-3.5-3.54h-85.46c-3.5 0-6.42 2.84-6.42 6.57V91.1c0 3.55 2.93 6.57 6.42 6.57h170.56c3.5 0 6.42-2.84 6.42-6.57V13.35c0-1.95-1.65-3.55-3.5-3.55h-13.56-.18c-1.83 0-3.48 1.6-3.48 3.55z" stroke="#000" stroke-opacity="0" fill="#b3b3b3"/><path d="M-1301.3-1.88h-2.6c-1.96 0-3.6-1.56-3.6-3.44v-64.65c0-4.08-3.08-7.2-7-7.2h-63.32c-1.46-.16-2.76-1.1-3.25-2.67h-11.72c1.8 0 3.42 1.57 3.42 3.6v13.62c0 2.04-1.62 3.6-3.4 3.6h-64.8c-3.6 0-6.52 2.82-6.52 6.58V70.14c0 3.6 2.93 6.57 6.5 6.57h129.1c3.6 0 6.52-2.96 6.52-6.56V13.3c0-2.03 1.63-3.6 3.6-3.6h13.5c1.95 0 3.58 1.58 3.58 3.6z" stroke="#000" stroke-opacity="0" fill-opacity="0"/><use xlink:href="#g" transform="matrix(1,0,0,1,-1514.7,106.66666666666669) translate(42.94921875 37.109375)"/><path d="M-2500 460.14a6 6 0 0 1 6-6h368a6 6 0 0 1 6 6v188a6 6 0 0 1-6 6h-368a6 6 0 0 1-6-6z" stroke="#3a414a" stroke-width="2" fill="#fff"/><path d="M-2462 454.14v200m304-200v200" stroke="#3a414a" stroke-width="2" fill="none"/><use xlink:href="#h" transform="matrix(1,0,0,1,-2447.5,459.14) translate(48.73046875 108.671875)"/><use xlink:href="#i" transform="matrix(1,0,0,1,-2447.5,459.14) translate(115.078125 108.671875)"/><path d="M-1383.63 443.62h-.94l-.02-145.25h.96zm-.6-184.32h-.94V98.17h.95z" stroke="#3a414a" stroke-width=".05" fill="#3a414a"/><path d="M-1384.22 98.18h-.95v-.5h.95z" fill="#3a414a"/><path stroke="#3a414a" stroke-width=".05" fill="#3a414a"/><path d="M-1384.1 458.38l-4.63-14.26h9.27z" fill="#3a414a"/><path d="M-1384.1 459.92l-5.3-16.28h10.6zm-3.98-15.33l3.98 12.25 3.98-12.26z" stroke="#3a414a" stroke-width=".05" fill="#3a414a"/><use xlink:href="#j" transform="matrix(1,0,0,1,-1529.1591145833333,259.3020835) translate(0 30.924479166666668)"/><use xlink:href="#k" transform="matrix(1,0,0,1,-1529.1591145833333,259.3020835) translate(84.26106770833334 30.924479166666668)"/><use xlink:href="#l" transform="matrix(1,0,0,1,-1529.1591145833333,259.3020835) translate(153.82486979166669 30.924479166666668)"/><use xlink:href="#m" transform="matrix(1,0,0,1,-1529.1591145833333,259.3020835) translate(191.74804687500003 30.924479166666668)"/><path d="M-2309.53 713.98l.07.88.2.85.34.8.45.75.56.66.65.57.74.45.8.33.84.2.88.07h143.9v.96h-143.94l-1-.08-.98-.24-.94-.4-.87-.52-.78-.66-.66-.77-.53-.86-.4-.94-.23-1-.07-.98v-58.38h.94zm858.45-158.1h-17.6l-.88.06-.85.2-.8.34-.75.45-.66.56-.57.65-.45.74-.33.8-.2.84-.07.88v152.6l-.08 1-.24.98-.4.94-.52.87-.66.78-.77.66-.86.53-.94.4-1 .23-.98.08h-100.9v-.96h100.86l.88-.06.85-.2.8-.34.75-.45.66-.56.57-.65.45-.74.33-.8.2-.84.08-.88v-152.6l.07-1 .24-.98.4-.94.52-.87.66-.78.77-.66.86-.53.94-.4 1-.23.98-.08h17.64z" stroke="#3a414a" stroke-width=".05" fill="#3a414a"/><path d="M-2309.53 655.65h-.94v-.5h.94z" fill="#3a414a"/><path stroke="#3a414a" stroke-width=".05" fill="#3a414a"/><path d="M-1436.32 555.4l-14.26 4.63v-9.26z" fill="#3a414a"/><path d="M-1434.78 555.4l-16.28 5.3v-10.6zm-15.33 3.98l12.24-3.98-12.25-3.98z" stroke="#3a414a" stroke-width=".05" fill="#3a414a"/><use xlink:href="#n" transform="matrix(1,0,0,1,-1977.5428050431842,718.6979166666666) translate(0 2.0616319444444446)"/><use xlink:href="#o" transform="matrix(1,0,0,1,-2160.080114476142,700.46875) translate(0 30.924479166666668)"/><use xlink:href="#p" transform="matrix(1,0,0,1,-2160.080114476142,700.46875) translate(150.26041666666666 30.924479166666668)"/><use xlink:href="#q" transform="matrix(1,0,0,1,-2160.080114476142,700.46875) translate(289.2903645833333 30.924479166666668)"/><use xlink:href="#r" transform="matrix(1,0,0,1,-2160.080114476142,700.46875) translate(362.6790364583333 30.924479166666668)"/><use xlink:href="#l" transform="matrix(1,0,0,1,-2160.080114476142,700.46875) translate(442.8059895833333 30.924479166666668)"/><use xlink:href="#m" transform="matrix(1,0,0,1,-2160.080114476142,700.46875) translate(480.72916666666663 30.924479166666668)"/><path d="M-1479.7 389.6l1 .24.94.4.87.52.78.66.66.77.53.86.4.94.23 1 .08.98v153.4l.06.88.2.85.34.8.45.75.56.66.65.57.74.45.8.33.84.2.88.07h33.48v.96h-33.52l-1-.08-.98-.24-.94-.4-.87-.52-.78-.66-.66-.77-.53-.86-.4-.94-.23-1-.08-.98v-153.4l-.06-.88-.2-.85-.34-.8-.45-.75-.56-.66-.65-.57-.74-.45-.8-.33-.84-.2-.88-.07h-220.1v-.96h220.14zm-547.6.88h-276.68l-.88.06-.85.2-.8.34-.75.45-.66.56-.57.65-.45.74-.33.8-.2.84-.08.88v40.74h-.94v-40.78l.07-1 .24-.98.4-.94.52-.87.66-.78.77-.66.86-.53.94-.4 1-.23.98-.08h276.72z" stroke="#3a414a" stroke-width=".05" fill="#3a414a"/><path d="M-1434.7 555.88h-.5v-.96h.5z" fill="#3a414a"/><path stroke="#3a414a" stroke-width=".05" fill="#3a414a"/><path d="M-2310 451.52l-4.64-14.26h9.28z" fill="#3a414a"/><path d="M-2310 453.06l-5.3-16.28h10.6zm-3.98-15.33l3.98 12.25 3.98-12.25z" stroke="#3a414a" stroke-width=".05" fill="#3a414a"/><use xlink:href="#d" transform="matrix(1,0,0,1,-2027.2966421407705,370.46875) translate(0 30.924479166666668)"/><use xlink:href="#s" transform="matrix(1,0,0,1,-2027.2966421407705,370.46875) translate(69.56380208333334 30.924479166666668)"/><use xlink:href="#q" transform="matrix(1,0,0,1,-2027.2966421407705,370.46875) translate(103.84114583333334 30.924479166666668)"/><use xlink:href="#t" transform="matrix(1,0,0,1,-2027.2966421407705,370.46875) translate(177.22981770833334 30.924479166666668)"/><use xlink:href="#u" transform="matrix(1,0,0,1,-2027.2966421407705,370.46875) translate(232.77994791666669 30.924479166666668)"/><path d="M-1266.3-213.75l1 .24.94.38.87.53.78.67.66.77.53.87.4.95.23.98.08 1V-7.15l-.08 1-.24 1-.4.92-.52.87-.66.77-.77.67-.86.53-.94.4-1 .23-.98.08h-33.52v-.94h33.48l.88-.07.85-.2.8-.35.75-.45.66-.56.57-.66.45-.74.33-.8.2-.84.07-.88v-200.15l-.06-.9-.2-.83-.34-.8-.45-.74-.56-.66-.65-.56-.74-.45-.8-.33-.84-.2-.88-.08h-34.36v-.95h34.4zm-909.4.87v-.95h276.2v.95z" stroke="#3a414a" stroke-width=".05" fill="#3a414a"/><path d="M-1300.8-.7h-.5v-.94h.5z" fill="#3a414a"/><path stroke="#3a414a" stroke-width=".05" fill="#3a414a"/><path d="M-2176.2-208.72l-14.25-4.63 14.26-4.64z" fill="#3a414a"/><path d="M-2175.7-208.06l-16.3-5.3 16.3-5.28zm-13.22-5.3l12.26 4v-7.97z" stroke="#3a414a" stroke-width=".05" fill="#3a414a"/><use xlink:href="#v" transform="matrix(1,0,0,1,-1899.5023771641881,-232.88338291353858) translate(0 30.924479166666668)"/><use xlink:href="#w" transform="matrix(1,0,0,1,-1899.5023771641881,-232.88338291353858) translate(117.90364583333334 30.924479166666668)"/><use xlink:href="#x" transform="matrix(1,0,0,1,-1899.5023771641881,-232.88338291353858) translate(211.962890625 30.924479166666668)"/><use xlink:href="#y" transform="matrix(1,0,0,1,-1899.5023771641881,-232.88338291353858) translate(310.83984375 30.924479166666668)"/><use xlink:href="#z" transform="matrix(1,0,0,1,-1899.5023771641881,-232.88338291353858) translate(356.6569010416667 30.924479166666668)"/><use xlink:href="#A" transform="matrix(1,0,0,1,-1899.5023771641881,-232.88338291353858) translate(459.375 30.924479166666668)"/><path d="M-520 772c0 15.46-53.73 28-120 28-66.27 0-120-12.54-120-28V548c0-15.46 53.73-28 120-28 66.27 0 120 12.54 120 28z" stroke="#3a414a" stroke-width="2" fill="#fff"/><path d="M-520 548c0 15.46-53.73 28-120 28-66.27 0-120-12.54-120-28" stroke="#3a414a" stroke-width="2" fill="none"/><use xlink:href="#B" transform="matrix(1,0,0,1,-755,581) translate(55.673828125 50.484375)"/><use xlink:href="#C" transform="matrix(1,0,0,1,-755,581) translate(18.203125 97.359375)"/><use xlink:href="#D" transform="matrix(1,0,0,1,-755,581) translate(186.93359375 97.359375)"/><use xlink:href="#E" transform="matrix(1,0,0,1,-755,581) translate(30.5859375 144.234375)"/><use xlink:href="#F" transform="matrix(1,0,0,1,-755,581) translate(51.5284375 191.109375)"/><path d="M-645 359.6l1 .24.94.4.87.52.78.66.66.77.53.86.4.94.23 1 .08.98v47.37h-.96v-47.33l-.06-.88-.2-.85-.34-.8-.45-.75-.56-.66-.65-.57-.74-.45-.8-.33-.84-.2-.88-.07h-642.66l-.88.06-.85.2-.8.34-.75.45-.66.56-.57.65-.45.74-.33.8-.2.84-.07.88v182.14l-.08 1-.24.98-.4.94-.52.87-.66.77-.77.66-.86.53-.94.4-1 .24-.98.08h-33.52v-.96h33.48l.88-.06.85-.2.8-.34.75-.45.66-.55.57-.66.45-.75.33-.8.2-.85.08-.88V365.98l.07-1 .24-.98.4-.94.52-.87.66-.78.77-.66.86-.53.94-.4 1-.23.98-.08h642.74zm5.48 143.02h-.96v-50.2h.96z" stroke="#3a414a" stroke-width=".05" fill="#3a414a"/><path d="M-1334.2 554.6h-.5v-.94h.5z" fill="#3a414a"/><path stroke="#3a414a" stroke-width=".05" fill="#3a414a"/><path d="M-640 517.38l-4.63-14.26h9.26z" fill="#3a414a"/><path d="M-640 518.92l-5.3-16.28h10.6zm-3.98-15.33l3.98 12.25 3.98-12.26z" stroke="#3a414a" stroke-width=".05" fill="#3a414a"/><use xlink:href="#G" transform="matrix(1,0,0,1,-1011.923828125,413.35180045524214) translate(0 30.924479166666668)"/><use xlink:href="#H" transform="matrix(1,0,0,1,-1011.923828125,413.35180045524214) translate(130.68033854166669 30.924479166666668)"/><use xlink:href="#I" transform="matrix(1,0,0,1,-1011.923828125,413.35180045524214) translate(249.73958333333337 30.924479166666668)"/><use xlink:href="#J" transform="matrix(1,0,0,1,-1011.923828125,413.35180045524214) translate(386.62109375000006 30.924479166666668)"/><use xlink:href="#K" transform="matrix(1,0,0,1,-1011.923828125,413.35180045524214) translate(496.06119791666674 30.924479166666668)"/><use xlink:href="#L" transform="matrix(1,0,0,1,-1011.923828125,413.35180045524214) translate(559.6842447916667 30.924479166666668)"/><use xlink:href="#M" transform="matrix(1,0,0,1,-1011.923828125,413.35180045524214) translate(665.1041666666667 30.924479166666668)"/><use xlink:href="#N" transform="matrix(1,0,0,1,-1011.923828125,413.35180045524214) translate(700.9114583333334 30.924479166666668)"/><path d="M-2517.38 554.6h-17.6l-.88.08-.85.2-.8.34-.75.45-.66.56-.57.66-.45.73-.33.8-.2.85-.08.88v353.82l.08.88.2.85.33.8.45.75.56.66.65.57.74.45.8.33.84.2.88.07h109.17v.96h-109.22l-1-.08-.98-.24-.94-.4-.87-.52-.78-.66-.66-.77-.53-.86-.4-.94-.23-1-.07-.98v-353.9l.07-1 .24-.98.4-.94.52-.87.66-.77.77-.66.86-.53.94-.4 1-.23.98-.08h17.64zm955.88 364.92v.96h-296v-.96z" stroke="#3a414a" stroke-width=".05" fill="#3a414a"/><path d="M-1561 920l.02.48h-.53v-.96h.52z" fill="#3a414a"/><path stroke="#3a414a" stroke-width=".05" fill="#3a414a"/><path d="M-2502.62 554.14l-14.26 4.63v-9.26z" fill="#3a414a"/><path d="M-2501.08 554.14l-16.28 5.3v-10.6zm-15.33 3.98l12.24-3.98-12.25-3.98z" stroke="#3a414a" stroke-width=".05" fill="#3a414a"/><g><use xlink:href="#O" transform="matrix(1,0,0,1,-2425.8074903789907,900.46875) translate(0 30.924479166666668)"/><use xlink:href="#P" transform="matrix(1,0,0,1,-2425.8074903789907,900.46875) translate(101.98567708333334 30.924479166666668)"/><use xlink:href="#x" transform="matrix(1,0,0,1,-2425.8074903789907,900.46875) translate(245.263671875 30.924479166666668)"/><use xlink:href="#y" transform="matrix(1,0,0,1,-2425.8074903789907,900.46875) translate(344.140625 30.924479166666668)"/><use xlink:href="#Q" transform="matrix(1,0,0,1,-2425.8074903789907,900.46875) translate(389.9576822916667 30.924479166666668)"/><use xlink:href="#R" transform="matrix(1,0,0,1,-2425.8074903789907,900.46875) translate(459.4401041666667 30.924479166666668)"/></g><path d="M-1100.2 920.48h-98.3v-.96h98.3zM-639.5 914l-.08 1-.24.98-.4.94-.52.87-.66.78-.77.66-.86.53-.94.4-1 .23-.98.08H-766.9v-.96h120.88l.88-.06.85-.2.8-.34.75-.45.66-.56.57-.65.45-.74.33-.8.2-.84.07-.88v-96.6h.96z" stroke="#3a414a" stroke-width=".05" fill="#3a414a"/><path d="M-1198.5 920.48h-.52l.02-.48-.02-.48h.53z" fill="#3a414a"/><path stroke="#3a414a" stroke-width=".05" fill="#3a414a"/><path d="M-635.37 816.88h-9.26l4.63-14.26z" fill="#3a414a"/><path d="M-634.7 817.36h-10.6l5.3-16.28zm-9.28-.95h7.96l-3.98-12.25z" stroke="#3a414a" stroke-width=".05" fill="#3a414a"/><g><use xlink:href="#S" transform="matrix(1,0,0,1,-1100.1869011435865,900.46875) translate(0 30.924479166666668)"/><use xlink:href="#T" transform="matrix(1,0,0,1,-1100.1869011435865,900.46875) translate(108.72395833333333 30.924479166666668)"/><use xlink:href="#U" transform="matrix(1,0,0,1,-1100.1869011435865,900.46875) translate(225.87890625 30.924479166666668)"/><use xlink:href="#V" transform="matrix(1,0,0,1,-1100.1869011435865,900.46875) translate(269.189453125 30.924479166666668)"/></g><path d="M-1380 858.5V656.38" stroke="#3a414a" fill="none"/><path d="M-1379.53 859h-.94v-.5h.94z" stroke="#3a414a" stroke-width=".05" fill="#3a414a"/><path d="M-1380 641.62l4.63 14.26h-9.27z" stroke="#3a414a" fill="#3a414a"/><path d="M-2304.88-274.2a7.8 7.8 0 0 1 7.55-5.8h116a4.6 4.6 0 0 1 4.45 5.8l-28.9 108.4a7.8 7.8 0 0 1-7.55 5.8h-116a4.6 4.6 0 0 1-4.46-5.8z" stroke="#3a414a" stroke-width="2" fill="#fff"/><g><use xlink:href="#W" transform="matrix(1,0,0,1,-2330.3333333333335,-275) translate(17.895625000000006 68.046875)"/></g><path d="M-2254.86 82.62h-.95v-93.1h.94zm0-132.15h-.95V-158.5h.94z" stroke="#3a414a" stroke-width=".05" fill="#3a414a"/><path d="M-2254.86-158.5h-.95v-.5h.94z" fill="#3a414a"/><path stroke="#3a414a" stroke-width=".05" fill="#3a414a"/><path d="M-2255.33 97.38l-4.64-14.26h9.27z" fill="#3a414a"/><path d="M-2255.33 98.92l-5.3-16.28h10.6zm-4-15.33l4 12.25 3.98-12.26z" stroke="#3a414a" stroke-width=".05" fill="#3a414a"/><g><use xlink:href="#X" transform="matrix(1,0,0,1,-2497.927734375,-49.53127360344817) translate(0 30.924479166666668)"/><use xlink:href="#Y" transform="matrix(1,0,0,1,-2497.927734375,-49.53127360344817) translate(98.95833333333334 30.924479166666668)"/><use xlink:href="#Z" transform="matrix(1,0,0,1,-2497.927734375,-49.53127360344817) translate(176.513671875 30.924479166666668)"/><use xlink:href="#aa" transform="matrix(1,0,0,1,-2497.927734375,-49.53127360344817) translate(213.89973958333334 30.924479166666668)"/><use xlink:href="#ab" transform="matrix(1,0,0,1,-2497.927734375,-49.53127360344817) translate(350.78125 30.924479166666668)"/></g><defs><path fill="#fff" d="M416-495c-3 181 88 274 258 274 169 0 257-89 257-266v-969h301v959c3 324-227 517-558 517-328 0-557-188-558-506v-970h300v961" id="ac"/><path fill="#fff" d="M529-185c94 0 168-33 168-114 0-35-18-63-53-83s-91-39-168-55C219-491 90-600 90-765c0-208 203-337 432-337 246 0 451 124 453 349H686c-2-91-62-143-165-143-86 0-151 41-153 117 0 32 16 57 46 77 63 43 257 69 335 100 151 60 229 153 229 291C978-13 554 93 282-28 162-81 60-190 56-344h274c5 106 86 159 199 159" id="ad"/><path fill="#fff" d="M1031-175C952-60 797 20 609 20 287 20 60-206 72-543c12-330 180-559 505-559 309 0 482 214 477 537v118H365c15 134 115 234 263 234 111 0 198-40 261-121zM770-644c5-139-62-226-194-224-130 1-191 97-208 224h402" id="ae"/><path fill="#fff" d="M719-811c-143-24-279 1-319 103V0H111v-1082h273l8 129c74-124 180-175 331-136" id="af"/><g id="a"><use transform="matrix(0.01953125,0,0,0.01953125,0,0)" xlink:href="#ac"/><use transform="matrix(0.01953125,0,0,0.01953125,26.328125,0)" xlink:href="#ad"/><use transform="matrix(0.01953125,0,0,0.01953125,46.89453125,0)" xlink:href="#ae"/><use transform="matrix(0.01953125,0,0,0.01953125,68.515625,0)" xlink:href="#af"/></g><path fill="#fff" d="M952-300H426L326 0H7l542-1456h278L1372 0h-319zM507-543h364l-183-545" id="ag"/><path fill="#fff" d="M488 20C204 20 66-234 66-549c0-305 140-551 424-553 105 0 192 39 261 118v-552h290V0H780l-14-115C694-25 601 20 488 20zM355-528c0 176 51 314 207 314 89 0 152-38 189-113v-427c-36-75-98-113-187-113-139 0-209 113-209 339" id="ah"/><path fill="#fff" d="M741-689c-2-124-40-177-163-178-82 0-141 34-178 102V0H111v-1082h271l9 121c77-94 180-141 311-141 139 0 235 55 287 165 76-110 184-165 325-165 249 0 348 151 348 411V0h-290v-690c-2-123-39-176-163-177-87 0-147 41-180 124l1 743H741v-689" id="ai"/><path fill="#fff" d="M416 0H126v-1082h290V0zM271-1212c-92 0-162-61-162-150s68-149 162-149c93 0 162 60 162 149s-70 150-162 150" id="aj"/><path fill="#fff" d="M750-692c-1-124-48-174-173-175-81 0-142 35-183 104V0H105v-1082h272l9 125c77-97 181-145 311-145 244 0 342 151 342 403V0H750v-692" id="ak"/><path fill="#fff" d="M202 125H-13l536-1581h215" id="al"/><path fill="#fff" d="M130 0v-1456h448c435 14 673 299 665 762-5 285-130 500-319 606C822-31 708 0 581 0H130zm809-685c9-311-79-526-361-528H430v972h145c252-2 356-181 364-444" id="am"/><path fill="#fff" d="M516-353l201-729h302L654 0H378L13-1082h302" id="an"/><path fill="#fff" d="M416 0H126v-1536h290V0" id="ao"/><path fill="#fff" d="M579 20C257 20 58-214 66-551c8-331 182-551 511-551 324 0 514 231 514 572 0 319-198 550-512 550zm-2-888c-169 0-222 141-222 338 0 181 61 317 224 317 170 0 223-137 223-338 0-178-64-317-225-317" id="ap"/><path fill="#fff" d="M663-1102c295 0 422 250 422 571 0 300-141 549-420 551-109 0-198-38-265-114v510H111v-1498h268l10 106c70-84 161-126 274-126zm133 550c0-175-53-315-209-315-91 0-153 35-187 104v443c35 71 98 107 189 107 138 0 207-113 207-339" id="aq"/><g id="b"><use transform="matrix(0.01953125,0,0,0.01953125,0,0)" xlink:href="#ag"/><use transform="matrix(0.01953125,0,0,0.01953125,26.9140625,0)" xlink:href="#ah"/><use transform="matrix(0.01953125,0,0,0.01953125,49.453125,0)" xlink:href="#ai"/><use transform="matrix(0.01953125,0,0,0.01953125,84.08203125,0)" xlink:href="#aj"/><use transform="matrix(0.01953125,0,0,0.01953125,94.6875,0)" xlink:href="#ak"/><use transform="matrix(0.01953125,0,0,0.01953125,117.08984375,0)" xlink:href="#al"/><use transform="matrix(0.01953125,0,0,0.01953125,132.03125,0)" xlink:href="#am"/><use transform="matrix(0.01953125,0,0,0.01953125,158.02734375,0)" xlink:href="#ae"/><use transform="matrix(0.01953125,0,0,0.01953125,179.39453125,0)" xlink:href="#an"/><use transform="matrix(0.01953125,0,0,0.01953125,199.35546875,0)" xlink:href="#ae"/><use transform="matrix(0.01953125,0,0,0.01953125,220.9765625,0)" xlink:href="#ao"/><use transform="matrix(0.01953125,0,0,0.01953125,231.58203125,0)" xlink:href="#ap"/><use transform="matrix(0.01953125,0,0,0.01953125,254.19921875,0)" xlink:href="#aq"/><use transform="matrix(0.01953125,0,0,0.01953125,276.71875,0)" xlink:href="#ae"/><use transform="matrix(0.01953125,0,0,0.01953125,298.33984375,0)" xlink:href="#af"/></g><path d="M631-137c179 0 314-70 314-231 0-71-25-127-75-166s-141-77-272-115c-165-47-285-106-360-175s-112-154-112-255c0-245 231-397 495-397 206 0 369 89 449 218 43 68 65 142 65 223H942c0-184-129-283-321-283-172 0-299 76-301 236 0 59 26 109 76 150s135 78 256 113c205 59 345 116 436 256 35 53 50 119 50 193-2 256-231 398-507 390C333 12 90-129 80-422h193c0 187 160 285 358 285" id="ar"/><path d="M599-131c141 0 220-65 285-146l113 88C906-50 770 20 589 20 281 21 93-214 93-545c0-223 93-397 233-485 74-48 154-72 240-72 300 2 449 218 445 537v77H278c0 197 129 357 321 357zm227-509c-3-180-88-310-260-310-170 0-264 140-282 310h542" id="as"/><path d="M663-916c-163-27-288 18-338 148V0H140v-1082h180l3 125c61-97 147-145 258-145 36 0 63 5 82 14v172" id="at"/><path d="M497-251l268-831h189L566 0H425L33-1082h189" id="au"/><g id="c"><use transform="matrix(0.01953125,0,0,0.01953125,0,0)" xlink:href="#ar"/><use transform="matrix(0.01953125,0,0,0.01953125,23.73046875,0)" xlink:href="#as"/><use transform="matrix(0.01953125,0,0,0.01953125,44.921875,0)" xlink:href="#at"/><use transform="matrix(0.01953125,0,0,0.01953125,58.80859375,0)" xlink:href="#au"/><use transform="matrix(0.01953125,0,0,0.01953125,77.9296875,0)" xlink:href="#as"/><use transform="matrix(0.01953125,0,0,0.01953125,99.12109375,0)" xlink:href="#at"/></g><path d="M416-495c-3 181 88 274 258 274 169 0 257-89 257-266v-969h301v959c3 324-227 517-558 517-328 0-557-188-558-506v-970h300v961" id="av"/><path d="M1209-1016c0 219-100 334-260 407l315 595V0H942L669-533H430V0H130v-1456h541c318-3 538 141 538 440zm-300 24c-1-144-85-221-238-221H430v437h242c144 2 238-77 237-216" id="aw"/><path d="M430-241h637V0H130v-1456h300v1215" id="ax"/><g id="d"><use transform="matrix(0.016276041666666668,0,0,0.016276041666666668,0,0)" xlink:href="#av"/><use transform="matrix(0.016276041666666668,0,0,0.016276041666666668,21.940104166666668,0)" xlink:href="#aw"/><use transform="matrix(0.016276041666666668,0,0,0.016276041666666668,43.212890625,0)" xlink:href="#ax"/></g><path d="M658-217c127 0 227-49 227-165 0-57-21-98-60-130-79-64-370-142-463-196-162-95-248-210-248-361 0-280 246-403 537-407 213-3 383 84 467 216 45 69 68 147 68 234H886c0-139-96-211-240-211-129 0-232 55-232 169 0 47 24 87 72 119s117 62 210 90c171 51 295 115 373 191s117 171 117 284c-2 272-237 411-528 404C331 13 78-135 69-458h301c0 161 96 241 288 241" id="ay"/><path d="M463 20c-241-1-359-147-359-393v-709h289v699c0 113 51 169 154 169 98 0 165-34 202-102v-766h290V0H767l-8-110C688-23 589 20 463 20" id="az"/><path d="M663-1102c295 0 423 246 423 571 0 313-131 551-421 551-117 0-211-45-281-135L371 0H111v-1536h289v551c67-78 154-117 263-117zm-71 889c164 0 209-139 205-339-3-189-44-315-207-315-92 0-155 38-190 113v427c35 76 99 114 192 114" id="aA"/><path d="M741-689c-2-124-40-177-163-178-82 0-141 34-178 102V0H111v-1082h271l9 121c77-94 180-141 311-141 139 0 235 55 287 165 76-110 184-165 325-165 249 0 348 151 348 411V0h-290v-690c-2-123-39-176-163-177-87 0-147 41-180 124l1 743H741v-689" id="aB"/><path d="M416 0H126v-1082h290V0zM271-1212c-92 0-162-61-162-150s68-149 162-149c93 0 162 60 162 149s-70 150-162 150" id="aC"/><path d="M529-185c94 0 168-33 168-114 0-35-18-63-53-83s-91-39-168-55C219-491 90-600 90-765c0-208 203-337 432-337 246 0 451 124 453 349H686c-2-91-62-143-165-143-86 0-151 41-153 117 0 32 16 57 46 77 63 43 257 69 335 100 151 60 229 153 229 291C978-13 554 93 282-28 162-81 60-190 56-344h274c5 106 86 159 199 159" id="aD"/><path d="M579 20C257 20 58-214 66-551c8-331 182-551 511-551 324 0 514 231 514 572 0 319-198 550-512 550zm-2-888c-169 0-222 141-222 338 0 181 61 317 224 317 170 0 223-137 223-338 0-178-64-317-225-317" id="aE"/><path d="M750-692c-1-124-48-174-173-175-81 0-142 35-183 104V0H105v-1082h272l9 125c77-97 181-145 311-145 244 0 342 151 342 403V0H750v-692" id="aF"/><g id="e"><use transform="matrix(0.016276041666666668,0,0,0.016276041666666668,0,0)" xlink:href="#ay"/><use transform="matrix(0.016276041666666668,0,0,0.016276041666666668,20.491536458333336,0)" xlink:href="#az"/><use transform="matrix(0.016276041666666668,0,0,0.016276041666666668,39.143880208333336,0)" xlink:href="#aA"/><use transform="matrix(0.016276041666666668,0,0,0.016276041666666668,57.91015625,0)" xlink:href="#aB"/><use transform="matrix(0.016276041666666668,0,0,0.016276041666666668,86.767578125,0)" xlink:href="#aC"/><use transform="matrix(0.016276041666666668,0,0,0.016276041666666668,95.60546875,0)" xlink:href="#aD"/><use transform="matrix(0.016276041666666668,0,0,0.016276041666666668,112.744140625,0)" xlink:href="#aD"/><use transform="matrix(0.016276041666666668,0,0,0.016276041666666668,129.8828125,0)" xlink:href="#aC"/><use transform="matrix(0.016276041666666668,0,0,0.016276041666666668,138.720703125,0)" xlink:href="#aE"/><use transform="matrix(0.016276041666666668,0,0,0.016276041666666668,157.568359375,0)" xlink:href="#aF"/></g><linearGradient gradientUnits="userSpaceOnUse" id="f" x1="-1384.7" y1="97.69" x2="-1384.7" y2="-100"><stop offset="0%" stop-color="#32bedd"/><stop offset="17.5%" stop-color="#32caea"/><stop offset="41%" stop-color="#32d2f2"/><stop offset="77.5%" stop-color="#32d4f5"/></linearGradient><path d="M992-673H361v516h733V0H169v-1456h915v158H361v468h631v157" id="aG"/><path d="M503-687l240-395h216L605-547 970 0H756L506-405 256 0H41l365-547-354-535h214" id="aH"/><path d="M456 20C285 20 205-92 206-268v-671H9v-143h197v-262h185v262h202v143H391v671c-9 125 92 149 207 118V0c-49 13-96 20-142 20" id="aI"/><path d="M589-945c-131 0-219 81-264 174V0H140v-1082h175l6 136c83-104 191-156 324-156 229 0 346 129 346 387V0H806v-716c-2-153-65-229-217-229" id="aJ"/><path d="M538-131c121 0 232-49 232-156 0-50-20-88-56-117-73-60-334-92-420-143-92-55-162-110-162-238 0-190 192-317 400-317 223 0 414 129 413 338H759c0-108-110-186-227-186-119 0-215 53-215 159 0 45 18 78 53 101 76 52 331 90 416 139 98 57 169 115 169 251C955-92 760 20 538 20c-176 0-314-68-386-174-38-55-57-115-57-179h185c6 129 116 202 258 202" id="aK"/><path d="M341 0H156v-1082h185V0zm-91-1264c-68 0-108-42-109-105 0-62 41-107 109-107s110 44 110 107-42 105-110 105" id="aL"/><path d="M584 20C278 26 81-227 91-551c10-320 175-545 491-551 308-5 503 247 494 573-9 322-175 543-492 549zm-2-970c-208 0-305 185-305 421 0 216 106 398 307 398 211 0 307-186 307-420 0-214-109-399-309-399" id="aM"/><g id="g"><use transform="matrix(0.01953125,0,0,0.01953125,0,0)" xlink:href="#aG"/><use transform="matrix(0.01953125,0,0,0.01953125,22.734375,0)" xlink:href="#aH"/><use transform="matrix(0.01953125,0,0,0.01953125,42.55859375,0)" xlink:href="#aI"/><use transform="matrix(0.01953125,0,0,0.01953125,55.625,0)" xlink:href="#as"/><use transform="matrix(0.01953125,0,0,0.01953125,76.81640625,0)" xlink:href="#aJ"/><use transform="matrix(0.01953125,0,0,0.01953125,98.88671875,0)" xlink:href="#aK"/><use transform="matrix(0.01953125,0,0,0.01953125,119.51171875,0)" xlink:href="#aL"/><use transform="matrix(0.01953125,0,0,0.01953125,129.21875,0)" xlink:href="#aM"/><use transform="matrix(0.01953125,0,0,0.01953125,152.03125,0)" xlink:href="#aJ"/></g><path d="M417-1456L893-268l476-1188h249V0h-192c-4-403 4-794 18-1179L966 0H819L342-1176c15 384 23 773 19 1176H169v-1456h248" id="aN"/><path d="M362-157h690V0H169v-1456h193v1299" id="aO"/><g id="h"><use transform="matrix(0.01953125,0,0,0.01953125,0,0)" xlink:href="#aN"/><use transform="matrix(0.01953125,0,0,0.01953125,34.921875,0)" xlink:href="#aO"/></g><path d="M520 20C244 20 95-247 95-550c0-298 151-550 427-552 127 0 227 43 301 130v-564h185V0H838l-9-116C755-25 652 20 520 20zm48-965c-210 0-288 177-288 416 0 218 87 392 286 392 117 0 203-53 257-158v-497c-55-102-140-153-255-153" id="aP"/><path d="M341 0H156v-1536h185V0" id="aQ"/><g id="i"><use transform="matrix(0.01953125,0,0,0.01953125,0,0)" xlink:href="#aN"/><use transform="matrix(0.01953125,0,0,0.01953125,34.921875,0)" xlink:href="#aM"/><use transform="matrix(0.01953125,0,0,0.01953125,57.734375,0)" xlink:href="#aP"/><use transform="matrix(0.01953125,0,0,0.01953125,80.29296875,0)" xlink:href="#as"/><use transform="matrix(0.01953125,0,0,0.01953125,101.484375,0)" xlink:href="#aQ"/></g><path d="M1031-175C952-60 797 20 609 20 287 20 60-206 72-543c12-330 180-559 505-559 309 0 482 214 477 537v118H365c15 134 115 234 263 234 111 0 198-40 261-121zM770-644c5-139-62-226-194-224-130 1-191 97-208 224h402" id="aR"/><path d="M488 20C204 20 66-234 66-549c0-305 140-551 424-553 105 0 192 39 261 118v-552h290V0H780l-14-115C694-25 601 20 488 20zM355-528c0 176 51 314 207 314 89 0 152-38 189-113v-427c-36-75-98-113-187-113-139 0-209 113-209 339" id="aS"/><g id="j"><use transform="matrix(0.016276041666666668,0,0,0.016276041666666668,0,0)" xlink:href="#ay"/><use transform="matrix(0.016276041666666668,0,0,0.016276041666666668,20.491536458333336,0)" xlink:href="#aR"/><use transform="matrix(0.016276041666666668,0,0,0.016276041666666668,38.509114583333336,0)" xlink:href="#aF"/><use transform="matrix(0.016276041666666668,0,0,0.016276041666666668,57.177734375,0)" xlink:href="#aS"/></g><g id="k"><use transform="matrix(0.016276041666666668,0,0,0.016276041666666668,0,0)" xlink:href="#av"/><use transform="matrix(0.016276041666666668,0,0,0.016276041666666668,21.940104166666668,0)" xlink:href="#aw"/><use transform="matrix(0.016276041666666668,0,0,0.016276041666666668,43.212890625,0)" xlink:href="#ax"/></g><path d="M457-330c2 83 25 111 111 112 32 0 60-2 85-7V-6c-57 17-115 26-175 26-203 0-310-102-310-307v-583H10v-212h158v-266h289v266h185v212H457v540" id="aT"/><g id="l"><use transform="matrix(0.016276041666666668,0,0,0.016276041666666668,0,0)" xlink:href="#aT"/><use transform="matrix(0.016276041666666668,0,0,0.016276041666666668,10.774739583333334,0)" xlink:href="#aE"/></g><path d="M719-811c-143-24-279 1-319 103V0H111v-1082h273l8 129c74-124 180-175 331-136" id="aU"/><path d="M516-353l201-729h302L654 0H378L13-1082h302" id="aV"/><g id="m"><use transform="matrix(0.016276041666666668,0,0,0.016276041666666668,0,0)" xlink:href="#ay"/><use transform="matrix(0.016276041666666668,0,0,0.016276041666666668,20.491536458333336,0)" xlink:href="#aR"/><use transform="matrix(0.016276041666666668,0,0,0.016276041666666668,38.509114583333336,0)" xlink:href="#aU"/><use transform="matrix(0.016276041666666668,0,0,0.016276041666666668,50.960286458333336,0)" xlink:href="#aV"/><use transform="matrix(0.016276041666666668,0,0,0.016276041666666668,67.59440104166667,0)" xlink:href="#aR"/><use transform="matrix(0.016276041666666668,0,0,0.016276041666666668,85.61197916666667,0)" xlink:href="#aU"/></g><path fill="#333" d="M1226-1213H780V0H480v-1213H40v-243h1186v243" id="aW"/><path fill="#333" d="M1031-175C952-60 797 20 609 20 287 20 60-206 72-543c12-330 180-559 505-559 309 0 482 214 477 537v118H365c15 134 115 234 263 234 111 0 198-40 261-121zM770-644c5-139-62-226-194-224-130 1-191 97-208 224h402" id="aX"/><path fill="#333" d="M523-759l182-323h309L706-552 1027 0H717L524-340 332 0H21l321-552-307-530h310" id="aY"/><path fill="#333" d="M457-330c2 83 25 111 111 112 32 0 60-2 85-7V-6c-57 17-115 26-175 26-203 0-310-102-310-307v-583H10v-212h158v-266h289v266h185v212H457v540" id="aZ"/><g id="n"><use transform="matrix(0.0010850694444444445,0,0,0.0010850694444444445,0,0)" xlink:href="#aW"/><use transform="matrix(0.0010850694444444445,0,0,0.0010850694444444445,1.2782118055555556,0)" xlink:href="#aX"/><use transform="matrix(0.0010850694444444445,0,0,0.0010850694444444445,2.4793836805555554,0)" xlink:href="#aY"/><use transform="matrix(0.0010850694444444445,0,0,0.0010850694444444445,3.6100260416666665,0)" xlink:href="#aZ"/></g><path d="M1006-631H430v390h676V0H130v-1456h974v243H430v347h576v235" id="ba"/><path d="M523-759l182-323h309L706-552 1027 0H717L524-340 332 0H21l321-552-307-530h310" id="bb"/><path d="M552-1102c254-4 435 134 435 383v469c1 103 15 180 43 233V0H738c-13-26-23-58-29-97C639-19 548 20 436 20 238 20 64-113 68-304c5-258 212-357 496-357h133c11-137-29-227-160-227-90 0-156 45-156 131H92c15-231 213-342 460-345zM357-325c0 76 61 124 142 124 88 0 168-45 198-105v-186H589c-152 2-232 51-232 167" id="bc"/><path d="M355-556c-2 203 30 338 206 343 102 3 181-63 182-161h271C1001-128 821 17 566 20 242 24 66-212 66-554c0-320 184-548 498-548 262 0 451 167 450 423H743c-1-108-75-193-184-189-162 6-202 123-204 312" id="bd"/><g id="o"><use transform="matrix(0.016276041666666668,0,0,0.016276041666666668,0,0)" xlink:href="#ba"/><use transform="matrix(0.016276041666666668,0,0,0.016276041666666668,18.75,0)" xlink:href="#bb"/><use transform="matrix(0.016276041666666668,0,0,0.016276041666666668,35.70963541666667,0)" xlink:href="#aT"/><use transform="matrix(0.016276041666666668,0,0,0.016276041666666668,46.972656250000014,0)" xlink:href="#aU"/><use transform="matrix(0.016276041666666668,0,0,0.016276041666666668,58.64257812500001,0)" xlink:href="#bc"/><use transform="matrix(0.016276041666666668,0,0,0.016276041666666668,76.513671875,0)" xlink:href="#bd"/><use transform="matrix(0.016276041666666668,0,0,0.016276041666666668,93.896484375,0)" xlink:href="#aT"/><use transform="matrix(0.016276041666666668,0,0,0.016276041666666668,105.15950520833333,0)" xlink:href="#aR"/><use transform="matrix(0.016276041666666668,0,0,0.016276041666666668,123.17708333333333,0)" xlink:href="#aS"/></g><path d="M1006-595H430V0H130v-1456h948v243H430v376h576v242" id="be"/><g id="p"><use transform="matrix(0.016276041666666668,0,0,0.016276041666666668,0,0)" xlink:href="#be"/><use transform="matrix(0.016276041666666668,0,0,0.016276041666666668,17.919921875,0)" xlink:href="#aR"/><use transform="matrix(0.016276041666666668,0,0,0.016276041666666668,35.9375,0)" xlink:href="#bc"/><use transform="matrix(0.016276041666666668,0,0,0.016276041666666668,53.80859374999999,0)" xlink:href="#aT"/><use transform="matrix(0.016276041666666668,0,0,0.016276041666666668,65.07161458333333,0)" xlink:href="#az"/><use transform="matrix(0.016276041666666668,0,0,0.016276041666666668,83.72395833333333,0)" xlink:href="#aU"/><use transform="matrix(0.016276041666666668,0,0,0.016276041666666668,95.57291666666666,0)" xlink:href="#aR"/><use transform="matrix(0.016276041666666668,0,0,0.016276041666666668,113.59049479166666,0)" xlink:href="#aD"/></g><g id="q"><use transform="matrix(0.016276041666666668,0,0,0.016276041666666668,0,0)" xlink:href="#aD"/><use transform="matrix(0.016276041666666668,0,0,0.016276041666666668,17.138671875,0)" xlink:href="#aR"/><use transform="matrix(0.016276041666666668,0,0,0.016276041666666668,35.15625,0)" xlink:href="#aF"/><use transform="matrix(0.016276041666666668,0,0,0.016276041666666668,53.82486979166667,0)" xlink:href="#aT"/></g><path d="M504-434L400-330V0H111v-1536h289v851c106-137 222-264 333-397h347L689-631 1114 0H782" id="bf"/><g id="r"><use transform="matrix(0.016276041666666668,0,0,0.016276041666666668,0,0)" xlink:href="#aA"/><use transform="matrix(0.016276041666666668,0,0,0.016276041666666668,18.766276041666668,0)" xlink:href="#bc"/><use transform="matrix(0.016276041666666668,0,0,0.016276041666666668,36.63736979166667,0)" xlink:href="#bd"/><use transform="matrix(0.016276041666666668,0,0,0.016276041666666668,54.02018229166667,0)" xlink:href="#bf"/></g><g id="s"><use transform="matrix(0.016276041666666668,0,0,0.016276041666666668,0,0)" xlink:href="#aC"/><use transform="matrix(0.016276041666666668,0,0,0.016276041666666668,8.837890625,0)" xlink:href="#aD"/></g><path d="M522-1456L896-400l372-1056h394V0h-301c-7-379 15-728 30-1085L998 0H792L400-1084c15 357 37 705 30 1084H130v-1456h392" id="bg"/><g id="t"><use transform="matrix(0.016276041666666668,0,0,0.016276041666666668,0,0)" xlink:href="#bg"/><use transform="matrix(0.016276041666666668,0,0,0.016276041666666668,29.199218750000004,0)" xlink:href="#ax"/></g><path d="M416 0H126v-1536h290V0" id="bh"/><g id="u"><use transform="matrix(0.016276041666666668,0,0,0.016276041666666668,0,0)" xlink:href="#bg"/><use transform="matrix(0.016276041666666668,0,0,0.016276041666666668,29.199218750000004,0)" xlink:href="#aE"/><use transform="matrix(0.016276041666666668,0,0,0.016276041666666668,48.046875,0)" xlink:href="#aS"/><use transform="matrix(0.016276041666666668,0,0,0.016276041666666668,66.82942708333334,0)" xlink:href="#aR"/><use transform="matrix(0.016276041666666668,0,0,0.016276041666666668,84.84700520833334,0)" xlink:href="#bh"/></g><path d="M130 0v-1456h448c435 14 673 299 665 762-5 285-130 500-319 606C822-31 708 0 581 0H130zm809-685c9-311-79-526-361-528H430v972h145c252-2 356-181 364-444" id="bi"/><path d="M663-1102c295 0 422 250 422 571 0 300-141 549-420 551-109 0-198-38-265-114v510H111v-1498h268l10 106c70-84 161-126 274-126zm133 550c0-175-53-315-209-315-91 0-153 35-187 104v443c35 71 98 107 189 107 138 0 207-113 207-339" id="bj"/><path d="M515-409l200-673h310L590 168c-66 202-236 321-472 250V199c127 7 198-15 230-107l34-89L3-1082h311" id="bk"/><g id="v"><use transform="matrix(0.016276041666666668,0,0,0.016276041666666668,0,0)" xlink:href="#bi"/><use transform="matrix(0.016276041666666668,0,0,0.016276041666666668,21.663411458333336,0)" xlink:href="#aC"/><use transform="matrix(0.016276041666666668,0,0,0.016276041666666668,30.501302083333336,0)" xlink:href="#aD"/><use transform="matrix(0.016276041666666668,0,0,0.016276041666666668,47.639973958333336,0)" xlink:href="#bj"/><use transform="matrix(0.016276041666666668,0,0,0.016276041666666668,66.40625,0)" xlink:href="#bh"/><use transform="matrix(0.016276041666666668,0,0,0.016276041666666668,75.244140625,0)" xlink:href="#bc"/><use transform="matrix(0.016276041666666668,0,0,0.016276041666666668,92.87109375,0)" xlink:href="#bk"/></g><g id="w"><use transform="matrix(0.016276041666666668,0,0,0.016276041666666668,0,0)" xlink:href="#aU"/><use transform="matrix(0.016276041666666668,0,0,0.016276041666666668,11.848958333333334,0)" xlink:href="#aR"/><use transform="matrix(0.016276041666666668,0,0,0.016276041666666668,29.866536458333336,0)" xlink:href="#aD"/><use transform="matrix(0.016276041666666668,0,0,0.016276041666666668,47.005208333333336,0)" xlink:href="#az"/><use transform="matrix(0.016276041666666668,0,0,0.016276041666666668,65.65755208333334,0)" xlink:href="#bh"/><use transform="matrix(0.016276041666666668,0,0,0.016276041666666668,74.49544270833334,0)" xlink:href="#aT"/></g><g id="x"><use transform="matrix(0.016276041666666668,0,0,0.016276041666666668,0,0)" xlink:href="#aA"/><use transform="matrix(0.016276041666666668,0,0,0.016276041666666668,18.766276041666668,0)" xlink:href="#bc"/><use transform="matrix(0.016276041666666668,0,0,0.016276041666666668,36.63736979166667,0)" xlink:href="#aD"/><use transform="matrix(0.016276041666666668,0,0,0.016276041666666668,53.77604166666667,0)" xlink:href="#aR"/><use transform="matrix(0.016276041666666668,0,0,0.016276041666666668,71.79361979166667,0)" xlink:href="#aS"/></g><g id="y"><use transform="matrix(0.016276041666666668,0,0,0.016276041666666668,0,0)" xlink:href="#aE"/><use transform="matrix(0.016276041666666668,0,0,0.016276041666666668,18.84765625,0)" xlink:href="#aF"/></g><g id="z"><use transform="matrix(0.016276041666666668,0,0,0.016276041666666668,0,0)" xlink:href="#aD"/><use transform="matrix(0.016276041666666668,0,0,0.016276041666666668,17.138671875,0)" xlink:href="#aR"/><use transform="matrix(0.016276041666666668,0,0,0.016276041666666668,35.15625,0)" xlink:href="#aU"/><use transform="matrix(0.016276041666666668,0,0,0.016276041666666668,47.607421875,0)" xlink:href="#aV"/><use transform="matrix(0.016276041666666668,0,0,0.016276041666666668,64.24153645833334,0)" xlink:href="#aR"/><use transform="matrix(0.016276041666666668,0,0,0.016276041666666668,82.25911458333334,0)" xlink:href="#aU"/></g><g id="A"><use transform="matrix(0.016276041666666668,0,0,0.016276041666666668,0,0)" xlink:href="#aU"/><use transform="matrix(0.016276041666666668,0,0,0.016276041666666668,11.848958333333334,0)" xlink:href="#aR"/><use transform="matrix(0.016276041666666668,0,0,0.016276041666666668,29.866536458333336,0)" xlink:href="#aD"/><use transform="matrix(0.016276041666666668,0,0,0.016276041666666668,47.005208333333336,0)" xlink:href="#bj"/><use transform="matrix(0.016276041666666668,0,0,0.016276041666666668,65.771484375,0)" xlink:href="#aE"/><use transform="matrix(0.016276041666666668,0,0,0.016276041666666668,84.619140625,0)" xlink:href="#aF"/><use transform="matrix(0.016276041666666668,0,0,0.016276041666666668,103.28776041666667,0)" xlink:href="#aD"/><use transform="matrix(0.016276041666666668,0,0,0.016276041666666668,120.42643229166667,0)" xlink:href="#aR"/></g><path d="M1161-1018c0 201-122 330-278 388l342 618V0h-206L703-589H361V0H168v-1456h482c310-2 511 139 511 438zm-193 0c0-187-120-280-313-280H361v552h295c179 3 313-101 312-272" id="bl"/><path d="M632-1102c291 0 422 251 422 573 0 297-141 548-419 549-131 0-235-42-310-125v521H140v-1498h169l9 120c75-93 180-140 314-140zm-53 971c207 0 290-180 290-419 0-218-92-395-292-395-112 0-196 50-252 149v517c55 99 140 148 254 148" id="bm"/><g id="B"><use transform="matrix(0.01953125,0,0,0.01953125,0,0)" xlink:href="#bl"/><use transform="matrix(0.01953125,0,0,0.01953125,24.62890625,0)" xlink:href="#as"/><use transform="matrix(0.01953125,0,0,0.01953125,45.8203125,0)" xlink:href="#bm"/><use transform="matrix(0.01953125,0,0,0.01953125,68.26171875,0)" xlink:href="#aM"/><use transform="matrix(0.01953125,0,0,0.01953125,91.07421875,0)" xlink:href="#at"/><use transform="matrix(0.01953125,0,0,0.01953125,105.5859375,0)" xlink:href="#aI"/></g><path d="M1288 0h-193v-673H361V0H169v-1456h192v626h734v-626h193V0" id="bn"/><path d="M561-1102c238-4 403 126 403 351v498c0 99 13 178 38 237V0H808c-11-21-19-59-26-114C696-25 593 20 474 20c-199 0-368-130-365-320 4-251 214-359 490-356h180v-85c-1-135-86-212-229-212-115 0-232 67-233 171H131c20-205 206-316 430-320zM294-326c0 117 90 185 207 185 122 0 239-75 278-162v-222H634c-227 0-340 66-340 199" id="bo"/><path d="M521 20C240 20 96-239 96-550c0-303 147-552 427-552 132 0 235 47 309 140l9-120h169V-26c4 277-183 454-459 452-165-1-334-81-400-187l96-111c79 98 176 147 291 147 180 1 288-109 286-290v-93C750-23 649 20 521 20zm48-965c-209 0-287 178-287 416 0 217 86 392 285 392 117 0 202-53 257-159v-494c-57-103-142-155-255-155" id="bp"/><g id="C"><use transform="matrix(0.01953125,0,0,0.01953125,0,0)" xlink:href="#bn"/><use transform="matrix(0.01953125,0,0,0.01953125,28.515625,0)" xlink:href="#bo"/><use transform="matrix(0.01953125,0,0,0.01953125,50.2734375,0)" xlink:href="#aJ"/><use transform="matrix(0.01953125,0,0,0.01953125,72.34375,0)" xlink:href="#aP"/><use transform="matrix(0.01953125,0,0,0.01953125,94.90234375,0)" xlink:href="#aQ"/><use transform="matrix(0.01953125,0,0,0.01953125,104.609375,0)" xlink:href="#aL"/><use transform="matrix(0.01953125,0,0,0.01953125,114.31640625,0)" xlink:href="#aJ"/><use transform="matrix(0.01953125,0,0,0.01953125,136.38671875,0)" xlink:href="#bp"/></g><path d="M572 20C306 25 99-136 101-391c0-70 20-134 59-193s113-127 223-205c-65-79-108-142-130-190s-33-96-33-143c-3-220 144-354 364-354 187 0 349 127 346 308-3 212-172 290-307 398l324 387c45-87 68-183 68-289h167c0 170-41 311-123 423L1267 0h-222l-97-115C862-36 726 17 572 20zM286-391c0 162 118 260 286 260 98 0 188-37 269-112L486-668c-110 72-200 183-200 277zm297-933c-109 0-180 87-178 196 0 64 39 144 118 240 93-79 236-119 236-280 0-91-82-156-176-156" id="bq"/><use transform="matrix(0.01953125,0,0,0.01953125,0,0)" xlink:href="#bq" id="D"/><path d="M1222-777c17 480-206 763-650 777H169v-1456h411c408 9 627 269 642 679zm-190 4c3-312-149-522-447-525H361v1141h202c308 0 473-209 469-531v-85" id="br"/><path d="M634-1102c292 0 422 254 422 573 0 298-143 547-420 549-137 0-242-48-317-145L310 0H140v-1536h185v573c75-93 178-139 309-139zm-44 965c207 0 281-175 281-413 0-224-79-395-283-395-122 0-210 57-263 170v468c57 113 145 170 265 170" id="bs"/><g id="E"><use transform="matrix(0.01953125,0,0,0.01953125,0,0)" xlink:href="#br"/><use transform="matrix(0.01953125,0,0,0.01953125,26.23046875,0)" xlink:href="#bo"/><use transform="matrix(0.01953125,0,0,0.01953125,47.98828125,0)" xlink:href="#aI"/><use transform="matrix(0.01953125,0,0,0.01953125,61.0546875,0)" xlink:href="#bo"/><use transform="matrix(0.01953125,0,0,0.01953125,82.8125,0)" xlink:href="#bs"/><use transform="matrix(0.01953125,0,0,0.01953125,105.25390625,0)" xlink:href="#bo"/><use transform="matrix(0.01953125,0,0,0.01953125,127.01171875,0)" xlink:href="#aK"/><use transform="matrix(0.01953125,0,0,0.01953125,147.63671875,0)" xlink:href="#as"/></g><path d="M665-137c214 0 337-121 336-332v-987h193v990c-3 300-218 486-529 486-309 0-526-181-525-484v-992h190v986c-1 210 123 333 335 333" id="bt"/><g id="F"><use transform="matrix(0.01953125,0,0,0.01953125,0,0)" xlink:href="#bt"/><use transform="matrix(0.01953125,0,0,0.01953125,25.9375,0)" xlink:href="#bm"/><use transform="matrix(0.01953125,0,0,0.01953125,48.37890625,0)" xlink:href="#aP"/><use transform="matrix(0.01953125,0,0,0.01953125,70.9375,0)" xlink:href="#bo"/><use transform="matrix(0.01953125,0,0,0.01953125,92.6953125,0)" xlink:href="#aI"/><use transform="matrix(0.01953125,0,0,0.01953125,105.76171875,0)" xlink:href="#as"/></g><path d="M952-300H426L326 0H7l542-1456h278L1372 0h-319zM507-543h364l-183-545" id="bu"/><g id="G"><use transform="matrix(0.016276041666666668,0,0,0.016276041666666668,0,0)" xlink:href="#bu"/><use transform="matrix(0.016276041666666668,0,0,0.016276041666666668,22.428385416666668,0)" xlink:href="#bd"/><use transform="matrix(0.016276041666666668,0,0,0.016276041666666668,39.81119791666667,0)" xlink:href="#bd"/><use transform="matrix(0.016276041666666668,0,0,0.016276041666666668,57.19401041666667,0)" xlink:href="#aR"/><use transform="matrix(0.016276041666666668,0,0,0.016276041666666668,75.21158854166667,0)" xlink:href="#bj"/><use transform="matrix(0.016276041666666668,0,0,0.016276041666666668,93.97786458333334,0)" xlink:href="#aT"/><use transform="matrix(0.016276041666666668,0,0,0.016276041666666668,105.24088541666667,0)" xlink:href="#aD"/></g><g id="H"><use transform="matrix(0.016276041666666668,0,0,0.016276041666666668,0,0)" xlink:href="#aB"/><use transform="matrix(0.016276041666666668,0,0,0.016276041666666668,28.857421875000004,0)" xlink:href="#bc"/><use transform="matrix(0.016276041666666668,0,0,0.016276041666666668,46.728515625,0)" xlink:href="#aF"/><use transform="matrix(0.016276041666666668,0,0,0.016276041666666668,65.39713541666667,0)" xlink:href="#az"/><use transform="matrix(0.016276041666666668,0,0,0.016276041666666668,84.04947916666667,0)" xlink:href="#bc"/><use transform="matrix(0.016276041666666668,0,0,0.016276041666666668,101.92057291666667,0)" xlink:href="#bh"/></g><path d="M750-685c-1-124-48-182-173-182-85 0-146 33-184 98V0H104v-1536h289v572c77-92 173-138 289-138 235 0 357 136 357 409V0H750v-685" id="bv"/><path d="M505 20C221 18 69-239 69-549c0-302 153-553 438-553 119 0 211 41 277 122l12-102h262V-36c-8 305-208 458-520 462-160 1-335-76-403-170L263 80c72 81 159 121 262 121 172 1 260-107 243-294C701-18 614 20 505 20zm76-887c-165 0-223 147-223 339 0 172 66 314 221 314 88 0 151-33 189-99v-455c-39-66-101-99-187-99" id="bw"/><g id="I"><use transform="matrix(0.016276041666666668,0,0,0.016276041666666668,0,0)" xlink:href="#bj"/><use transform="matrix(0.016276041666666668,0,0,0.016276041666666668,18.766276041666668,0)" xlink:href="#bv"/><use transform="matrix(0.016276041666666668,0,0,0.016276041666666668,37.41861979166667,0)" xlink:href="#aC"/><use transform="matrix(0.016276041666666668,0,0,0.016276041666666668,46.25651041666667,0)" xlink:href="#aD"/><use transform="matrix(0.016276041666666668,0,0,0.016276041666666668,63.39518229166667,0)" xlink:href="#bv"/><use transform="matrix(0.016276041666666668,0,0,0.016276041666666668,82.04752604166667,0)" xlink:href="#aC"/><use transform="matrix(0.016276041666666668,0,0,0.016276041666666668,90.88541666666667,0)" xlink:href="#aF"/><use transform="matrix(0.016276041666666668,0,0,0.016276041666666668,109.55403645833334,0)" xlink:href="#bw"/></g><g id="J"><use transform="matrix(0.016276041666666668,0,0,0.016276041666666668,0,0)" xlink:href="#aw"/><use transform="matrix(0.016276041666666668,0,0,0.016276041666666668,21.272786458333336,0)" xlink:href="#aR"/><use transform="matrix(0.016276041666666668,0,0,0.016276041666666668,39.290364583333336,0)" xlink:href="#bj"/><use transform="matrix(0.016276041666666668,0,0,0.016276041666666668,58.056640625,0)" xlink:href="#aE"/><use transform="matrix(0.016276041666666668,0,0,0.016276041666666668,76.904296875,0)" xlink:href="#aU"/><use transform="matrix(0.016276041666666668,0,0,0.016276041666666668,89.87630208333333,0)" xlink:href="#aT"/></g><g id="K"><use transform="matrix(0.016276041666666668,0,0,0.016276041666666668,0,0)" xlink:href="#bc"/><use transform="matrix(0.016276041666666668,0,0,0.016276041666666668,17.87109375,0)" xlink:href="#aF"/><use transform="matrix(0.016276041666666668,0,0,0.016276041666666668,36.53971354166667,0)" xlink:href="#aS"/></g><g id="L"><use transform="matrix(0.016276041666666668,0,0,0.016276041666666668,0,0)" xlink:href="#ay"/><use transform="matrix(0.016276041666666668,0,0,0.016276041666666668,20.491536458333336,0)" xlink:href="#aT"/><use transform="matrix(0.016276041666666668,0,0,0.016276041666666668,31.26627604166667,0)" xlink:href="#aE"/><use transform="matrix(0.016276041666666668,0,0,0.016276041666666668,50.11393229166667,0)" xlink:href="#aU"/><use transform="matrix(0.016276041666666668,0,0,0.016276041666666668,61.96289062500001,0)" xlink:href="#aR"/><use transform="matrix(0.016276041666666668,0,0,0.016276041666666668,79.98046875,0)" xlink:href="#aD"/></g><g id="M"><use transform="matrix(0.016276041666666668,0,0,0.016276041666666668,0,0)" xlink:href="#aC"/><use transform="matrix(0.016276041666666668,0,0,0.016276041666666668,8.837890625,0)" xlink:href="#aF"/></g><path d="M1212-428C1211-131 1004 0 696 0H130v-1456h510c318-1 539 108 539 399 0 155-89 264-208 308 141 33 242 151 241 321zM687-241c132 2 225-65 225-190 0-133-69-203-207-203H430v393h257zm192-786c0-145-86-186-239-186H430v367h222c151-3 227-63 227-181" id="bx"/><g id="N"><use transform="matrix(0.016276041666666668,0,0,0.016276041666666668,0,0)" xlink:href="#bi"/><use transform="matrix(0.016276041666666668,0,0,0.016276041666666668,21.663411458333336,0)" xlink:href="#bx"/></g><g id="O"><use transform="matrix(0.016276041666666668,0,0,0.016276041666666668,0,0)" xlink:href="#bg"/><use transform="matrix(0.016276041666666668,0,0,0.016276041666666668,29.199218750000004,0)" xlink:href="#aE"/><use transform="matrix(0.016276041666666668,0,0,0.016276041666666668,48.046875,0)" xlink:href="#aS"/><use transform="matrix(0.016276041666666668,0,0,0.016276041666666668,66.82942708333334,0)" xlink:href="#aR"/><use transform="matrix(0.016276041666666668,0,0,0.016276041666666668,84.84700520833334,0)" xlink:href="#bh"/></g><g id="P"><use transform="matrix(0.016276041666666668,0,0,0.016276041666666668,0,0)" xlink:href="#av"/><use transform="matrix(0.016276041666666668,0,0,0.016276041666666668,21.940104166666668,0)" xlink:href="#bj"/><use transform="matrix(0.016276041666666668,0,0,0.016276041666666668,40.706380208333336,0)" xlink:href="#aS"/><use transform="matrix(0.016276041666666668,0,0,0.016276041666666668,59.48893229166667,0)" xlink:href="#bc"/><use transform="matrix(0.016276041666666668,0,0,0.016276041666666668,77.36002604166667,0)" xlink:href="#aT"/><use transform="matrix(0.016276041666666668,0,0,0.016276041666666668,88.623046875,0)" xlink:href="#aC"/><use transform="matrix(0.016276041666666668,0,0,0.016276041666666668,97.4609375,0)" xlink:href="#aE"/><use transform="matrix(0.016276041666666668,0,0,0.016276041666666668,116.30859375,0)" xlink:href="#aF"/></g><path d="M1052-393l142-689h279L1197 0H955L750-681 545 0H304L28-1082h279l141 688 198-688h209" id="by"/><g id="Q"><use transform="matrix(0.016276041666666668,0,0,0.016276041666666668,0,0)" xlink:href="#aF"/><use transform="matrix(0.016276041666666668,0,0,0.016276041666666668,18.668619791666668,0)" xlink:href="#aR"/><use transform="matrix(0.016276041666666668,0,0,0.016276041666666668,36.68619791666667,0)" xlink:href="#by"/></g><g id="R"><use transform="matrix(0.016276041666666668,0,0,0.016276041666666668,0,0)" xlink:href="#aU"/><use transform="matrix(0.016276041666666668,0,0,0.016276041666666668,11.848958333333334,0)" xlink:href="#aR"/><use transform="matrix(0.016276041666666668,0,0,0.016276041666666668,29.866536458333336,0)" xlink:href="#bj"/><use transform="matrix(0.016276041666666668,0,0,0.016276041666666668,48.6328125,0)" xlink:href="#aE"/><use transform="matrix(0.016276041666666668,0,0,0.016276041666666668,67.48046875,0)" xlink:href="#aU"/><use transform="matrix(0.016276041666666668,0,0,0.016276041666666668,80.45247395833333,0)" xlink:href="#aT"/><use transform="matrix(0.016276041666666668,0,0,0.016276041666666668,91.71549479166666,0)" xlink:href="#aD"/></g><path d="M449 0H149v-1456h300V0" id="bz"/><g id="S"><use transform="matrix(0.016276041666666668,0,0,0.016276041666666668,0,0)" xlink:href="#bz"/><use transform="matrix(0.016276041666666668,0,0,0.016276041666666668,9.716796875,0)" xlink:href="#aB"/><use transform="matrix(0.016276041666666668,0,0,0.016276041666666668,38.57421875,0)" xlink:href="#bj"/><use transform="matrix(0.016276041666666668,0,0,0.016276041666666668,57.34049479166667,0)" xlink:href="#aE"/><use transform="matrix(0.016276041666666668,0,0,0.016276041666666668,76.18815104166667,0)" xlink:href="#aU"/><use transform="matrix(0.016276041666666668,0,0,0.016276041666666668,89.16015625,0)" xlink:href="#aT"/></g><g id="T"><use transform="matrix(0.016276041666666668,0,0,0.016276041666666668,0,0)" xlink:href="#aU"/><use transform="matrix(0.016276041666666668,0,0,0.016276041666666668,11.848958333333334,0)" xlink:href="#aR"/><use transform="matrix(0.016276041666666668,0,0,0.016276041666666668,29.866536458333336,0)" xlink:href="#bj"/><use transform="matrix(0.016276041666666668,0,0,0.016276041666666668,48.6328125,0)" xlink:href="#aE"/><use transform="matrix(0.016276041666666668,0,0,0.016276041666666668,67.48046875,0)" xlink:href="#aU"/><use transform="matrix(0.016276041666666668,0,0,0.016276041666666668,80.45247395833333,0)" xlink:href="#aT"/><use transform="matrix(0.016276041666666668,0,0,0.016276041666666668,91.71549479166666,0)" xlink:href="#aD"/></g><g id="U"><use transform="matrix(0.016276041666666668,0,0,0.016276041666666668,0,0)" xlink:href="#bc"/><use transform="matrix(0.016276041666666668,0,0,0.016276041666666668,17.87109375,0)" xlink:href="#aD"/></g><path d="M687-225c189-1 272-84 286-260h300c-19 311-251 505-586 505C296 20 86-277 86-686c0-466 174-782 605-790 340-6 557 198 584 514H975c-15-183-92-268-284-268-100 0-173 38-225 108-63 84-76 264-76 443 0 157 24 272 72 345s122 109 225 109" id="bA"/><path d="M668-361l330-1095h334L825 0H512L7-1456h333" id="bB"/><g id="V"><use transform="matrix(0.016276041666666668,0,0,0.016276041666666668,0,0)" xlink:href="#bA"/><use transform="matrix(0.016276041666666668,0,0,0.016276041666666668,21.809895833333336,0)" xlink:href="#ay"/><use transform="matrix(0.016276041666666668,0,0,0.016276041666666668,42.30143229166667,0)" xlink:href="#bB"/></g><g id="W"><use transform="matrix(0.01953125,0,0,0.01953125,0,0)" xlink:href="#aw"/><use transform="matrix(0.01953125,0,0,0.01953125,25.52734375,0)" xlink:href="#aR"/><use transform="matrix(0.01953125,0,0,0.01953125,47.1484375,0)" xlink:href="#aD"/><use transform="matrix(0.01953125,0,0,0.01953125,67.71484375,0)" xlink:href="#az"/><use transform="matrix(0.01953125,0,0,0.01953125,90.09765625,0)" xlink:href="#bh"/><use transform="matrix(0.01953125,0,0,0.01953125,100.703125,0)" xlink:href="#aT"/></g><path fill="#333" d="M952-300H426L326 0H7l542-1456h278L1372 0h-319zM507-543h364l-183-545" id="bC"/><path fill="#333" d="M416 0H126v-1536h290V0" id="bD"/><path fill="#333" d="M719-811c-143-24-279 1-319 103V0H111v-1082h273l8 129c74-124 180-175 331-136" id="bE"/><path fill="#333" d="M529-185c94 0 168-33 168-114 0-35-18-63-53-83s-91-39-168-55C219-491 90-600 90-765c0-208 203-337 432-337 246 0 451 124 453 349H686c-2-91-62-143-165-143-86 0-151 41-153 117 0 32 16 57 46 77 63 43 257 69 335 100 151 60 229 153 229 291C978-13 554 93 282-28 162-81 60-190 56-344h274c5 106 86 159 199 159" id="bF"/><g id="X"><use transform="matrix(0.016276041666666668,0,0,0.016276041666666668,0,0)" xlink:href="#bC"/><use transform="matrix(0.016276041666666668,0,0,0.016276041666666668,22.428385416666668,0)" xlink:href="#bD"/><use transform="matrix(0.016276041666666668,0,0,0.016276041666666668,31.266276041666668,0)" xlink:href="#aX"/><use transform="matrix(0.016276041666666668,0,0,0.016276041666666668,49.28385416666667,0)" xlink:href="#bE"/><use transform="matrix(0.016276041666666668,0,0,0.016276041666666668,62.25585937500001,0)" xlink:href="#aZ"/><use transform="matrix(0.016276041666666668,0,0,0.016276041666666668,73.51888020833334,0)" xlink:href="#bF"/></g><path fill="#333" d="M416-495c-3 181 88 274 258 274 169 0 257-89 257-266v-969h301v959c3 324-227 517-558 517-328 0-557-188-558-506v-970h300v961" id="bG"/><g id="Y"><use transform="matrix(0.016276041666666668,0,0,0.016276041666666668,0,0)" xlink:href="#bG"/><use transform="matrix(0.016276041666666668,0,0,0.016276041666666668,21.940104166666668,0)" xlink:href="#bF"/><use transform="matrix(0.016276041666666668,0,0,0.016276041666666668,39.07877604166667,0)" xlink:href="#aX"/><use transform="matrix(0.016276041666666668,0,0,0.016276041666666668,57.09635416666667,0)" xlink:href="#bE"/></g><path fill="#333" d="M416 0H126v-1082h290V0zM271-1212c-92 0-162-61-162-150s68-149 162-149c93 0 162 60 162 149s-70 150-162 150" id="bH"/><path fill="#333" d="M190-1174c-11-296 244-440 544-363l-3 224c-24-6-53-9-88-9-109 0-163 51-163 153v87h215v212H480V0H190v-870H29v-212h161v-92" id="bI"/><g id="Z"><use transform="matrix(0.016276041666666668,0,0,0.016276041666666668,0,0)" xlink:href="#bH"/><use transform="matrix(0.016276041666666668,0,0,0.016276041666666668,8.837890625,0)" xlink:href="#bI"/></g><path fill="#333" d="M663-1102c295 0 422 250 422 571 0 300-141 549-420 551-109 0-198-38-265-114v510H111v-1498h268l10 106c70-84 161-126 274-126zm133 550c0-175-53-315-209-315-91 0-153 35-187 104v443c35 71 98 107 189 107 138 0 207-113 207-339" id="bJ"/><path fill="#333" d="M750-685c-1-124-48-182-173-182-85 0-146 33-184 98V0H104v-1536h289v572c77-92 173-138 289-138 235 0 357 136 357 409V0H750v-685" id="bK"/><path fill="#333" d="M750-692c-1-124-48-174-173-175-81 0-142 35-183 104V0H105v-1082h272l9 125c77-97 181-145 311-145 244 0 342 151 342 403V0H750v-692" id="bL"/><path fill="#333" d="M505 20C221 18 69-239 69-549c0-302 153-553 438-553 119 0 211 41 277 122l12-102h262V-36c-8 305-208 458-520 462-160 1-335-76-403-170L263 80c72 81 159 121 262 121 172 1 260-107 243-294C701-18 614 20 505 20zm76-887c-165 0-223 147-223 339 0 172 66 314 221 314 88 0 151-33 189-99v-455c-39-66-101-99-187-99" id="bM"/><g id="aa"><use transform="matrix(0.016276041666666668,0,0,0.016276041666666668,0,0)" xlink:href="#bJ"/><use transform="matrix(0.016276041666666668,0,0,0.016276041666666668,18.766276041666668,0)" xlink:href="#bK"/><use transform="matrix(0.016276041666666668,0,0,0.016276041666666668,37.41861979166667,0)" xlink:href="#bH"/><use transform="matrix(0.016276041666666668,0,0,0.016276041666666668,46.25651041666667,0)" xlink:href="#bF"/><use transform="matrix(0.016276041666666668,0,0,0.016276041666666668,63.39518229166667,0)" xlink:href="#bK"/><use transform="matrix(0.016276041666666668,0,0,0.016276041666666668,82.04752604166667,0)" xlink:href="#bH"/><use transform="matrix(0.016276041666666668,0,0,0.016276041666666668,90.88541666666667,0)" xlink:href="#bL"/><use transform="matrix(0.016276041666666668,0,0,0.016276041666666668,109.55403645833334,0)" xlink:href="#bM"/></g><path fill="#333" d="M130 0v-1456h448c435 14 673 299 665 762-5 285-130 500-319 606C822-31 708 0 581 0H130zm809-685c9-311-79-526-361-528H430v972h145c252-2 356-181 364-444" id="bN"/><path fill="#333" d="M355-556c-2 203 30 338 206 343 102 3 181-63 182-161h271C1001-128 821 17 566 20 242 24 66-212 66-554c0-320 184-548 498-548 262 0 451 167 450 423H743c-1-108-75-193-184-189-162 6-202 123-204 312" id="bO"/><path fill="#333" d="M488 20C204 20 66-234 66-549c0-305 140-551 424-553 105 0 192 39 261 118v-552h290V0H780l-14-115C694-25 601 20 488 20zM355-528c0 176 51 314 207 314 89 0 152-38 189-113v-427c-36-75-98-113-187-113-139 0-209 113-209 339" id="bP"/><g id="ab"><use transform="matrix(0.016276041666666668,0,0,0.016276041666666668,0,0)" xlink:href="#bN"/><use transform="matrix(0.016276041666666668,0,0,0.016276041666666668,21.663411458333336,0)" xlink:href="#aX"/><use transform="matrix(0.016276041666666668,0,0,0.016276041666666668,39.680989583333336,0)" xlink:href="#aZ"/><use transform="matrix(0.016276041666666668,0,0,0.016276041666666668,50.94401041666667,0)" xlink:href="#aX"/><use transform="matrix(0.016276041666666668,0,0,0.016276041666666668,68.96158854166667,0)" xlink:href="#bO"/><use transform="matrix(0.016276041666666668,0,0,0.016276041666666668,86.34440104166667,0)" xlink:href="#aZ"/><use transform="matrix(0.016276041666666668,0,0,0.016276041666666668,97.607421875,0)" xlink:href="#aX"/><use transform="matrix(0.016276041666666668,0,0,0.016276041666666668,115.625,0)" xlink:href="#bP"/></g></defs></g></svg>