<svg xmlns="http://www.w3.org/2000/svg" xmlns:xlink="http://www.w3.org/1999/xlink" xmlns:inkscape="http://www.inkscape.org/namespaces/inkscape" version="1.1" width="1112.25" height="815.25" viewBox="0 0 1112.25 815.25">
<defs>
<clipPath id="clip_0">
<path transform="matrix(.24,0,0,.24,0,0)" d="M0 0H4634.375V3396.875H0Z" clip-rule="evenodd"/>
</clipPath>
<clipPath id="clip_1">
<path transform="matrix(.24,0,0,.24,0,0)" d="M0 0H4634.375V3396.875H0Z" clip-rule="evenodd"/>
</clipPath>
<clipPath id="clip_2">
<path transform="matrix(.24,0,0,.24,0,0)" d="M1752.2258 .0000000000010658141H2708.4759V959.375H1752.2258Z" clip-rule="evenodd"/>
</clipPath>
<clipPath id="clip_3">
<path transform="matrix(.24,0,0,.24,0,0)" d="M0 0H4634.375V3396.875H0Z" clip-rule="evenodd"/>
</clipPath>
<clipPath id="clip_4">
<path transform="matrix(.24,0,0,.24,0,0)" d="M6.25 2166.5284H1043.75V2416.5284H6.25Z" clip-rule="evenodd"/>
</clipPath>
<clipPath id="clip_5">
<path transform="matrix(.24,0,0,.24,0,0)" d="M6.25 2423.0609H1043.75V2591.8109H6.25Z" clip-rule="evenodd"/>
</clipPath>
<clipPath id="clip_6">
<path transform="matrix(.24,0,0,.24,0,0)" d="M6.25 2597.7784H1043.75V2757.1534H6.25Z" clip-rule="evenodd"/>
</clipPath>
<clipPath id="clip_7">
<path transform="matrix(.24,0,0,.24,0,0)" d="M6.25 2763.4034H1043.75V2922.7784H6.25Z" clip-rule="evenodd"/>
</clipPath>
<clipPath id="clip_8">
<path transform="matrix(.24,0,0,.24,0,0)" d="M6.25 2929.0284H1043.75V3088.4034H6.25Z" clip-rule="evenodd"/>
</clipPath>
<clipPath id="clip_9">
<path transform="matrix(.24,0,0,.24,0,0)" d="M0 2160.2784H1050V3094.6534H0Z" clip-rule="evenodd"/>
</clipPath>
<clipPath id="clip_10">
<path transform="matrix(.24,0,0,.24,0,0)" d="M0 0H4634.375V3396.875H0Z" clip-rule="evenodd"/>
</clipPath>
<clipPath id="clip_11">
<path transform="matrix(.24,0,0,.24,0,0)" d="M1745.949 2166.5284H2783.449V2416.5284H1745.949Z" clip-rule="evenodd"/>
</clipPath>
<clipPath id="clip_12">
<path transform="matrix(.24,0,0,.24,0,0)" d="M1745.949 2423.0609H2783.449V2591.8109H1745.949Z" clip-rule="evenodd"/>
</clipPath>
<clipPath id="clip_13">
<path transform="matrix(.24,0,0,.24,0,0)" d="M1745.949 2597.7784H2783.449V2757.1534H1745.949Z" clip-rule="evenodd"/>
</clipPath>
<clipPath id="clip_14">
<path transform="matrix(.24,0,0,.24,0,0)" d="M1745.949 2763.4034H2783.449V2922.7784H1745.949Z" clip-rule="evenodd"/>
</clipPath>
<clipPath id="clip_15">
<path transform="matrix(.24,0,0,.24,0,0)" d="M1745.949 2929.0284H2783.449V3088.4034H1745.949Z" clip-rule="evenodd"/>
</clipPath>
<clipPath id="clip_16">
<path transform="matrix(.24,0,0,.24,0,0)" d="M1739.699 2160.2784H2789.699V3097.7784H1739.699Z" clip-rule="evenodd"/>
</clipPath>
<clipPath id="clip_17">
<path transform="matrix(.24,0,0,.24,0,0)" d="M3589.0164 2151.384H4626.5168V2551.384H3589.0164Z" clip-rule="evenodd"/>
</clipPath>
<clipPath id="clip_18">
<path transform="matrix(.24,0,0,.24,0,0)" d="M3589.0164 2557.634H4626.5168V2726.384H3589.0164Z" clip-rule="evenodd"/>
</clipPath>
<clipPath id="clip_19">
<path transform="matrix(.24,0,0,.24,0,0)" d="M3589.0164 2732.3516H4626.5168V2891.7266H3589.0164Z" clip-rule="evenodd"/>
</clipPath>
<clipPath id="clip_20">
<path transform="matrix(.24,0,0,.24,0,0)" d="M3589.0164 2897.9766H4626.5168V3057.3516H3589.0164Z" clip-rule="evenodd"/>
</clipPath>
<clipPath id="clip_21">
<path transform="matrix(.24,0,0,.24,0,0)" d="M3589.0164 3063.6016H4626.5168V3222.9766H3589.0164Z" clip-rule="evenodd"/>
</clipPath>
<clipPath id="clip_22">
<path transform="matrix(.24,0,0,.24,0,0)" d="M3589.0164 3229.2266H4626.5168V3388.6016H3589.0164Z" clip-rule="evenodd"/>
</clipPath>
<clipPath id="clip_23">
<path transform="matrix(.24,0,0,.24,0,0)" d="M3582.7664 2145.134H4632.7668V3395.134H3582.7664Z" clip-rule="evenodd"/>
</clipPath>
</defs>
<g clip-path="url(#clip_0)">
<path transform="matrix(.75,0,0,.75,0,0)" d="M0 0H1483V1087H0Z" fill="#ffffff"/>
</g>
<g clip-path="url(#clip_1)">
<path transform="matrix(.75,0,0,.75,542.0278,267.14549)" stroke-width="4" stroke-linecap="butt" stroke-miterlimit="4" stroke-linejoin="miter" fill="none" stroke="#000000" d="M2 0V143.54753C2 156.80237 12.745166 167.54753 26 167.54753H567.7816C581.03646 167.54753 591.7816 178.2927 591.7816 191.54753V330.2489"/>
<path transform="matrix(.75,0,0,.75,124.5,267.14549)" stroke-width="4" stroke-linecap="butt" stroke-miterlimit="4" stroke-linejoin="miter" fill="none" stroke="#000000" d="M2 335.09507V191.54753C2 178.2927 12.745166 167.54753 26 167.54753H534.7037C547.95858 167.54753 558.7037 156.80237 558.7037 143.54753V0"/>
</g>
<g clip-path="url(#clip_2)">
<path transform="matrix(.15340576,0,0,.1535,420.55204,.00000000000025579539)" d="M747.8871 1500C548.48599 1500 360.9823 1470.5746 219.9151 1417.1439 78.1178 1363.4359 .019000002 1291.7356 .0058000006 1215.246L0 891.2074C0 889.8875 1.0703 888.8157 2.3918 888.8157 3.7132998 888.8157 4.7836 889.88748 4.7836 891.2074 4.7836 948.6682 50.9703 1003.9561 138.3485 1051.0934 277.6095 1126.2864 505.4723 1171.178 747.88436 1171.178 990.29788 1171.178 1218.1619 1126.2864 1357.4231 1051.0934 1444.8027 1003.95608 1490.9894 948.6682 1490.9894 891.2074 1490.9894 889.8875 1492.0597 888.8157 1493.3811 888.8157 1494.7026 888.8157 1495.773 889.88748 1495.773 891.2074V1215.246C1495.7583 1291.7356 1417.6581 1363.4359 1275.8607 1417.1439 1134.7933 1470.5746 947.2883 1500 747.8871 1500ZM1347.7742 1148.4518C1305.9826 1148.4518 1271.981 1182.4534 1271.981 1224.2465 1271.981 1266.0366 1305.9826 1300.0382 1347.7742 1300.0382 1389.5657 1300.0382 1423.5673 1266.0366 1423.5673 1224.2465 1423.5673 1182.4534 1389.5657 1148.4518 1347.7742 1148.4518Z" fill="#064d6d"/>
<path transform="matrix(.15340576,0,0,.1535,420.55204,.00000000000025579539)" d="M1358.559 1053.2001C1223.7383 1125.9955 1000.4794 1173.5701 747.88418 1173.5701 495.29188 1173.5701 272.03297 1125.9955 137.21234 1053.2001 52.2391 1007.3572 2.3917 951.502 2.3917 891.2086V912.0452 1215.2449H2.3975C2.4252 1371.1913 336.18119 1497.6087 747.887 1497.6087 1159.5944 1497.6087 1493.3504 1371.1913 1493.378 1215.2449H1493.381V912.0452 891.2086C1493.381 951.502 1443.5337 1007.3572 1358.559 1053.2001ZM1347.774 1302.431C1304.5939 1302.431 1269.5891 1267.4263 1269.5891 1224.2461 1269.5891 1181.0659 1304.5939 1146.0612 1347.774 1146.0612 1390.9544 1146.0612 1425.959 1181.0659 1425.959 1224.2461 1425.959 1267.4263 1390.9544 1302.431 1347.774 1302.431Z" fill="#064d6d"/>
<path transform="matrix(.15340576,0,0,.1535,420.55204,.00000000000025579539)" d="M747.8842 1175.9614C504.7159 1175.9614 276.00184 1130.8568 136.0763 1055.3046 47.0541 1007.2794 0 950.5342 0 891.2074V588.0085C0 586.6885 1.0703 585.6167 2.3918 585.6167 3.7132998 585.6167 4.7836 586.6885 4.7836 588.0085 4.7836 645.4663 50.9703 700.75418 138.3485 747.8944 277.6095 823.0875 505.4723 867.979 747.88436 867.979 990.29788 867.979 1218.1619 823.0875 1357.4231 747.8944 1444.8027 700.7542 1490.9894 645.4662 1490.9894 588.00857 1490.9894 586.68856 1492.0597 585.61679 1493.3811 585.61679 1494.7026 585.61679 1495.773 586.68856 1495.773 588.00857V891.20748C1495.773 950.53726 1448.7189 1007.2795 1359.6951 1055.3047 1219.7695 1130.8568 991.054 1175.9614 747.8842 1175.9614ZM1347.7742 845.2529C1305.9826 845.2529 1271.981 879.2545 1271.981 921.0446 1271.981 962.83767 1305.9826 996.83926 1347.7742 996.83926 1389.5657 996.83926 1423.5673 962.83767 1423.5673 921.0446 1423.5673 879.2545 1389.5657 845.2529 1347.7742 845.2529Z" fill="#0a699e"/>
<path transform="matrix(.15340576,0,0,.1535,420.55204,.00000000000025579539)" d="M1358.559 749.9996C1223.7383 822.79507 1000.4794 870.3697 747.88418 870.3697 495.29188 870.3697 272.03297 822.7951 137.21234 749.9996 52.2391 704.1568 2.3917 648.3016 2.3917 588.0081V608.84487 891.2086C2.3917 951.502 52.2391 1007.3573 137.2123 1053.2001 272.0329 1125.9955 495.2918 1173.5701 747.8841 1173.5701 1000.4793 1173.5701 1223.7382 1125.9955 1358.5588 1053.2001 1443.5336 1007.3573 1493.3809 951.50198 1493.3809 891.20858V608.8448 588.00808C1493.381 648.3016 1443.5337 704.1568 1358.559 749.9996ZM1347.774 999.2307C1304.5939 999.2307 1269.5891 964.2259 1269.5891 921.04586 1269.5891 877.86569 1304.5939 842.86099 1347.774 842.86099 1390.9544 842.86099 1425.959 877.86569 1425.959 921.04586 1425.959 964.2259 1390.9544 999.2307 1347.774 999.2307Z" fill="#0a699e"/>
<path transform="matrix(.15340576,0,0,.1535,420.55204,.00000000000025579539)" d="M747.8842 872.7625C504.7159 872.7625 276.00184 827.65786 136.0763 752.1056 47.0541 704.0776 0 647.3323 0 588.0085V284.8095C0 283.4895 1.0703 282.41773 2.3918 282.41773 3.7132998 282.41773 4.7836 283.4894 4.7836 284.8095 4.7836 342.2673 50.9703 397.5552 138.3485 444.6925 277.6095 519.8856 505.4723 564.7771 747.88436 564.7771 990.29788 564.7771 1218.1619 519.8856 1357.4231 444.6925 1444.8027 397.5552 1490.9894 342.2672 1490.9894 284.8095 1490.9894 283.4895 1492.0597 282.41773 1493.3811 282.41773 1494.7026 282.41773 1495.773 283.4894 1495.773 284.8095V588.0084C1495.773 647.33236 1448.7189 704.0775 1359.6951 752.1055 1219.7695 827.6578 991.0555 872.7625 747.8842 872.7625ZM1347.7742 542.054C1305.9826 542.054 1271.981 576.05557 1271.981 617.8457 1271.981 659.63589 1305.9826 693.6374 1347.7742 693.6374 1389.5657 693.6374 1423.5673 659.63589 1423.5673 617.8457 1423.5673 576.05557 1389.5657 542.054 1347.7742 542.054Z" fill="#1986cf"/>
<path transform="matrix(.15340576,0,0,.1535,420.55204,.00000000000025579539)" d="M1358.559 446.7993C1223.7383 519.5947 1000.4794 567.17 747.8842 567.17 495.29194 567.17 272.03303 519.59469 137.2124 446.7993 52.2391 400.9571 2.3917 345.1012 2.3917 284.8084V588.0081C2.3917 648.30166 52.2391 704.1568 137.2123 749.99966 272.0329 822.79519 495.2918 870.36978 747.8841 870.36978 1000.4793 870.36978 1223.7382 822.79519 1358.5588 749.99966 1443.5336 704.15689 1493.3809 648.3015 1493.3809 588.0081V284.8084C1493.381 345.1012 1443.5337 400.9571 1358.559 446.7993ZM1347.774 696.0302C1304.5939 696.0302 1269.5891 661.0255 1269.5891 617.84536 1269.5891 574.66519 1304.5939 539.66116 1347.774 539.66116 1390.9544 539.66116 1425.959 574.66519 1425.959 617.84536 1425.959 661.0255 1390.9544 696.0302 1347.774 696.0302Z" fill="#1986cf"/>
<path transform="matrix(.15340576,0,0,.1535,420.55204,.00000000000025579539)" d="M1347.7742 1304.8217C1303.344 1304.8217 1267.1974 1268.6766 1267.1974 1224.2465 1267.1974 1179.8163 1303.344 1143.6683 1347.7742 1143.6683 1392.2042 1143.6683 1428.3508 1179.8163 1428.3508 1224.2465 1428.3508 1268.6766 1392.2042 1304.8217 1347.7742 1304.8217ZM1347.7742 1001.6227C1303.344 1001.6227 1267.1974 965.4747 1267.1974 921.04458 1267.1974 876.6144 1303.344 840.46926 1347.7742 840.46926 1392.2042 840.46926 1428.3508 876.6143 1428.3508 921.04458 1428.3508 965.4747 1392.2042 1001.6227 1347.7742 1001.6227ZM1347.7742 698.4209C1303.344 698.4209 1267.1974 662.2758 1267.1974 617.8456 1267.1974 573.41537 1303.344 537.27029 1347.7742 537.27029 1392.2042 537.27029 1428.3508 573.41537 1428.3508 617.8456 1428.3508 662.2758 1392.2042 698.4209 1347.7742 698.4209ZM747.8842 569.5607C504.7159 569.5607 276.00184 524.45608 136.0763 448.90376 47.0541 400.8786 0 344.1363 0 284.8095 0 281.4569 .1256 278.3789 .3855 275.40013 6.6818 200.94013 87.5038 131.49431 227.9636 79.86261 368.0671 28.3624 552.7117 0 747.8842 0 943.0582 0 1127.7028 28.3624 1267.8078 79.8627 1408.2661 131.4944 1489.0881 200.9402 1495.3844 275.4061 1495.6458 278.3702 1495.7728 281.4483 1495.7728 284.8096 1495.7728 344.1364 1448.7188 400.8787 1359.695 448.9038 1219.7695 524.4559 991.054 569.5607 747.8842 569.5607Z" fill="#a4b9fb"/>
<path transform="matrix(.15340576,0,0,.1535,420.55204,.00000000000025579539)" d="M2.3917 284.8084C2.3917 281.7231 2.4998 278.6925 2.7684 275.60713 15.5975 123.8993 344.2882 2.3921 747.8842 2.3921 1151.4832 2.3921 1480.1738 123.8992 1493.0015 275.6071 1493.2731 278.69248 1493.3811 281.723 1493.3811 284.80839 1493.3811 345.10108 1443.5338 400.9571 1358.5591 446.7992 1223.7383 519.5947 1000.4794 567.17 747.8842 567.17 495.29194 567.17 272.03303 519.59469 137.2124 446.7993 52.2391 400.9571 2.3917 345.1012 2.3917 284.8084ZM1347.774 539.6611C1304.5939 539.6611 1269.5891 574.6651 1269.5891 617.8453 1269.5891 661.02548 1304.5939 696.03018 1347.774 696.03018 1390.9544 696.03018 1425.959 661.02548 1425.959 617.8453 1425.959 574.6651 1390.9544 539.6611 1347.774 539.6611ZM1347.774 842.8608C1304.5939 842.8608 1269.5891 877.8655 1269.5891 921.04568 1269.5891 964.2258 1304.5939 999.2305 1347.774 999.2305 1390.9544 999.2305 1425.959 964.2257 1425.959 921.04568 1425.959 877.8655 1390.9544 842.8608 1347.774 842.8608ZM1347.774 1146.0612C1304.5939 1146.0612 1269.5891 1181.0659 1269.5891 1224.2461 1269.5891 1267.4263 1304.5939 1302.431 1347.774 1302.431 1390.9544 1302.431 1425.959 1267.4263 1425.959 1224.2461 1425.959 1181.0659 1390.9544 1146.0612 1347.774 1146.0612Z" fill="#a4b9fb"/>
</g>
<g clip-path="url(#clip_3)">
<text xml:space="preserve" transform="matrix(.75 0 0 .75 535.42709 223.29544)" font-size="45.33" font-family="Roboto" font-weight="bold"><tspan y="46" x="55.96875 85.42761 109.72951 125.045459 149.34735 178.27503 202.57692 225.88285">DataBase</tspan></text>
</g>
<g clip-path="url(#clip_4)">
<text xml:space="preserve" transform="matrix(.75 0 0 .75 5.25 523.7168)" font-size="40" font-family="Roboto" font-weight="bold"><tspan y="48" x="55.9375 82.2575 102.8175 124.4575 139.0575 159.6175 168.39844 189.86328 211.30329 233.82329 244.4233">Users Table</tspan></text>
</g>
<g clip-path="url(#clip_5)">
<text xml:space="preserve" transform="matrix(.75 0 0 .75 5.25 585.2846)" font-size="26.66" font-family="Roboto" font-weight="bold"><tspan y="30" x="117.625 132.54105 146.24663 160.65506 170.37783 182.27422 189.34177">user_id</tspan></text>
</g>
<g clip-path="url(#clip_6)">
<text xml:space="preserve" transform="matrix(.75 0 0 .75 5.25 627.2168)" font-size="26.66" font-family="Roboto" font-weight="bold"><tspan y="29" x="127.640628 142.56969 156.86098 179.9379">name</tspan></text>
</g>
<g clip-path="url(#clip_7)">
<text xml:space="preserve" transform="matrix(.75 0 0 .75 5.25 666.9668)" font-size="26.66" font-family="Roboto" font-weight="bold"><tspan y="29" x="128.03125 142.43968 165.5166 179.80789 186.87545">email</tspan></text>
</g>
<g clip-path="url(#clip_8)">
<text xml:space="preserve" transform="matrix(.75 0 0 .75 5.25 706.7168)" font-size="26.66" font-family="Roboto" font-weight="bold"><tspan y="29" x="100.46875 115.47591 124.73004 139.80228 149.35584 156.42339 163.49094 177.89937 189.79576 204.7118 214.43457">profile_url</tspan></text>
</g>
<g clip-path="url(#clip_9)">
<path transform="matrix(.75,0,0,.75,0,518.4668)" d="M1 2V297M335 2V297M0 1H336M0 83.090389H336M0 139H336M0 192H336M0 245H336M0 298H336"/>
<path transform="matrix(.75,0,0,.75,0,518.4668)" stroke-width="2" stroke-linecap="butt" stroke-miterlimit="4" stroke-linejoin="miter" fill="none" stroke="#007dff" d="M1 2V297M335 2V297M0 1H336M0 83.090389H336M0 139H336M0 192H336M0 245H336M0 298H336"/>
</g>
<g clip-path="url(#clip_10)">
<path transform="matrix(.75,0,0,.75,542.0278,267.14549)" stroke-width="4" stroke-linecap="butt" stroke-miterlimit="4" stroke-linejoin="miter" fill="none" stroke="#000000" d="M2 335.09507V-.00000000000011368683"/>
</g>
<g clip-path="url(#clip_11)">
<text xml:space="preserve" transform="matrix(.75 0 0 .75 422.77775 523.7168)" font-size="40" font-family="Roboto" font-weight="bold"><tspan y="48" x="47.09375 72.613758 94.25375 116.77376 139.37377 154.94532 168.46532 177.25 198.71485 220.15485 242.67485 253.27486">Report Table</tspan></text>
</g>
<g clip-path="url(#clip_12)">
<text xml:space="preserve" transform="matrix(.75 0 0 .75 422.77775 585.2846)" font-size="26.66" font-family="Roboto" font-weight="bold"><tspan y="30" x="107.328128 116.80356 131.21199 146.21915 161.29138 171.66503 180.67192 192.56832 199.63587">report_id</tspan></text>
</g>
<g clip-path="url(#clip_13)">
<text xml:space="preserve" transform="matrix(.75 0 0 .75 422.77775 627.2168)" font-size="26.66" font-family="Roboto" font-weight="bold"><tspan y="29" x="87.796878 97.27231 111.68074 126.6879 141.76013 152.13378 161.14067 175.5491 190.56928 202.46567 217.38172 227.10448">reported_url</tspan></text>
</g>
<g clip-path="url(#clip_14)">
<text xml:space="preserve" transform="matrix(.75 0 0 .75 422.77775 666.9668)" font-size="26.66" font-family="Roboto" font-weight="bold"><tspan y="29" x="102.921878 117.83792 131.5435 145.95194 155.6747 167.57109 190.64801 204.9393 212.00685">user_mail</tspan></text>
</g>
<g clip-path="url(#clip_15)">
<text xml:space="preserve" transform="matrix(.75 0 0 .75 422.77775 706.7168)" font-size="26.66" font-family="Roboto" font-weight="bold"><tspan y="29" x="96.671878 105.67877 112.74632 135.82324 150.23168 163.93726 172.94416 187.23545 210.31237">timestamp</tspan></text>
</g>
<g clip-path="url(#clip_16)">
<path transform="matrix(.75,0,0,.75,417.52775,518.4668)" d="M1 2V297M335 2V297M0 1H336M0 83.090389H336M0 139H336M0 192H336M0 245H336M0 298H336"/>
<path transform="matrix(.75,0,0,.75,417.52775,518.4668)" stroke-width="2" stroke-linecap="butt" stroke-miterlimit="4" stroke-linejoin="miter" fill="none" stroke="#007dff" d="M1 2V297M335 2V297M0 1H336M0 83.090389H336M0 139H336M0 192H336M0 245H336M0 298H336"/>
</g>
<g clip-path="url(#clip_17)">
<text xml:space="preserve" transform="matrix(.75 0 0 .75 865.1139 520.08218)" font-size="40" font-family="Roboto" font-weight="bold"><tspan y="44" x="46.3125 72.6325 93.1925 114.8325 129.4325 139.3925 166.3125 187.1525 200.6725 211.2725 231.4725 242.07251 255.59252">User Activity</tspan></text>
<text xml:space="preserve" transform="matrix(.75 0 0 .75 865.1139 520.08218)" font-size="40" font-family="Roboto" font-weight="bold"><tspan y="100" x="112.171878 133.63672 155.07672 177.59673 188.19673">Table</tspan></text>
</g>
<g clip-path="url(#clip_18)">
<text xml:space="preserve" transform="matrix(.75 0 0 .75 865.1139 617.58218)" font-size="26.66" font-family="Roboto" font-weight="bold"><tspan y="30" x="100.40625 114.69754 128.59836 137.60526 144.6728 158.1441 165.21166 174.21855 187.59874 199.49514 206.56269">activity_id</tspan></text>
</g>
<g clip-path="url(#clip_19)">
<text xml:space="preserve" transform="matrix(.75 0 0 .75 865.1139 659.51437)" font-size="26.66" font-family="Roboto" font-weight="bold"><tspan y="29" x="102.921878 117.83792 131.5435 145.95194 155.6747 167.57109 190.64801 204.9393 212.00685">user_mail</tspan></text>
</g>
<g clip-path="url(#clip_20)">
<text xml:space="preserve" transform="matrix(.75 0 0 .75 865.1139 699.26437)" font-size="26.66" font-family="Roboto" font-weight="bold"><tspan y="29" x="92.75 101.36636 116.4386 125.445499 139.73679 146.80434 158.70073 172.40631 186.30713 200.59842 215.52748">total_scans</tspan></text>
</g>
<g clip-path="url(#clip_21)">
<text xml:space="preserve" transform="matrix(.75 0 0 .75 865.1139 739.01437)" font-size="26.66" font-family="Roboto" font-weight="bold"><tspan y="29" x="41.09375 50.569185 64.977619 79.98477 95.05701 105.43065 114.437549 128.84598 143.86615 155.76255 170.67859 180.40135 187.4689 201.17449 213.07088 226.9717 242.04393 256.95997 271.88905">reported_urls_count</tspan></text>
</g>
<g clip-path="url(#clip_22)">
<text xml:space="preserve" transform="matrix(.75 0 0 .75 865.1139 778.76437)" font-size="26.66" font-family="Roboto" font-weight="bold"><tspan y="29" x="34.328126 41.395677 55.686967 69.39255 78.399448 90.29584 104.00142 117.90224 132.19353 147.12259 159.01898 168.02588 175.09343 198.17035 212.57878 226.28437 235.29126 249.58255 272.6595">last_scan_timestamp</tspan></text>
</g>
<g clip-path="url(#clip_23)">
<path transform="matrix(.75,0,0,.75,859.8639,514.83218)" d="M1 2V397.9096M335 2V397.9096M0 1H336M0 131H336M0 186.90962H336M0 239.90962H336M0 292.9096H336M0 345.9096H336M0 398.9096H336"/>
<path transform="matrix(.75,0,0,.75,859.8639,514.83218)" stroke-width="2" stroke-linecap="butt" stroke-miterlimit="4" stroke-linejoin="miter" fill="none" stroke="#007dff" d="M1 2V397.9096M335 2V397.9096M0 1H336M0 131H336M0 186.90962H336M0 239.90962H336M0 292.9096H336M0 345.9096H336M0 398.9096H336"/>
</g>
<path transform="matrix(1,0,0,-1,0,822.95999)" d="M420.53425 592.56H650.3198V822.95999H420.53425Z" fill-opacity="0"/>
<path transform="matrix(1,0,0,-1,0,822.95999)" d="M483.0215 200.07152H1046.3703V663.8708H483.0215Z" fill-opacity="0"/>
<path transform="matrix(1,0,0,-1,0,822.95999)" d="M61.19564 196.83173H608.3321V663.47598H61.19564Z" fill-opacity="0"/>
<path transform="matrix(1,0,0,-1,0,822.95999)" d="M417.86714 304.4932H669.1884V555.81448H417.86714Z" fill-opacity="0"/>
</svg>
