<svg xmlns="http://www.w3.org/2000/svg" xmlns:xlink="http://www.w3.org/1999/xlink" xmlns:inkscape="http://www.inkscape.org/namespaces/inkscape" version="1.1" width="3894.75" height="3594.75" viewBox="0 0 3894.75 3594.75">
<defs>
<clipPath id="clip_0">
<path transform="matrix(.24,0,0,.24,0,0)" d="M0 0H16228.125V14978.125H0Z" clip-rule="evenodd"/>
</clipPath>
<clipPath id="clip_1">
<path transform="matrix(.24,0,0,.24,0,0)" d="M0 0H16228.125V14978.125H0Z" clip-rule="evenodd"/>
</clipPath>
</defs>
<g clip-path="url(#clip_0)">
<path transform="matrix(.75,0,0,.75,0,0)" d="M0 0H5193V4793H0Z" fill="#ffffff"/>
</g>
<g clip-path="url(#clip_1)">
<text xml:space="preserve" transform="matrix(.75 0 0 .75 94.74263 28.898859)" font-size="147.06" font-family="TimesNRMTPro"><tspan y="134" x="0 105.726657 219.09975 317.17997 421.5824 519.6626 617.7428 654.5045 743.9082 857.2813 955.3615 1053.4418 1151.522 1188.2837 1269.4535 1326.0665 1390.473 1447.086 1503.6991 1540.4608">CREATE TABLE users (</tspan></text>
<text xml:space="preserve" transform="matrix(.75 0 0 .75 94.74263 28.898859)" font-size="147.06" font-family="TimesNRMTPro"><tspan y="339" x="0 36.761705 73.52341 110.28511">    </tspan></text>
<text xml:space="preserve" transform="matrix(.75 0 0 .75 94.74263 28.898859)" font-size="147.06" font-family="TimesNRMTPro"><tspan y="339" x="147.04688 228.2167 284.8297 349.2362 405.84925 479.37266 519.22238 600.3922 637.15396 693.76699 814.7865 912.8667 1010.9469 1131.9664 1230.0466 1343.4197 1380.1814 1468.9977 1582.3707 1638.9838 1784.56 1897.9331 1992.0414 2105.4146 2142.1763 2263.1959 2361.2762 2474.6492 2511.411 2610.9605 2731.98 2830.0604 2943.4334 3000.0465 3121.066 3226.7926 3340.1656 3438.2459 3583.8223 3681.9027 3802.922 3885.708">user_id INTEGER PRIMARY KEY AUTOINCREMENT,</tspan></text>
<text xml:space="preserve" transform="matrix(.75 0 0 .75 94.74263 28.898859)" font-size="147.06" font-family="TimesNRMTPro"><tspan y="339" x="3925.5626"> </tspan></text>
<text xml:space="preserve" transform="matrix(.75 0 0 .75 94.74263 28.898859)" font-size="147.06" font-family="TimesNRMTPro"><tspan y="544" x="0 36.761705 73.52341 110.28511">    </tspan></text>
<text xml:space="preserve" transform="matrix(.75 0 0 .75 94.74263 28.898859)" font-size="147.06" font-family="TimesNRMTPro"><tspan y="544" x="147.04688 228.2167 284.8297 349.2362 405.84925 479.37266 560.5425 634.0659 755.08547 819.49197 856.25369 941.0978 1054.471 1156.0792 1261.8059 1382.8255 1496.1985 1609.5715 1646.3333 1767.3528 1877.6376 1975.7178 2012.4795 2133.499 2254.5186 2352.5989 2450.6793 2487.441 2608.4605 2729.48 2786.093 2896.378 3017.3975 3115.4779">user_name VARCHAR NOT NULL UNIQUE,</tspan></text>
<text xml:space="preserve" transform="matrix(.75 0 0 .75 94.74263 28.898859)" font-size="147.06" font-family="TimesNRMTPro"><tspan y="544" x="3155.3282"> </tspan></text>
<text xml:space="preserve" transform="matrix(.75 0 0 .75 94.74263 28.898859)" font-size="147.06" font-family="TimesNRMTPro"><tspan y="749" x="0 36.761705 73.52341 110.28511">    </tspan></text>
<text xml:space="preserve" transform="matrix(.75 0 0 .75 94.74263 28.898859)" font-size="147.06" font-family="TimesNRMTPro"><tspan y="749" x="147.04688 228.2167 284.8297 349.2362 405.84925 479.37266 600.39218 673.9155 713.7652 753.61489 790.3766 875.2207 988.5938 1090.2022 1195.9287 1316.9483 1430.3213 1543.6943 1580.456 1701.4756 1811.7604 1909.8406 1946.6023 2067.6219 2188.6414 2286.7218 2384.802 2421.5638 2542.5833 2663.6029 2720.2159 2830.5008 2951.5203 3049.6007">user_mail VARCHAR NOT NULL UNIQUE,</tspan></text>
<text xml:space="preserve" transform="matrix(.75 0 0 .75 94.74263 28.898859)" font-size="147.06" font-family="TimesNRMTPro"><tspan y="749" x="3089.4532"> </tspan></text>
<text xml:space="preserve" transform="matrix(.75 0 0 .75 94.74263 28.898859)" font-size="147.06" font-family="TimesNRMTPro"><tspan y="954" x="0 36.761705 73.52341 110.28511">    </tspan></text>
<text xml:space="preserve" transform="matrix(.75 0 0 .75 94.74263 28.898859)" font-size="147.06" font-family="TimesNRMTPro"><tspan y="954" x="147.04688 186.89656 243.50959 317.033 390.5564 454.9629 503.92948 541.72036 613.18496 677.59146 714.35317 812.43338 925.80648 1039.1796 1137.2598 1235.34 1348.713">is_active BOOLEAN</tspan></text>
<text xml:space="preserve" transform="matrix(.75 0 0 .75 94.74263 28.898859)" font-size="147.06" font-family="TimesNRMTPro"><tspan y="1159" x="0 48.966585">);</tspan></text>
<text xml:space="preserve" transform="matrix(.75 0 0 .75 94.74263 28.898859)" font-size="147.06" font-family="TimesNRMTPro"><tspan y="1569" x="0 105.726657 219.09975 317.17997 421.5824 519.6626 617.7428 654.5045 743.9082 857.2813 955.3615 1053.4418 1151.522 1188.2837 1242.985 1307.3915 1388.5613 1469.7311 1526.3441 1575.3107 1648.8341 1730.0039 1785.5875 1825.4373 1862.199">CREATE TABLE report_url (</tspan></text>
<text xml:space="preserve" transform="matrix(.75 0 0 .75 94.74263 28.898859)" font-size="147.06" font-family="TimesNRMTPro"><tspan y="1774" x="0 36.761705 73.52341 110.28511">    </tspan></text>
<text xml:space="preserve" transform="matrix(.75 0 0 .75 94.74263 28.898859)" font-size="147.06" font-family="TimesNRMTPro"><tspan y="1774" x="147.04688 186.89656 268.0664 304.82814 361.44117 482.4607 580.5409 678.6211 799.6406 897.7208 1011.09396 1047.8557 1136.672 1250.045 1306.6581 1452.2344 1565.6074 1659.7157 1773.0888 1809.8505 1930.87 2028.9502 2142.3233 2179.085 2278.6343 2399.6539 2497.7342 2611.1072 2667.7203 2788.7398 2894.4664 3007.8394 3105.9197 3251.496 3349.5765 3470.596 3553.3819">id INTEGER PRIMARY KEY AUTOINCREMENT,</tspan></text>
<text xml:space="preserve" transform="matrix(.75 0 0 .75 94.74263 28.898859)" font-size="147.06" font-family="TimesNRMTPro"><tspan y="1774" x="3593.2344"> </tspan></text>
<text xml:space="preserve" transform="matrix(.75 0 0 .75 94.74263 28.898859)" font-size="147.06" font-family="TimesNRMTPro"><tspan y="1979" x="0 36.761705 73.52341 110.28511">    </tspan></text>
<text xml:space="preserve" transform="matrix(.75 0 0 .75 94.74263 28.898859)" font-size="147.06" font-family="TimesNRMTPro"><tspan y="1979" x="147.04688 228.2167 283.8003 323.64997 360.41169 445.2558 558.6289 660.2372 765.96389 886.9834 1000.3565 1113.7296 1150.4913 1271.5109 1381.7957 1479.8759 1516.6376 1637.6571 1758.6766 1856.7568 1954.837">url VARCHAR NOT NULL,</tspan></text>
<text xml:space="preserve" transform="matrix(.75 0 0 .75 94.74263 28.898859)" font-size="147.06" font-family="TimesNRMTPro"><tspan y="1979" x="1994.6875"> </tspan></text>
<text xml:space="preserve" transform="matrix(.75 0 0 .75 94.74263 28.898859)" font-size="147.06" font-family="TimesNRMTPro"><tspan y="2184" x="0 36.761705 73.52341 110.28511">    </tspan></text>
<text xml:space="preserve" transform="matrix(.75 0 0 .75 94.74263 28.898859)" font-size="147.06" font-family="TimesNRMTPro"><tspan y="2184" x="147.04688 228.2167 284.8297 349.2362 405.84925 479.37266 543.7792 664.7987 738.3221 778.17178 818.0214 854.78317 939.62728 1053.0004 1154.6087 1260.3352 1381.3547 1494.7278 1608.1008 1644.8626 1765.8821 1876.1669 1974.2471 2011.0088 2132.0284 2253.0479 2351.1282 2449.2086">user_email VARCHAR NOT NULL,</tspan></text>
<text xml:space="preserve" transform="matrix(.75 0 0 .75 94.74263 28.898859)" font-size="147.06" font-family="TimesNRMTPro"><tspan y="2184" x="2489.0626"> </tspan></text>
<text xml:space="preserve" transform="matrix(.75 0 0 .75 94.74263 28.898859)" font-size="147.06" font-family="TimesNRMTPro"><tspan y="2389" x="0 36.761705 73.52341 110.28511">    </tspan></text>
<text xml:space="preserve" transform="matrix(.75 0 0 .75 94.74263 28.898859)" font-size="147.06" font-family="TimesNRMTPro"><tspan y="2389" x="147.04688 245.12709 358.50019 471.8733 569.9535 626.5665 747.58609 868.6056 905.3673 1026.3869 1124.467 1237.8401 1286.8067 1367.9765 1424.5895 1488.996 1545.609 1619.1325 1683.539 1804.5585 1878.0819 1917.9317 1957.7814 2006.7479 2043.5097 2156.8829 2254.963 2353.0433 2451.1236 2564.4967 2662.577 2783.5965 2889.323 2987.4034 3068.5733 3105.335 3186.505 3243.118 3307.5245 3364.1375 3420.7506 3469.717 3550.887 3607.5 3671.9066 3728.5196 3802.043 3923.0626 3996.586 4036.4356 4076.2852">FOREIGN KEY(user_email) REFERENCES users(user_mail)</tspan></text>
<text xml:space="preserve" transform="matrix(.75 0 0 .75 94.74263 28.898859)" font-size="147.06" font-family="TimesNRMTPro"><tspan y="2594" x="0 48.966585">);</tspan></text>
<text xml:space="preserve" transform="matrix(.75 0 0 .75 94.74263 28.898859)" font-size="147.06" font-family="TimesNRMTPro"><tspan y="3004" x="0 105.726657 219.09975 317.17997 421.5824 519.6626 617.7428 654.5045 743.9082 857.2813 955.3615 1053.4418 1151.522 1188.2837 1244.8967 1309.3032 1382.8267 1463.9965 1537.5199 1592.2212 1656.6277 1713.2407 1794.4105 1834.2603 1883.2268 1939.8399 1976.6016">CREATE TABLE scan_results (</tspan></text>
<text xml:space="preserve" transform="matrix(.75 0 0 .75 94.74263 28.898859)" font-size="147.06" font-family="TimesNRMTPro"><tspan y="3209" x="0 36.761705 73.52341 110.28511">    </tspan></text>
<text xml:space="preserve" transform="matrix(.75 0 0 .75 94.74263 28.898859)" font-size="147.06" font-family="TimesNRMTPro"><tspan y="3209" x="147.04688 203.6599 268.0664 341.5898 422.75965 496.28306 536.13278 617.3026 654.06436 710.67739 831.6969 929.7771 1027.8573 1148.8768 1246.957 1360.3301 1397.0918 1485.9081 1599.2811 1655.8942 1801.4705 1914.8435 2008.9518 2122.3248 2159.0865 2280.106 2378.1864 2491.5594 2528.321 2627.8707 2748.8902 2846.9705 2960.3436 3016.9566 3137.976 3243.7027 3357.0758 3455.156 3600.7325 3698.8128 3819.8323 3902.6182">scan_id INTEGER PRIMARY KEY AUTOINCREMENT,</tspan></text>
<text xml:space="preserve" transform="matrix(.75 0 0 .75 94.74263 28.898859)" font-size="147.06" font-family="TimesNRMTPro"><tspan y="3209" x="3942.4688"> </tspan></text>
<text xml:space="preserve" transform="matrix(.75 0 0 .75 94.74263 28.898859)" font-size="147.06" font-family="TimesNRMTPro"><tspan y="3414" x="0 36.761705 73.52341 110.28511">    </tspan></text>
<text xml:space="preserve" transform="matrix(.75 0 0 .75 94.74263 28.898859)" font-size="147.06" font-family="TimesNRMTPro"><tspan y="3414" x="147.04688 228.2167 283.8003 323.64997 397.17338 437.02305 518.1929 554.9546 611.5676 732.58718 830.66738 928.74758 1049.7671 1147.8473 1261.2203 1297.982 1419.0016 1529.2864 1627.3666 1664.1283 1785.1478 1906.1674 2004.2476 2102.3277">url_id INTEGER NOT NULL,</tspan></text>
<text xml:space="preserve" transform="matrix(.75 0 0 .75 94.74263 28.898859)" font-size="147.06" font-family="TimesNRMTPro"><tspan y="3414" x="2142.1876"> </tspan></text>
<text xml:space="preserve" transform="matrix(.75 0 0 .75 94.74263 28.898859)" font-size="147.06" font-family="TimesNRMTPro"><tspan y="3619" x="0 36.761705 73.52341 110.28511">    </tspan></text>
<text xml:space="preserve" transform="matrix(.75 0 0 .75 94.74263 28.898859)" font-size="147.06" font-family="TimesNRMTPro"><tspan y="3619" x="147.04688 228.2167 282.91798 347.32447 428.49427 468.34394 532.7504 581.71707 621.5668 702.73666 783.90646 820.66818 905.51229 1018.8854 1120.4937 1226.2202 1347.2398 1460.6128 1573.9859 1610.7476 1731.7671 1842.0519 1940.1321 1976.8938 2097.9134 2218.9329 2317.0133 2415.0936">prediction VARCHAR NOT NULL,</tspan></text>
<text xml:space="preserve" transform="matrix(.75 0 0 .75 94.74263 28.898859)" font-size="147.06" font-family="TimesNRMTPro"><tspan y="3619" x="2454.9532"> </tspan></text>
<text xml:space="preserve" transform="matrix(.75 0 0 .75 94.74263 28.898859)" font-size="147.06" font-family="TimesNRMTPro"><tspan y="3824" x="0 36.761705 73.52341 110.28511">    </tspan></text>
<text xml:space="preserve" transform="matrix(.75 0 0 .75 94.74263 28.898859)" font-size="147.06" font-family="TimesNRMTPro"><tspan y="3824" x="147.04688 211.45337 292.6232 373.79304 425.55378 465.40345 546.57327 610.97976 692.14956 756.556 820.9625 857.72427 955.80447 1050.7964 1157.1106 1261.513 1359.5932 1396.3549 1517.3744 1627.6592 1725.7394 1762.5011 1883.5206 2004.5402 2102.6204 2200.7008">confidence FLOAT NOT NULL,</tspan></text>
<text xml:space="preserve" transform="matrix(.75 0 0 .75 94.74263 28.898859)" font-size="147.06" font-family="TimesNRMTPro"><tspan y="4029" x="0 36.761705 73.52341 110.28511">    </tspan></text>
<text xml:space="preserve" transform="matrix(.75 0 0 .75 94.74263 28.898859)" font-size="147.06" font-family="TimesNRMTPro"><tspan y="4029" x="147.04688 203.6599 268.0664 341.5898 422.75965 496.28306 545.24966 585.0993 706.11886 770.5253 827.13839 876.105 949.6284 1070.648 1151.8178 1188.5795 1286.6597 1343.2727 1488.849 1586.9292 1668.099 1757.5027 1870.8757 2016.452 2105.2684 2142.03 2263.0496 2361.13 2443.4747 2543.0242 2664.0438 2747.2708 2845.351 2882.1129 2987.8394 3108.859 3222.232 3335.605 3433.6854 3554.7049 3652.7852 3726.3087 3824.389 3881.002 4026.5784 4124.6589 4205.8288 4295.2326 4408.6057 4554.1818 4625.939">scan_timestamp TIMESTAMP DEFAULT CURRENT_TIMESTAMP,</tspan></text>
<text xml:space="preserve" transform="matrix(.75 0 0 .75 94.74263 28.898859)" font-size="147.06" font-family="TimesNRMTPro"><tspan y="4234" x="0 36.761705 73.52341 110.28511">    </tspan></text>
<text xml:space="preserve" transform="matrix(.75 0 0 .75 94.74263 28.898859)" font-size="147.06" font-family="TimesNRMTPro"><tspan y="4234" x="147.04688 245.12709 358.50019 471.8733 569.9535 626.5665 747.58609 868.6056 905.3673 1026.3869 1124.467 1237.8401 1286.8067 1367.9765 1423.56 1463.4098 1536.9332 1576.783 1657.9528 1706.9193 1743.681 1857.0541 1955.1343 2053.2144 2151.2945 2264.6676 2362.7479 2483.7674 2589.494 2687.5743 2768.7442 2805.5059 2860.207 2924.6136 3005.7835 3086.9534 3143.5665 3192.533 3266.0565 3347.2264 3402.8099 3442.6595 3491.626 3531.4757 3612.6456">FOREIGN KEY(url_id) REFERENCES report_url(id)</tspan></text>
<text xml:space="preserve" transform="matrix(.75 0 0 .75 94.74263 28.898859)" font-size="147.06" font-family="TimesNRMTPro"><tspan y="4439" x="0 48.966585">);</tspan></text>
</g>
<path transform="matrix(1,0,0,-1,0,3601.92)" d="M-.0000000000003410605 47.801267H3854.8194V3561.991H-.0000000000003410605Z" fill-opacity="0"/>
</svg>
