<svg xmlns="http://www.w3.org/2000/svg" xmlns:xlink="http://www.w3.org/1999/xlink" xmlns:lucid="lucid" width="2043.07" height="1331.83"><g transform="translate(-1038.4632752028338 99.99999999999977)" lucid:page-tab-id="0_0"><path d="M1376.33-92a8 8 0 0 1 8-8h1389.3a8 8 0 0 1 8 8v1315.83a8 8 0 0 1-8 8h-1389.3a8 8 0 0 1-8-8z" stroke="#000" stroke-opacity="0" fill="#edf5ff"/><use xlink:href="#a" transform="matrix(1,0,0,1,1384.3265527557505,-91.99999999999977) translate(344.5388454861111 53.60243055555556)"/><use xlink:href="#b" transform="matrix(1,0,0,1,1384.3265527557505,-91.99999999999977) translate(586.5397135416666 53.60243055555556)"/><use xlink:href="#c" transform="matrix(1,0,0,1,1384.3265527557505,-91.99999999999977) translate(850.4611545138889 53.60243055555556)"/><path d="M2015.68 69.9a8 8 0 0 1 8-8h682.73a8 8 0 0 1 8 8v951.95a8 8 0 0 1-8 8H2023.7a8 8 0 0 1-8-8z" stroke="#333" fill-opacity="0"/><path d="M2015.68-2.57a8 8 0 0 1 8-8h250.88a8 8 0 0 1 8 8V41.9a8 8 0 0 1-8 8h-250.88a8 8 0 0 1-8-8z" fill="#333"/><use xlink:href="#d" transform="matrix(1,0,0,1,2027.6852643860457,1.431719844375472) translate(0 29.133680555555557)"/><use xlink:href="#e" transform="matrix(1,0,0,1,2027.6852643860457,1.431719844375472) translate(128.98654513888889 29.133680555555557)"/><path d="M1708.02 153.23c0 50.44-54.52 91.33-121.78 91.33-67.26 0-121.78-40.9-121.78-91.33 0-50.45 54.52-91.34 121.78-91.34 67.26 0 121.78 40.88 121.78 91.33z" stroke="#ff80df" stroke-width="2" fill="#4d9eff"/><use xlink:href="#f" transform="matrix(1,0,0,1,1464.4581461349883,61.89005317770881) translate(64.41385416666667 99.08333333333334)"/><use xlink:href="#g" transform="matrix(1,0,0,1,1464.4581461349883,61.89005317770881) translate(130.58572916666668 99.08333333333334)"/><path d="M1709.52 153.23h12.46m12.45 0h12.46l.32-.03.33-.08.3-.13.3-.18.25-.22.2-.25.2-.3.12-.3.08-.32.02-.34.03-.34.08-.33.13-.3.17-.3.22-.25.25-.22.3-.17.3-.14.33-.08.33-.03h10.05m10.07 0h20.1m10.06 0h20.1m10.06 0h20.1m10.06 0h20.1m10.06 0h20.1m10.06 0h20.1m10.06 0h20.1m10.06 0h20.1m10.07 0h20.1m10.06 0h20.1m10.06 0h10.05l1.87.15 1.83.44 1.74.72 1.6 1 1.43 1.2 1.22 1.44 1 1.6.7 1.75.45 1.83.14 1.87v11.63m0 11.62v11.62l.15 1.87.43 1.82.72 1.74 1 1.6 1.2 1.44 1.44 1.22 1.6 1 1.74.7 1.83.45 1.88.15h11.6" stroke="#333" fill="none"/><path d="M1709.54 153.7h-.53l.02-.47v-.48h.52z" stroke="#333" stroke-width=".05" fill="#333"/><path d="M2133.33 207.82l-14.27 4.63v-9.27z" stroke="#333" fill="#333"/><use xlink:href="#h" transform="matrix(1,0,0,1,1757.0137369558345,113.7044720201898) translate(0.0049999999999954525 24.739583333333336)"/><use xlink:href="#i" transform="matrix(1,0,0,1,1757.0137369558345,113.7044720201898) translate(81.12479166666667 24.739583333333336)"/><use xlink:href="#j" transform="matrix(1,0,0,1,1757.0137369558345,113.7044720201898) translate(136.77583333333334 24.739583333333336)"/><use xlink:href="#k" transform="matrix(1,0,0,1,1757.0137369558345,113.7044720201898) translate(167.114375 24.739583333333336)"/><path d="M1708.02 908.07c0 50.44-54.52 91.33-121.78 91.33-67.26 0-121.78-40.9-121.78-91.33 0-50.45 54.52-91.34 121.78-91.34 67.26 0 121.78 40.9 121.78 91.34z" stroke="#ff80df" stroke-width="2" fill="#4d9eff"/><use xlink:href="#l" transform="matrix(1,0,0,1,1464.4581461349883,816.7291263896096) translate(39.31619791666666 87.64583333333334)"/><use xlink:href="#m" transform="matrix(1,0,0,1,1464.4581461349883,816.7291263896096) translate(145.16255208333334 87.64583333333334)"/><use xlink:href="#n" transform="matrix(1,0,0,1,1464.4581461349883,816.7291263896096) translate(74.69380208333334 118.89583333333334)"/><path d="M1128.05 503.82c0 13.27-10.75 24.02-24.02 24.02S1080 517.1 1080 503.82s10.76-24.02 24.03-24.02c13.27 0 24.02 10.75 24.02 24.02z" stroke="#3a414a" stroke-width="4" fill="#fff"/><path d="M1104.03 527.84v61.26a16.58 16.58 0 0 0 3.84 10.6l60.2 72.27m-64.04-76.87L1040 671.97m0-120.1h128.06" stroke="#3a414a" stroke-width="4" fill="none"/><path d="M1040 485.8a6 6 0 0 1 6-6h116.06a6 6 0 0 1 6 6v202.17a6 6 0 0 1-6 6H1046a6 6 0 0 1-6-6z" fill="none"/><use xlink:href="#o" transform="matrix(1,0,0,1,960,671.9738011749539) translate(116.79817708333333 24.739583333333336)"/><path d="M2501.3 116.48h182.67v182.67H2501.3V116.48z" stroke="#fff" stroke-opacity="0" stroke-width="2" fill="#3b48cc"/><path d="M2598.87 241.3h-3.2c-1.32 0-2.4-1.06-2.4-2.42v-54.22c0-1.35 1.08-2.42 2.4-2.42h28.8c.72 0 1.32.3 1.8.83l7.3 8.8-3.42 3.13-6.78-7.9h-25.35v49.54h.85z" stroke="#fff" stroke-opacity="0" stroke-width="2" fill="#fff"/><path d="M2643.34 250.12h-39.37c-1.32 0-2.42-1.06-2.42-2.42v-54.22c0-1.36 1.1-2.42 2.42-2.42h30.37c.66 0 1.2.23 1.67.7l9.02 9.1c.44.48.66 1 .66 1.66v45.24c-.04 1.3-1.06 2.3-2.34 2.36zm-37.03-4.55h34.7v-42.1l-7.64-7.63h-27.05z" stroke="#fff" stroke-opacity="0" stroke-width="2" fill="#fff"/><path d="M2643.34 207.28h-11.42c-1.34 0-2.44-1.1-2.44-2.43V193.4h4.67v9.08h9.1zM2621.57 237.4h-1.54c-1.24.04-2.3-.44-3.12-1.4-1-1.5-1.32-3.1-1-4.9-.13-4.32-2.57-5-2.57-5-1.25-.5-1.9-1.9-1.4-3.15.25-.7.72-1.16 1.4-1.43.22 0 2.44-.9 2.44-5.18 0-2.55 1.2-5.4 4.04-5.5h1.62v4.7h-.78c-.03.27-.03.53 0 .8.17 2.84-.63 5.3-2.44 7.5 1.8 2.2 2.6 4.64 2.44 7.48.03.16.03.3 0 .43-.03.37-.03.7 0 1.06h1.05zM2628.12 237.4v-4.66h.9c.03-.3.03-.5 0-.8-.18-2.82.63-5.3 2.43-7.5-1.8-2.17-2.6-4.65-2.43-7.47v-.43c.04-.37.04-.67 0-1.04h-1.05v-4.7h1.54c1.25-.02 2.32.5 3.12 1.42 1 1.5 1.33 3.12 1 4.88 0 4.13 2.44 4.88 2.44 5 1.07.36 1.73 1.34 1.68 2.46 0 1.07-.7 1.95-1.73 2.2-.18 0-2.43.92-2.43 5.2 0 2.57-1.2 5.42-4.04 5.5zM2579.8 182.73c-19.47 0-40.22-6-40.22-17.05s20.67-17.05 40.2-17.05c19.56 0 40.23 6 40.23 17.05s-20.74 17.05-40.2 17.05zm0-29.53c-20.92 0-35.55 6.55-35.55 12.45 0 5.86 14.63 12.37 35.54 12.37 20.9 0 35.54-6.5 35.54-12.38 0-5.9-14.64-12.44-35.55-12.44z" stroke="#fff" stroke-opacity="0" stroke-width="2" fill="#fff"/><path d="M2615.3 165.63h4.68v14.76h-4.67v-14.77zM2579.8 267.1c-19.47 0-40.22-6-40.22-17.05v-84.42h4.67v84.32c0 5.9 14.63 12.48 35.54 12.48 20.9 0 35.54-6.6 35.54-12.48h4.67c0 11.16-20.74 17.15-40.2 17.15z" stroke="#fff" stroke-opacity="0" stroke-width="2" fill="#fff"/><path d="M2579.85 212.23c-22.86 0-40.1-7.32-40.1-17.05h4.7c0 5.86 14.64 12.42 35.4 12.42 3.74 0 6.86-.18 10.54-.6l.5 4.65c-3.9.42-7.16.6-11.05.58zM2579.9 241.2c-22.92 0-40.15-7.3-40.15-17.04h4.7c0 5.87 14.63 12.4 35.44 12.4 3.67.03 6.78-.16 10.46-.57l.52 4.7c-3.84.4-7.16.53-11 .5z" stroke="#fff" stroke-opacity="0" stroke-width="2" fill="#fff"/><use xlink:href="#p" transform="matrix(1,0,0,1,2471.2933395205037,308.153026498418) translate(64.3125 24.739583333333336)"/><path d="M1708.02 417.8c0 50.43-54.52 91.32-121.78 91.32-67.26 0-121.78-40.9-121.78-91.33 0-50.46 54.52-91.35 121.78-91.35 67.26 0 121.78 40.9 121.78 91.34z" stroke="#ff80df" stroke-width="2" fill="#4d9eff"/><use xlink:href="#q" transform="matrix(1,0,0,1,1464.4581461349883,326.4475543544446) translate(18.88651041666666 87.64583333333334)"/><use xlink:href="#r" transform="matrix(1,0,0,1,1464.4581461349883,326.4475543544446) translate(120.07140625000001 87.64583333333334)"/><use xlink:href="#s" transform="matrix(1,0,0,1,1464.4581461349883,326.4475543544446) translate(97.42817708333334 118.89583333333334)"/><path d="M2379.5 207.82c0 50.44-54.5 91.33-121.77 91.33-67.26 0-121.78-40.9-121.78-91.33 0-50.45 54.52-91.34 121.78-91.34 67.26 0 121.78 40.9 121.78 91.34z" stroke="#ff80df" stroke-width="2" fill="#4d9eff"/><use xlink:href="#t" transform="matrix(1,0,0,1,2135.945504303191,116.47910888976226) translate(14.713333333333333 87.64583333333334)"/><use xlink:href="#u" transform="matrix(1,0,0,1,2135.945504303191,116.47910888976226) translate(124.25760416666667 87.64583333333334)"/><use xlink:href="#v" transform="matrix(1,0,0,1,2135.945504303191,116.47910888976226) translate(84.53104166666667 118.89583333333334)"/><path d="M1708.02 634.2c0 50.44-54.52 91.33-121.78 91.33-67.26 0-121.78-40.9-121.78-91.34 0-50.45 54.52-91.34 121.78-91.34 67.26 0 121.78 40.9 121.78 91.33z" stroke="#ff80df" stroke-width="2" fill="#4d9eff"/><use xlink:href="#w" transform="matrix(1,0,0,1,1464.4581461349883,542.8560365592022) translate(33.78885416666666 99.08333333333334)"/><use xlink:href="#x" transform="matrix(1,0,0,1,1464.4581461349883,542.8560365592022) translate(129.3096875 99.08333333333334)"/><path d="M3013.47 570.56h-9.17v-.95h9.17zm-39.02-12.5l.14 1.83.4 1.74.7 1.67.95 1.56 1.17 1.37 1.38 1.17 1.54.95 1.67.7 1.77.4 1.82.16h9.14v.96h-9.2l-1.92-.15-1.9-.45-1.8-.75-1.68-1.02-1.5-1.28-1.26-1.48-1.03-1.67-.75-1.8-.45-1.92-.16-1.93v-10.27h.95zm0-20.5h-.95v-20.5h.95zm0-30.76h-.95v-20.52h.95zm0-30.78h-.95v-20.5h.95zm20.92-52.55H2986l-1.83.14-1.76.43-1.66.7-1.54.94-1.38 1.18-1.17 1.37-.95 1.54-.7 1.67-.4 1.76-.15 1.8v10.25h-.95v-10.27l.15-1.94.45-1.9.75-1.8 1.03-1.68 1.27-1.5 1.5-1.26 1.66-1.02 1.8-.75 1.92-.46 1.93-.15h9.42zm28.2 0h-18.8v-.95h18.8zm31.3-12.46l-.16 1.95-.45 1.9-.74 1.8-1.02 1.68-1.27 1.5-1.48 1.26-1.67 1-1.8.76-1.9.46-1.94.15h-9.4v-.95h9.37l1.82-.14 1.75-.43 1.67-.7 1.54-.93 1.38-1.18 1.17-1.37.96-1.54.7-1.68.4-1.75.15-1.82v-10.6h.96zm0-21.25h-.96V368.5h.96zm0-31.86h-.96v-21.25h.96zm0-31.87h-.96v-21.25h.96zm0-31.87h-.96v-21.24h.96zm0-31.86h-.96v-21.24h.96zm0-31.86h-.96v-7h.96zM2757.7 208.3h-5.54v-.96h5.54zm-15.9 0h-20.74v-.96h20.73zm-31.1 0h-10.37v-.96h10.37zM3016.97 570.56h-3.5v-.95h3.5z" stroke="#333" stroke-width=".05" fill="#333"/><path d="M2699.85 212.45l-14.26-4.63 14.25-4.64z" fill="#333"/><path d="M2700.33 213.1l-16.28-5.28 16.28-5.3zm-13.2-5.28l12.25 3.98v-7.97z" stroke="#333" stroke-width=".05" fill="#333"/><use xlink:href="#y" transform="matrix(1,0,0,1,2757.714597959342,192.19106769409012) translate(0.0049999999999954525 24.739583333333336)"/><use xlink:href="#z" transform="matrix(1,0,0,1,2757.714597959342,192.19106769409012) translate(62.83052083333334 24.739583333333336)"/><use xlink:href="#j" transform="matrix(1,0,0,1,2757.714597959342,192.19106769409012) translate(157.06229166666668 24.739583333333336)"/><use xlink:href="#A" transform="matrix(1,0,0,1,2757.714597959342,192.19106769409012) translate(187.40083333333334 24.739583333333336)"/><path d="M2594.15 862.4c0 75.66-95.4 137-213.12 137-117.7 0-213.12-61.34-213.12-137 0-75.67 95.43-137 213.13-137 117.7 0 213.12 61.33 213.12 137zm-426.24 0h426.25" stroke="#333" fill="#cfe4ff"/><use xlink:href="#B" transform="matrix(1,0,0,1,2231.8494002229554,752.7932552265801) translate(46.3359375 64.11458333333334)"/><use xlink:href="#C" transform="matrix(1,0,0,1,2231.8494002229554,752.7932552265801) translate(138.2890625 64.11458333333334)"/><use xlink:href="#w" transform="matrix(1,0,0,1,2231.8494002229554,886.3976057917736) translate(61.28385416666666 45.114583333333336)"/><use xlink:href="#x" transform="matrix(1,0,0,1,2231.8494002229554,886.3976057917736) translate(156.8046875 45.114583333333336)"/><use xlink:href="#D" transform="matrix(1,0,0,1,2167.913529059926,862.3976057917736) translate(145.32209960937502 18.089501953125)"/><use xlink:href="#E" transform="matrix(1,0,0,1,2167.913529059926,862.3976057917736) translate(230.362607421875 18.089501953125)"/><path d="M1709.52 634.2h33.5a6 6 0 0 1 6 6v91.26a6 6 0 0 0 6 6h366.4a6 6 0 0 1 6 6V856.4a6 6 0 0 0 6 6h17.6" stroke="#3a414a" fill="none"/><path d="M1709.54 634.67h-.53l.02-.47v-.48h.52z" stroke="#3a414a" stroke-width=".05" fill="#3a414a"/><path d="M2165.8 862.4l-14.27 4.63v-9.27z" stroke="#3a414a" fill="#3a414a"/><path d="M2381.03 724.4v-130a6 6 0 0 1 6-6h199.6a6 6 0 0 0 6-6V315.53" stroke="#3a414a" fill="none"/><path d="M2381.5 724.9h-.94v-.52h.95z" stroke="#3a414a" stroke-width=".05" fill="#3a414a"/><path d="M2592.63 300.77l4.64 14.27H2588z" stroke="#3a414a" fill="#3a414a"/><path d="M1106.53 586.9h138.8a6 6 0 0 0 6-6V159.22a6 6 0 0 1 6-6h205.63M1106.54 586.9h-3.5" stroke="#3a414a" fill="none"/><path d="M1463.46 153.22v.48h-.52v-.95h.53z" stroke="#3a414a" stroke-width=".05" fill="#3a414a"/><path d="M1102.53 586.9h68.3a6 6 0 0 1 6 6v309.17a6 6 0 0 0 6 6h280.13M1102.54 586.9h-3.5" stroke="#3a414a" fill="none"/><path d="M1463.46 908.06v.48h-.52v-.95h.53z" stroke="#3a414a" stroke-width=".05" fill="#3a414a"/><path d="M1462.96 417.8h-33.5a6 6 0 0 1-6-6v-45.76a6 6 0 0 0-6-6h-307.43a6 6 0 0 0-6 6v95.37" stroke="#3a414a" fill="none"/><path d="M1463.46 417.78v.48h-.52v-.95h.53z" stroke="#3a414a" stroke-width=".05" fill="#3a414a"/><path d="M1104.03 476.18l-4.63-14.27h9.26z" stroke="#3a414a" fill="#3a414a"/><path d="M3013.47 570.56h-10.07v-.95h10.07zm-20.13 0h-20.14v-.95h20.14zm-30.2 0H2943v-.95h20.13zm-30.2 0h-20.14v-.95h20.13zm-30.2 0h-20.15v-.95h20.13zm-30.2 0h-20.15v-.95h20.13zm-30.22 0h-20.13v-.95h20.12zm-30.2 0h-20.14v-.95h20.14zm-51.8-12.5l.15 1.83.42 1.74.68 1.67.95 1.56 1.17 1.37 1.38 1.17 1.54.95 1.67.7 1.75.4 1.82.16h10.05v.96h-10.1l-1.92-.15-1.9-.45-1.82-.75-1.66-1.02-1.5-1.28-1.26-1.48-1.03-1.67-.75-1.8-.45-1.92-.16-1.93v-10.75h.95zm0-21.44h-.95v-21.46h.95zm0-32.2h-.95v-21.45h.95zM2749.8 417l1.9.45 1.8.75 1.68 1.02 1.5 1.27 1.26 1.48 1.03 1.67.75 1.8.45 1.9.15 1.94v10.74h-.95v-10.7l-.14-1.83-.42-1.75-.68-1.67-.95-1.54-1.17-1.38-1.38-1.17-1.54-.95-1.67-.7-1.75-.42-1.82-.14h-9.54v-.96h9.57zm-21.06.8h-19.1v-.96h19.1zm-28.67 0h-19.1v-.96h19.1zm-28.67 0h-19.1v-.96h19.1zm-28.66 0h-19.1v-.96h19.1zm-28.67 0h-19.1v-.96h19.1zm-28.67 0h-19.1v-.96h19.1zm-28.66 0h-19.12v-.96h19.12zm-28.67 0h-19.1v-.96h19.1zm-28.67 0h-19.1v-.96h19.1zm-28.67 0h-19.1v-.96h19.1zM2421 405.3l.13 1.82.42 1.75.7 1.68.94 1.54 1.16 1.36 1.38 1.18 1.54.94 1.67.7 1.76.42 1.83.14h9.54v.95h-9.58l-1.94-.16-1.9-.46-1.8-.75-1.68-1.02-1.5-1.26-1.26-1.5-1.03-1.66-.76-1.8-.45-1.92-.16-1.93V395h.95zm0-20.6h-.96v-20.6h.95zm0-30.9h-.96v-20.63h.95zm0-30.93h-.96v-20.6h.95zm0-30.92h-.96v-20.6h.95zm0-30.9h-.96v-20.62h.95zm-10.54-53.56l1.9.45 1.82.75 1.66 1.02 1.5 1.27 1.26 1.48 1.03 1.67.75 1.8.45 1.9.16 1.95v10.32h-.96v-10.28l-.15-1.83-.43-1.75-.7-1.67-.94-1.54-1.17-1.37-1.38-1.18-1.54-.95-1.67-.7-1.76-.42-1.8-.14h-11.6v-.96h11.63zM3016.97 570.56h-3.5v-.95h3.5z" stroke="#333" stroke-width=".05" fill="#333"/><path d="M2396.4 212.45l-14.27-4.63 14.26-4.64z" fill="#333"/><path d="M2396.87 213.1l-16.28-5.28 16.27-5.3zm-13.2-5.28l12.25 3.98v-7.97z" stroke="#333" stroke-width=".05" fill="#333"/><g><use xlink:href="#F" transform="matrix(1,0,0,1,2636.9781799697766,447.68500654238136) translate(0.0049999999999954525 24.739583333333336)"/><use xlink:href="#G" transform="matrix(1,0,0,1,2636.9781799697766,447.68500654238136) translate(81.645625 24.739583333333336)"/><use xlink:href="#H" transform="matrix(1,0,0,1,2636.9781799697766,447.68500654238136) translate(126.63260416666667 24.739583333333336)"/><use xlink:href="#I" transform="matrix(1,0,0,1,2636.9781799697766,447.68500654238136) translate(171.07270833333334 24.739583333333336)"/></g><path d="M2258.2 405.8l-.15 1.94-.46 1.9-.76 1.8-1.02 1.68-1.27 1.5-1.5 1.26-1.66 1.02-1.82.75-1.9.46-1.93.16h-10.22v-.95h10.18l1.83-.13 1.76-.43 1.66-.7 1.54-.93 1.38-1.17 1.17-1.37.95-1.54.7-1.67.4-1.76.15-1.83v-8.75h.95zm-32.88 12.46h-20.4v-.95h20.4zm-30.6 0h-20.4v-.95h20.4zm-30.6 0h-20.42v-.95h20.4zm-30.62 0h-20.4v-.95h20.4zm-320.04 0h-6.43v-.95h6.43zm-16.64 0h-20.4v-.95h20.4zm-30.6 0h-20.4v-.95h20.4zm-30.6 0h-10.2v-.95h10.2zm522.58-30h-.95v-17.52h.95zm0-26.28h-.95v-17.52h.95zm0-26.28h-.95v-17.52h.95zm0-26.3h-.95v-8.75h.95z" stroke="#333" stroke-width=".05" fill="#333"/><path d="M2257.72 300.15h.48v.52h-.95v-.53z" fill="#333"/><path stroke="#333" stroke-width=".05" fill="#333"/><path d="M1724.9 422.42l-14.26-4.63 14.27-4.65z" fill="#333"/><path d="M1725.38 423.07l-16.28-5.28 16.28-5.3zm-13.2-5.28l12.25 3.97v-7.97z" stroke="#333" stroke-width=".05" fill="#333"/><g><use xlink:href="#J" transform="matrix(1,0,0,1,1813.4611092673565,402.1595131587726) translate(0.0049999999999954525 24.739583333333336)"/><use xlink:href="#K" transform="matrix(1,0,0,1,1813.4611092673565,402.1595131587726) translate(96.50239583333334 24.739583333333336)"/><use xlink:href="#L" transform="matrix(1,0,0,1,1813.4611092673565,402.1595131587726) translate(155.21333333333334 24.739583333333336)"/><use xlink:href="#M" transform="matrix(1,0,0,1,1813.4611092673565,402.1595131587726) translate(255.18729166666668 24.739583333333336)"/></g><path d="M1106.53 586.9h172.2a6 6 0 0 1 6 6v35.3a6 6 0 0 0 6 6h172.23M1106.54 586.9h-3.5" stroke="#3a414a" fill="none"/><path d="M1463.46 634.2v.47h-.52v-.95h.53z" stroke="#3a414a" stroke-width=".05" fill="#3a414a"/><path d="M1709.52 908.07h33.5a6 6 0 0 1 6 6v201.12a6 6 0 0 0 6 6h604.03a6 6 0 0 0 6-6v-68.47" stroke="#3a414a" fill="none"/><path d="M1709.54 908.54h-.53l.02-.47v-.48h.52z" stroke="#3a414a" stroke-width=".05" fill="#3a414a"/><path d="M2365.05 1031.97l4.63 14.26h-9.27z" stroke="#3a414a" fill="#3a414a"/><path d="M3040 487.02c0 13.26-10.76 24.02-24.03 24.02-13.27 0-24.02-10.76-24.02-24.02 0-13.27 10.75-24.03 24.02-24.03S3040 473.74 3040 487z" stroke="#3a414a" stroke-width="4" fill="#fff"/><path d="M3015.97 511.04v61.26a16.58 16.58 0 0 0 3.84 10.6l60.2 72.27m-64.03-76.87l-64.03 76.87m0-120.1H3080" stroke="#3a414a" stroke-width="4" fill="none"/><path d="M2951.94 469a6 6 0 0 1 6-6H3074a6 6 0 0 1 6 6v202.17a6 6 0 0 1-6 6h-116.06a6 6 0 0 1-6-6z" fill="none"/><g><use xlink:href="#N" transform="matrix(1,0,0,1,2871.93970948791,655.1704750516494) translate(100.48958333333334 24.739583333333336)"/><use xlink:href="#O" transform="matrix(1,0,0,1,2871.93970948791,655.1704750516494) translate(84.20052083333334 55.98958333333334)"/></g><defs><path d="M1245-974c0 302-233 466-552 461H430V0H130v-1456h568c323 5 547 167 547 482zm-303 2c1-143-93-241-237-241H430v457h268c151 1 244-71 244-216" id="P"/><path d="M750-685c-1-124-48-182-173-182-85 0-146 33-184 98V0H104v-1536h289v572c77-92 173-138 289-138 235 0 357 136 357 409V0H750v-685" id="Q"/><path d="M416 0H126v-1082h290V0zM271-1212c-92 0-162-61-162-150s68-149 162-149c93 0 162 60 162 149s-70 150-162 150" id="R"/><path d="M529-185c94 0 168-33 168-114 0-35-18-63-53-83s-91-39-168-55C219-491 90-600 90-765c0-208 203-337 432-337 246 0 451 124 453 349H686c-2-91-62-143-165-143-86 0-151 41-153 117 0 32 16 57 46 77 63 43 257 69 335 100 151 60 229 153 229 291C978-13 554 93 282-28 162-81 60-190 56-344h274c5 106 86 159 199 159" id="S"/><path d="M750-692c-1-124-48-174-173-175-81 0-142 35-183 104V0H105v-1082h272l9 125c77-97 181-145 311-145 244 0 342 151 342 403V0H750v-692" id="T"/><path d="M505 20C221 18 69-239 69-549c0-302 153-553 438-553 119 0 211 41 277 122l12-102h262V-36c-8 305-208 458-520 462-160 1-335-76-403-170L263 80c72 81 159 121 262 121 172 1 260-107 243-294C701-18 614 20 505 20zm76-887c-165 0-223 147-223 339 0 172 66 314 221 314 88 0 151-33 189-99v-455c-39-66-101-99-187-99" id="U"/><g id="a"><use transform="matrix(0.028211805555555556,0,0,0.028211805555555556,0,0)" xlink:href="#P"/><use transform="matrix(0.028211805555555556,0,0,0.028211805555555556,37.26779513888889,0)" xlink:href="#Q"/><use transform="matrix(0.028211805555555556,0,0,0.028211805555555556,69.59852430555556,0)" xlink:href="#R"/><use transform="matrix(0.028211805555555556,0,0,0.028211805555555556,84.91753472222223,0)" xlink:href="#S"/><use transform="matrix(0.028211805555555556,0,0,0.028211805555555556,114.62456597222223,0)" xlink:href="#Q"/><use transform="matrix(0.028211805555555556,0,0,0.028211805555555556,146.95529513888889,0)" xlink:href="#R"/><use transform="matrix(0.028211805555555556,0,0,0.028211805555555556,162.27430555555554,0)" xlink:href="#T"/><use transform="matrix(0.028211805555555556,0,0,0.028211805555555556,194.63324652777777,0)" xlink:href="#U"/></g><path d="M130 0v-1456h448c435 14 673 299 665 762-5 285-130 500-319 606C822-31 708 0 581 0H130zm809-685c9-311-79-526-361-528H430v972h145c252-2 356-181 364-444" id="V"/><path d="M1031-175C952-60 797 20 609 20 287 20 60-206 72-543c12-330 180-559 505-559 309 0 482 214 477 537v118H365c15 134 115 234 263 234 111 0 198-40 261-121zM770-644c5-139-62-226-194-224-130 1-191 97-208 224h402" id="W"/><path d="M457-330c2 83 25 111 111 112 32 0 60-2 85-7V-6c-57 17-115 26-175 26-203 0-310-102-310-307v-583H10v-212h158v-266h289v266h185v212H457v540" id="X"/><path d="M355-556c-2 203 30 338 206 343 102 3 181-63 182-161h271C1001-128 821 17 566 20 242 24 66-212 66-554c0-320 184-548 498-548 262 0 451 167 450 423H743c-1-108-75-193-184-189-162 6-202 123-204 312" id="Y"/><path d="M579 20C257 20 58-214 66-551c8-331 182-551 511-551 324 0 514 231 514 572 0 319-198 550-512 550zm-2-888c-169 0-222 141-222 338 0 181 61 317 224 317 170 0 223-137 223-338 0-178-64-317-225-317" id="Z"/><g id="b"><use transform="matrix(0.028211805555555556,0,0,0.028211805555555556,0,0)" xlink:href="#V"/><use transform="matrix(0.028211805555555556,0,0,0.028211805555555556,37.54991319444444,0)" xlink:href="#W"/><use transform="matrix(0.028211805555555556,0,0,0.028211805555555556,68.78038194444444,0)" xlink:href="#X"/><use transform="matrix(0.028211805555555556,0,0,0.028211805555555556,88.30295138888889,0)" xlink:href="#W"/><use transform="matrix(0.028211805555555556,0,0,0.028211805555555556,119.53342013888889,0)" xlink:href="#Y"/><use transform="matrix(0.028211805555555556,0,0,0.028211805555555556,149.66362847222223,0)" xlink:href="#X"/><use transform="matrix(0.028211805555555556,0,0,0.028211805555555556,169.18619791666669,0)" xlink:href="#R"/><use transform="matrix(0.028211805555555556,0,0,0.028211805555555556,184.50520833333334,0)" xlink:href="#Z"/><use transform="matrix(0.028211805555555556,0,0,0.028211805555555556,217.17447916666669,0)" xlink:href="#T"/></g><path d="M658-217c127 0 227-49 227-165 0-57-21-98-60-130-79-64-370-142-463-196-162-95-248-210-248-361 0-280 246-403 537-407 213-3 383 84 467 216 45 69 68 147 68 234H886c0-139-96-211-240-211-129 0-232 55-232 169 0 47 24 87 72 119s117 62 210 90c171 51 295 115 373 191s117 171 117 284c-2 272-237 411-528 404C331 13 78-135 69-458h301c0 161 96 241 288 241" id="aa"/><path d="M515-409l200-673h310L590 168c-66 202-236 321-472 250V199c127 7 198-15 230-107l34-89L3-1082h311" id="ab"/><path d="M741-689c-2-124-40-177-163-178-82 0-141 34-178 102V0H111v-1082h271l9 121c77-94 180-141 311-141 139 0 235 55 287 165 76-110 184-165 325-165 249 0 348 151 348 411V0h-290v-690c-2-123-39-176-163-177-87 0-147 41-180 124l1 743H741v-689" id="ac"/><g id="c"><use transform="matrix(0.028211805555555556,0,0,0.028211805555555556,0,0)" xlink:href="#aa"/><use transform="matrix(0.028211805555555556,0,0,0.028211805555555556,35.51866319444444,0)" xlink:href="#ab"/><use transform="matrix(0.028211805555555556,0,0,0.028211805555555556,64.52039930555556,0)" xlink:href="#S"/><use transform="matrix(0.028211805555555556,0,0,0.028211805555555556,94.22743055555556,0)" xlink:href="#X"/><use transform="matrix(0.028211805555555556,0,0,0.028211805555555556,113.75,0)" xlink:href="#W"/><use transform="matrix(0.028211805555555556,0,0,0.028211805555555556,144.98046875,0)" xlink:href="#ac"/></g><path fill="#fff" d="M658-217c127 0 227-49 227-165 0-57-21-98-60-130-79-64-370-142-463-196-162-95-248-210-248-361 0-280 246-403 537-407 213-3 383 84 467 216 45 69 68 147 68 234H886c0-139-96-211-240-211-129 0-232 55-232 169 0 47 24 87 72 119s117 62 210 90c171 51 295 115 373 191s117 171 117 284c-2 272-237 411-528 404C331 13 78-135 69-458h301c0 161 96 241 288 241" id="ad"/><path fill="#fff" d="M632-800l303-656h328L785-528V0H480v-528L2-1456h329" id="ae"/><path fill="#fff" d="M1226-1213H780V0H480v-1213H40v-243h1186v243" id="af"/><path fill="#fff" d="M1006-631H430v390h676V0H130v-1456h974v243H430v347h576v235" id="ag"/><path fill="#fff" d="M522-1456L896-400l372-1056h394V0h-301c-7-379 15-728 30-1085L998 0H792L400-1084c15 357 37 705 30 1084H130v-1456h392" id="ah"/><g id="d"><use transform="matrix(0.015190972222222224,0,0,0.015190972222222224,0,0)" xlink:href="#ad"/><use transform="matrix(0.015190972222222224,0,0,0.015190972222222224,19.12543402777778,0)" xlink:href="#ae"/><use transform="matrix(0.015190972222222224,0,0,0.015190972222222224,38.11414930555556,0)" xlink:href="#ad"/><use transform="matrix(0.015190972222222224,0,0,0.015190972222222224,57.239583333333336,0)" xlink:href="#af"/><use transform="matrix(0.015190972222222224,0,0,0.015190972222222224,76.48654513888889,0)" xlink:href="#ag"/><use transform="matrix(0.015190972222222224,0,0,0.015190972222222224,93.98654513888889,0)" xlink:href="#ah"/></g><path fill="#fff" d="M1209-1016c0 219-100 334-260 407l315 595V0H942L669-533H430V0H130v-1456h541c318-3 538 141 538 440zm-300 24c-1-144-85-221-238-221H430v437h242c144 2 238-77 237-216" id="ai"/><path fill="#fff" d="M668-361l330-1095h334L825 0H512L7-1456h333" id="aj"/><g id="e"><use transform="matrix(0.015190972222222224,0,0,0.015190972222222224,0,0)" xlink:href="#ad"/><use transform="matrix(0.015190972222222224,0,0,0.015190972222222224,19.12543402777778,0)" xlink:href="#ag"/><use transform="matrix(0.015190972222222224,0,0,0.015190972222222224,36.62543402777778,0)" xlink:href="#ai"/><use transform="matrix(0.015190972222222224,0,0,0.015190972222222224,56.19140625,0)" xlink:href="#aj"/><use transform="matrix(0.015190972222222224,0,0,0.015190972222222224,76.53211805555556,0)" xlink:href="#ag"/><use transform="matrix(0.015190972222222224,0,0,0.015190972222222224,94.03211805555556,0)" xlink:href="#ai"/></g><path d="M552-1102c254-4 435 134 435 383v469c1 103 15 180 43 233V0H738c-13-26-23-58-29-97C639-19 548 20 436 20 238 20 64-113 68-304c5-258 212-357 496-357h133c11-137-29-227-160-227-90 0-156 45-156 131H92c15-231 213-342 460-345zM357-325c0 76 61 124 142 124 88 0 168-45 198-105v-186H589c-152 2-232 51-232 167" id="ak"/><g id="f"><use transform="matrix(0.013020833333333334,0,0,0.013020833333333334,0,0)" xlink:href="#aa"/><use transform="matrix(0.013020833333333334,0,0,0.013020833333333334,16.393229166666668,0)" xlink:href="#Y"/><use transform="matrix(0.013020833333333334,0,0,0.013020833333333334,30.299479166666668,0)" xlink:href="#ak"/><use transform="matrix(0.013020833333333334,0,0,0.013020833333333334,44.59635416666667,0)" xlink:href="#T"/></g><path d="M416-495c-3 181 88 274 258 274 169 0 257-89 257-266v-969h301v959c3 324-227 517-558 517-328 0-557-188-558-506v-970h300v961" id="al"/><path d="M1209-1016c0 219-100 334-260 407l315 595V0H942L669-533H430V0H130v-1456h541c318-3 538 141 538 440zm-300 24c-1-144-85-221-238-221H430v437h242c144 2 238-77 237-216" id="am"/><path d="M430-241h637V0H130v-1456h300v1215" id="an"/><g id="g"><use transform="matrix(0.013020833333333334,0,0,0.013020833333333334,0,0)" xlink:href="#al"/><use transform="matrix(0.013020833333333334,0,0,0.013020833333333334,17.552083333333336,0)" xlink:href="#am"/><use transform="matrix(0.013020833333333334,0,0,0.013020833333333334,34.5703125,0)" xlink:href="#an"/></g><path d="M488 20C204 20 66-234 66-549c0-305 140-551 424-553 105 0 192 39 261 118v-552h290V0H780l-14-115C694-25 601 20 488 20zM355-528c0 176 51 314 207 314 89 0 152-38 189-113v-427c-36-75-98-113-187-113-139 0-209 113-209 339" id="ao"/><g id="h"><use transform="matrix(0.013020833333333334,0,0,0.013020833333333334,0,0)" xlink:href="#aa"/><use transform="matrix(0.013020833333333334,0,0,0.013020833333333334,16.393229166666668,0)" xlink:href="#W"/><use transform="matrix(0.013020833333333334,0,0,0.013020833333333334,30.807291666666668,0)" xlink:href="#T"/><use transform="matrix(0.013020833333333334,0,0,0.013020833333333334,45.7421875,0)" xlink:href="#ao"/><use transform="matrix(0.013020833333333334,0,0,0.013020833333333334,60.76822916666667,0)" xlink:href="#S"/></g><g id="i"><use transform="matrix(0.013020833333333334,0,0,0.013020833333333334,0,0)" xlink:href="#al"/><use transform="matrix(0.013020833333333334,0,0,0.013020833333333334,17.552083333333336,0)" xlink:href="#am"/><use transform="matrix(0.013020833333333334,0,0,0.013020833333333334,34.5703125,0)" xlink:href="#an"/></g><g id="j"><use transform="matrix(0.013020833333333334,0,0,0.013020833333333334,0,0)" xlink:href="#X"/><use transform="matrix(0.013020833333333334,0,0,0.013020833333333334,8.619791666666668,0)" xlink:href="#Z"/></g><path d="M522-1456L896-400l372-1056h394V0h-301c-7-379 15-728 30-1085L998 0H792L400-1084c15 357 37 705 30 1084H130v-1456h392" id="ap"/><path d="M416 0H126v-1536h290V0" id="aq"/><g id="k"><use transform="matrix(0.013020833333333334,0,0,0.013020833333333334,0,0)" xlink:href="#ap"/><use transform="matrix(0.013020833333333334,0,0,0.013020833333333334,23.359375,0)" xlink:href="#Z"/><use transform="matrix(0.013020833333333334,0,0,0.013020833333333334,38.4375,0)" xlink:href="#ao"/><use transform="matrix(0.013020833333333334,0,0,0.013020833333333334,53.46354166666667,0)" xlink:href="#W"/><use transform="matrix(0.013020833333333334,0,0,0.013020833333333334,67.87760416666667,0)" xlink:href="#aq"/></g><path d="M719-811c-143-24-279 1-319 103V0H111v-1082h273l8 129c74-124 180-175 331-136" id="ar"/><path d="M516-353l201-729h302L654 0H378L13-1082h302" id="as"/><g id="l"><use transform="matrix(0.013020833333333334,0,0,0.013020833333333334,0,0)" xlink:href="#am"/><use transform="matrix(0.013020833333333334,0,0,0.013020833333333334,17.018229166666668,0)" xlink:href="#W"/><use transform="matrix(0.013020833333333334,0,0,0.013020833333333334,31.432291666666668,0)" xlink:href="#X"/><use transform="matrix(0.013020833333333334,0,0,0.013020833333333334,40.442708333333336,0)" xlink:href="#ar"/><use transform="matrix(0.013020833333333334,0,0,0.013020833333333334,50.169270833333336,0)" xlink:href="#R"/><use transform="matrix(0.013020833333333334,0,0,0.013020833333333334,57.239583333333336,0)" xlink:href="#W"/><use transform="matrix(0.013020833333333334,0,0,0.013020833333333334,71.484375,0)" xlink:href="#as"/><use transform="matrix(0.013020833333333334,0,0,0.013020833333333334,84.79166666666667,0)" xlink:href="#W"/></g><g id="m"><use transform="matrix(0.013020833333333334,0,0,0.013020833333333334,0,0)" xlink:href="#aa"/><use transform="matrix(0.013020833333333334,0,0,0.013020833333333334,16.393229166666668,0)" xlink:href="#Y"/><use transform="matrix(0.013020833333333334,0,0,0.013020833333333334,30.299479166666668,0)" xlink:href="#ak"/><use transform="matrix(0.013020833333333334,0,0,0.013020833333333334,44.59635416666667,0)" xlink:href="#T"/></g><path d="M663-1102c295 0 422 250 422 571 0 300-141 549-420 551-109 0-198-38-265-114v510H111v-1498h268l10 106c70-84 161-126 274-126zm133 550c0-175-53-315-209-315-91 0-153 35-187 104v443c35 71 98 107 189 107 138 0 207-113 207-339" id="at"/><g id="n"><use transform="matrix(0.013020833333333334,0,0,0.013020833333333334,0,0)" xlink:href="#am"/><use transform="matrix(0.013020833333333334,0,0,0.013020833333333334,17.018229166666668,0)" xlink:href="#W"/><use transform="matrix(0.013020833333333334,0,0,0.013020833333333334,31.432291666666668,0)" xlink:href="#at"/><use transform="matrix(0.013020833333333334,0,0,0.013020833333333334,46.4453125,0)" xlink:href="#Z"/><use transform="matrix(0.013020833333333334,0,0,0.013020833333333334,61.5234375,0)" xlink:href="#ar"/><use transform="matrix(0.013020833333333334,0,0,0.013020833333333334,71.90104166666666,0)" xlink:href="#X"/><use transform="matrix(0.013020833333333334,0,0,0.013020833333333334,80.91145833333333,0)" xlink:href="#S"/></g><g id="o"><use transform="matrix(0.013020833333333334,0,0,0.013020833333333334,0,0)" xlink:href="#al"/><use transform="matrix(0.013020833333333334,0,0,0.013020833333333334,17.552083333333336,0)" xlink:href="#S"/><use transform="matrix(0.013020833333333334,0,0,0.013020833333333334,31.263020833333336,0)" xlink:href="#W"/><use transform="matrix(0.013020833333333334,0,0,0.013020833333333334,45.677083333333336,0)" xlink:href="#ar"/></g><path d="M1212-428C1211-131 1004 0 696 0H130v-1456h510c318-1 539 108 539 399 0 155-89 264-208 308 141 33 242 151 241 321zM687-241c132 2 225-65 225-190 0-133-69-203-207-203H430v393h257zm192-786c0-145-86-186-239-186H430v367h222c151-3 227-63 227-181" id="au"/><g id="p"><use transform="matrix(0.013020833333333334,0,0,0.013020833333333334,0,0)" xlink:href="#V"/><use transform="matrix(0.013020833333333334,0,0,0.013020833333333334,17.330729166666668,0)" xlink:href="#ak"/><use transform="matrix(0.013020833333333334,0,0,0.013020833333333334,31.627604166666668,0)" xlink:href="#X"/><use transform="matrix(0.013020833333333334,0,0,0.013020833333333334,40.638020833333336,0)" xlink:href="#ak"/><use transform="matrix(0.013020833333333334,0,0,0.013020833333333334,54.934895833333336,0)" xlink:href="#au"/><use transform="matrix(0.013020833333333334,0,0,0.013020833333333334,71.953125,0)" xlink:href="#ak"/><use transform="matrix(0.013020833333333334,0,0,0.013020833333333334,86.25,0)" xlink:href="#S"/><use transform="matrix(0.013020833333333334,0,0,0.013020833333333334,99.9609375,0)" xlink:href="#W"/></g><g id="q"><use transform="matrix(0.013020833333333334,0,0,0.013020833333333334,0,0)" xlink:href="#am"/><use transform="matrix(0.013020833333333334,0,0,0.013020833333333334,17.018229166666668,0)" xlink:href="#W"/><use transform="matrix(0.013020833333333334,0,0,0.013020833333333334,31.432291666666668,0)" xlink:href="#Y"/><use transform="matrix(0.013020833333333334,0,0,0.013020833333333334,45.33854166666667,0)" xlink:href="#W"/><use transform="matrix(0.013020833333333334,0,0,0.013020833333333334,59.75260416666667,0)" xlink:href="#R"/><use transform="matrix(0.013020833333333334,0,0,0.013020833333333334,66.82291666666667,0)" xlink:href="#as"/><use transform="matrix(0.013020833333333334,0,0,0.013020833333333334,80.13020833333334,0)" xlink:href="#W"/></g><g id="r"><use transform="matrix(0.013020833333333334,0,0,0.013020833333333334,0,0)" xlink:href="#P"/><use transform="matrix(0.013020833333333334,0,0,0.013020833333333334,17.200520833333336,0)" xlink:href="#Q"/><use transform="matrix(0.013020833333333334,0,0,0.013020833333333334,32.122395833333336,0)" xlink:href="#R"/><use transform="matrix(0.013020833333333334,0,0,0.013020833333333334,39.192708333333336,0)" xlink:href="#S"/><use transform="matrix(0.013020833333333334,0,0,0.013020833333333334,52.903645833333336,0)" xlink:href="#Q"/><use transform="matrix(0.013020833333333334,0,0,0.013020833333333334,67.82552083333334,0)" xlink:href="#R"/><use transform="matrix(0.013020833333333334,0,0,0.013020833333333334,74.89583333333334,0)" xlink:href="#T"/><use transform="matrix(0.013020833333333334,0,0,0.013020833333333334,89.83072916666667,0)" xlink:href="#U"/></g><path d="M952-300H426L326 0H7l542-1456h278L1372 0h-319zM507-543h364l-183-545" id="av"/><g id="s"><use transform="matrix(0.013020833333333334,0,0,0.013020833333333334,0,0)" xlink:href="#av"/><use transform="matrix(0.013020833333333334,0,0,0.013020833333333334,17.942708333333336,0)" xlink:href="#aq"/><use transform="matrix(0.013020833333333334,0,0,0.013020833333333334,25.013020833333336,0)" xlink:href="#W"/><use transform="matrix(0.013020833333333334,0,0,0.013020833333333334,39.427083333333336,0)" xlink:href="#ar"/></g><g id="t"><use transform="matrix(0.013020833333333334,0,0,0.013020833333333334,0,0)" xlink:href="#ap"/><use transform="matrix(0.013020833333333334,0,0,0.013020833333333334,23.359375,0)" xlink:href="#ak"/><use transform="matrix(0.013020833333333334,0,0,0.013020833333333334,37.65625,0)" xlink:href="#Y"/><use transform="matrix(0.013020833333333334,0,0,0.013020833333333334,51.5625,0)" xlink:href="#Q"/><use transform="matrix(0.013020833333333334,0,0,0.013020833333333334,66.484375,0)" xlink:href="#R"/><use transform="matrix(0.013020833333333334,0,0,0.013020833333333334,73.5546875,0)" xlink:href="#T"/><use transform="matrix(0.013020833333333334,0,0,0.013020833333333334,88.48958333333333,0)" xlink:href="#W"/></g><g id="u"><use transform="matrix(0.013020833333333334,0,0,0.013020833333333334,0,0)" xlink:href="#an"/><use transform="matrix(0.013020833333333334,0,0,0.013020833333333334,14.440104166666668,0)" xlink:href="#W"/><use transform="matrix(0.013020833333333334,0,0,0.013020833333333334,28.854166666666668,0)" xlink:href="#ak"/><use transform="matrix(0.013020833333333334,0,0,0.013020833333333334,43.15104166666667,0)" xlink:href="#ar"/><use transform="matrix(0.013020833333333334,0,0,0.013020833333333334,52.87760416666667,0)" xlink:href="#T"/><use transform="matrix(0.013020833333333334,0,0,0.013020833333333334,67.8125,0)" xlink:href="#R"/><use transform="matrix(0.013020833333333334,0,0,0.013020833333333334,74.8828125,0)" xlink:href="#T"/><use transform="matrix(0.013020833333333334,0,0,0.013020833333333334,89.81770833333333,0)" xlink:href="#U"/></g><g id="v"><use transform="matrix(0.013020833333333334,0,0,0.013020833333333334,0,0)" xlink:href="#ap"/><use transform="matrix(0.013020833333333334,0,0,0.013020833333333334,23.359375,0)" xlink:href="#Z"/><use transform="matrix(0.013020833333333334,0,0,0.013020833333333334,38.4375,0)" xlink:href="#ao"/><use transform="matrix(0.013020833333333334,0,0,0.013020833333333334,53.46354166666667,0)" xlink:href="#W"/><use transform="matrix(0.013020833333333334,0,0,0.013020833333333334,67.87760416666667,0)" xlink:href="#aq"/></g><path d="M463 20c-241-1-359-147-359-393v-709h289v699c0 113 51 169 154 169 98 0 165-34 202-102v-766h290V0H767l-8-110C688-23 589 20 463 20" id="aw"/><g id="w"><use transform="matrix(0.013020833333333334,0,0,0.013020833333333334,0,0)" xlink:href="#ap"/><use transform="matrix(0.013020833333333334,0,0,0.013020833333333334,23.359375,0)" xlink:href="#ak"/><use transform="matrix(0.013020833333333334,0,0,0.013020833333333334,37.65625,0)" xlink:href="#T"/><use transform="matrix(0.013020833333333334,0,0,0.013020833333333334,52.591145833333336,0)" xlink:href="#aw"/><use transform="matrix(0.013020833333333334,0,0,0.013020833333333334,67.51302083333334,0)" xlink:href="#ak"/><use transform="matrix(0.013020833333333334,0,0,0.013020833333333334,81.80989583333334,0)" xlink:href="#aq"/></g><g id="x"><use transform="matrix(0.013020833333333334,0,0,0.013020833333333334,0,0)" xlink:href="#am"/><use transform="matrix(0.013020833333333334,0,0,0.013020833333333334,17.018229166666668,0)" xlink:href="#W"/><use transform="matrix(0.013020833333333334,0,0,0.013020833333333334,31.432291666666668,0)" xlink:href="#at"/><use transform="matrix(0.013020833333333334,0,0,0.013020833333333334,46.4453125,0)" xlink:href="#Z"/><use transform="matrix(0.013020833333333334,0,0,0.013020833333333334,61.5234375,0)" xlink:href="#ar"/><use transform="matrix(0.013020833333333334,0,0,0.013020833333333334,71.90104166666666,0)" xlink:href="#X"/></g><g id="y"><use transform="matrix(0.013020833333333334,0,0,0.013020833333333334,0,0)" xlink:href="#am"/><use transform="matrix(0.013020833333333334,0,0,0.013020833333333334,17.018229166666668,0)" xlink:href="#Z"/><use transform="matrix(0.013020833333333334,0,0,0.013020833333333334,32.09635416666667,0)" xlink:href="#Z"/><use transform="matrix(0.013020833333333334,0,0,0.013020833333333334,47.17447916666667,0)" xlink:href="#X"/></g><g id="z"><use transform="matrix(0.013020833333333334,0,0,0.013020833333333334,0,0)" xlink:href="#av"/><use transform="matrix(0.013020833333333334,0,0,0.013020833333333334,17.942708333333336,0)" xlink:href="#Y"/><use transform="matrix(0.013020833333333334,0,0,0.013020833333333334,31.848958333333336,0)" xlink:href="#Y"/><use transform="matrix(0.013020833333333334,0,0,0.013020833333333334,45.755208333333336,0)" xlink:href="#W"/><use transform="matrix(0.013020833333333334,0,0,0.013020833333333334,60.169270833333336,0)" xlink:href="#S"/><use transform="matrix(0.013020833333333334,0,0,0.013020833333333334,73.88020833333334,0)" xlink:href="#S"/></g><g id="A"><use transform="matrix(0.013020833333333334,0,0,0.013020833333333334,0,0)" xlink:href="#V"/><use transform="matrix(0.013020833333333334,0,0,0.013020833333333334,17.330729166666668,0)" xlink:href="#ak"/><use transform="matrix(0.013020833333333334,0,0,0.013020833333333334,31.627604166666668,0)" xlink:href="#X"/><use transform="matrix(0.013020833333333334,0,0,0.013020833333333334,40.638020833333336,0)" xlink:href="#ak"/><use transform="matrix(0.013020833333333334,0,0,0.013020833333333334,54.934895833333336,0)" xlink:href="#au"/><use transform="matrix(0.013020833333333334,0,0,0.013020833333333334,71.953125,0)" xlink:href="#ak"/><use transform="matrix(0.013020833333333334,0,0,0.013020833333333334,86.25,0)" xlink:href="#S"/><use transform="matrix(0.013020833333333334,0,0,0.013020833333333334,99.9609375,0)" xlink:href="#W"/></g><g id="B"><use transform="matrix(0.013020833333333334,0,0,0.013020833333333334,0,0)" xlink:href="#al"/><use transform="matrix(0.013020833333333334,0,0,0.013020833333333334,17.552083333333336,0)" xlink:href="#at"/><use transform="matrix(0.013020833333333334,0,0,0.013020833333333334,32.56510416666667,0)" xlink:href="#ao"/><use transform="matrix(0.013020833333333334,0,0,0.013020833333333334,47.59114583333334,0)" xlink:href="#ak"/><use transform="matrix(0.013020833333333334,0,0,0.013020833333333334,61.88802083333335,0)" xlink:href="#X"/><use transform="matrix(0.013020833333333334,0,0,0.013020833333333334,70.89843750000001,0)" xlink:href="#W"/></g><g id="C"><use transform="matrix(0.013020833333333334,0,0,0.013020833333333334,0,0)" xlink:href="#V"/><use transform="matrix(0.013020833333333334,0,0,0.013020833333333334,17.330729166666668,0)" xlink:href="#ak"/><use transform="matrix(0.013020833333333334,0,0,0.013020833333333334,31.627604166666668,0)" xlink:href="#X"/><use transform="matrix(0.013020833333333334,0,0,0.013020833333333334,40.638020833333336,0)" xlink:href="#ak"/><use transform="matrix(0.013020833333333334,0,0,0.013020833333333334,54.934895833333336,0)" xlink:href="#au"/><use transform="matrix(0.013020833333333334,0,0,0.013020833333333334,71.953125,0)" xlink:href="#ak"/><use transform="matrix(0.013020833333333334,0,0,0.013020833333333334,86.25,0)" xlink:href="#S"/><use transform="matrix(0.013020833333333334,0,0,0.013020833333333334,99.9609375,0)" xlink:href="#W"/></g><path d="M135 0v-1490h997v253H440v360h640v249H440v375h694V0H135" id="ax"/><path d="M42 0l360-574-338-544h324c72 124 151 261 209 394 58-134 140-271 215-394h318L785-570 1146 0H824c-79-136-169-280-234-425C528-278 439-134 360 0H42" id="ay"/><path d="M683-1118v229H474v562c0 71 29 104 102 104 23 0 73-7 95-13l43 225C647 9 580 16 520 16 296 16 174-96 174-301v-588H20v-229h154v-266h300v266h209" id="az"/><path d="M633 22C291 22 81-200 81-553c0-345 210-579 537-579 292 0 525 185 525 567v84H378c7 183 109 277 260 277 105 0 184-46 216-132l272 51C1071-99 893 22 633 22zM380-669h474c-15-146-94-237-233-237-143 0-229 99-241 237" id="aA"/><path d="M428-647V0H128v-1118h283l4 231c63-156 176-245 348-245 232 0 384 159 384 421V0H847v-659c0-139-76-222-202-222-128 0-217 86-217 234" id="aB"/><path d="M572 22C302 22 117-98 78-306l279-48c29 105 101 156 224 156 114 0 185-48 185-115 0-118-228-130-337-155-215-49-322-150-322-317 0-215 187-347 470-347 265 0 424 116 466 298l-266 47c-24-76-87-130-196-130-98 0-174 46-174 113 0 56 38 95 144 117l201 40c216 44 320 143 320 302 0 220-207 367-500 367" id="aC"/><path d="M128 0v-1118h300V0H128zm150-1264c-91 0-165-68-165-154 0-85 74-154 165-154 90 0 165 69 165 154 0 86-75 154-165 154" id="aD"/><path d="M628 22C291 22 81-210 81-554c0-346 210-578 547-578 336 0 547 232 547 578 0 344-211 576-547 576zm0-236c160 0 242-146 242-341 0-197-82-341-242-341S387-753 387-555c0 195 81 341 241 341" id="aE"/><g id="D"><use transform="matrix(0.008173828125000001,0,0,0.008173828125000001,0,0)" xlink:href="#ax"/><use transform="matrix(0.008173828125000001,0,0,0.008173828125000001,10.1682421875,0)" xlink:href="#ay"/><use transform="matrix(0.008173828125000001,0,0,0.008173828125000001,20.115791015625,0)" xlink:href="#az"/><use transform="matrix(0.008173828125000001,0,0,0.008173828125000001,26.082685546875,0)" xlink:href="#aA"/><use transform="matrix(0.008173828125000001,0,0,0.008173828125000001,36.054755859375,0)" xlink:href="#aB"/><use transform="matrix(0.008173828125000001,0,0,0.008173828125000001,46.47638671875,0)" xlink:href="#aC"/><use transform="matrix(0.008173828125000001,0,0,0.008173828125000001,55.851767578125,0)" xlink:href="#aD"/><use transform="matrix(0.008173828125000001,0,0,0.008173828125000001,60.3882421875,0)" xlink:href="#aE"/><use transform="matrix(0.008173828125000001,0,0,0.008173828125000001,70.6545703125,0)" xlink:href="#aB"/></g><path d="M135 0v-1490h581c339 0 533 210 533 503 0 295-197 500-540 500H440V0H135zm305-733h220c186 0 274-104 274-254s-88-251-275-251H440v505" id="aF"/><g id="E"><use transform="matrix(0.008173828125000001,0,0,0.008173828125000001,0,0)" xlink:href="#aF"/><use transform="matrix(0.008173828125000001,0,0,0.008173828125000001,10.70771484375,0)" xlink:href="#aE"/><use transform="matrix(0.008173828125000001,0,0,0.008173828125000001,20.974042968750002,0)" xlink:href="#aD"/><use transform="matrix(0.008173828125000001,0,0,0.008173828125000001,25.510517578125004,0)" xlink:href="#aB"/><use transform="matrix(0.008173828125000001,0,0,0.008173828125000001,35.932148437500004,0)" xlink:href="#az"/><use transform="matrix(0.008173828125000001,0,0,0.008173828125000001,41.939912109374994,0)" xlink:href="#aC"/></g><path d="M1226-1213H780V0H480v-1213H40v-243h1186v243" id="aG"/><g id="F"><use transform="matrix(0.013020833333333334,0,0,0.013020833333333334,0,0)" xlink:href="#aG"/><use transform="matrix(0.013020833333333334,0,0,0.013020833333333334,15.65104166666667,0)" xlink:href="#ar"/><use transform="matrix(0.013020833333333334,0,0,0.013020833333333334,24.98697916666667,0)" xlink:href="#ak"/><use transform="matrix(0.013020833333333334,0,0,0.013020833333333334,39.28385416666667,0)" xlink:href="#R"/><use transform="matrix(0.013020833333333334,0,0,0.013020833333333334,46.35416666666667,0)" xlink:href="#T"/><use transform="matrix(0.013020833333333334,0,0,0.013020833333333334,61.2890625,0)" xlink:href="#S"/></g><g id="G"><use transform="matrix(0.013020833333333334,0,0,0.013020833333333334,0,0)" xlink:href="#X"/><use transform="matrix(0.013020833333333334,0,0,0.013020833333333334,9.010416666666668,0)" xlink:href="#Q"/><use transform="matrix(0.013020833333333334,0,0,0.013020833333333334,23.932291666666668,0)" xlink:href="#W"/></g><g id="H"><use transform="matrix(0.013020833333333334,0,0,0.013020833333333334,0,0)" xlink:href="#ap"/><use transform="matrix(0.013020833333333334,0,0,0.013020833333333334,23.359375,0)" xlink:href="#an"/></g><g id="I"><use transform="matrix(0.013020833333333334,0,0,0.013020833333333334,0,0)" xlink:href="#ac"/><use transform="matrix(0.013020833333333334,0,0,0.013020833333333334,23.0859375,0)" xlink:href="#Z"/><use transform="matrix(0.013020833333333334,0,0,0.013020833333333334,38.1640625,0)" xlink:href="#ao"/><use transform="matrix(0.013020833333333334,0,0,0.013020833333333334,53.19010416666667,0)" xlink:href="#W"/><use transform="matrix(0.013020833333333334,0,0,0.013020833333333334,67.60416666666667,0)" xlink:href="#aq"/></g><g id="J"><use transform="matrix(0.013020833333333334,0,0,0.013020833333333334,0,0)" xlink:href="#am"/><use transform="matrix(0.013020833333333334,0,0,0.013020833333333334,17.018229166666668,0)" xlink:href="#W"/><use transform="matrix(0.013020833333333334,0,0,0.013020833333333334,31.432291666666668,0)" xlink:href="#S"/><use transform="matrix(0.013020833333333334,0,0,0.013020833333333334,45.14322916666667,0)" xlink:href="#aw"/><use transform="matrix(0.013020833333333334,0,0,0.013020833333333334,60.06510416666667,0)" xlink:href="#aq"/><use transform="matrix(0.013020833333333334,0,0,0.013020833333333334,67.13541666666667,0)" xlink:href="#X"/><use transform="matrix(0.013020833333333334,0,0,0.013020833333333334,76.14583333333334,0)" xlink:href="#S"/></g><g id="K"><use transform="matrix(0.013020833333333334,0,0,0.013020833333333334,0,0)" xlink:href="#S"/><use transform="matrix(0.013020833333333334,0,0,0.013020833333333334,13.7109375,0)" xlink:href="#W"/><use transform="matrix(0.013020833333333334,0,0,0.013020833333333334,28.125,0)" xlink:href="#T"/><use transform="matrix(0.013020833333333334,0,0,0.013020833333333334,43.059895833333336,0)" xlink:href="#X"/></g><g id="L"><use transform="matrix(0.013020833333333334,0,0,0.013020833333333334,0,0)" xlink:href="#X"/><use transform="matrix(0.013020833333333334,0,0,0.013020833333333334,9.010416666666668,0)" xlink:href="#Q"/><use transform="matrix(0.013020833333333334,0,0,0.013020833333333334,23.932291666666668,0)" xlink:href="#ar"/><use transform="matrix(0.013020833333333334,0,0,0.013020833333333334,33.19010416666667,0)" xlink:href="#Z"/><use transform="matrix(0.013020833333333334,0,0,0.013020833333333334,48.26822916666667,0)" xlink:href="#aw"/><use transform="matrix(0.013020833333333334,0,0,0.013020833333333334,63.19010416666667,0)" xlink:href="#U"/><use transform="matrix(0.013020833333333334,0,0,0.013020833333333334,78.41145833333334,0)" xlink:href="#Q"/></g><path d="M449 0H149v-1456h300V0" id="aH"/><g id="M"><use transform="matrix(0.013020833333333334,0,0,0.013020833333333334,0,0)" xlink:href="#av"/><use transform="matrix(0.013020833333333334,0,0,0.013020833333333334,17.942708333333336,0)" xlink:href="#P"/><use transform="matrix(0.013020833333333334,0,0,0.013020833333333334,35.14322916666667,0)" xlink:href="#aH"/></g><path d="M202 125H-13l536-1581h215" id="aI"/><g id="N"><use transform="matrix(0.013020833333333334,0,0,0.013020833333333334,0,0)" xlink:href="#av"/><use transform="matrix(0.013020833333333334,0,0,0.013020833333333334,17.942708333333336,0)" xlink:href="#ao"/><use transform="matrix(0.013020833333333334,0,0,0.013020833333333334,32.96875,0)" xlink:href="#ac"/><use transform="matrix(0.013020833333333334,0,0,0.013020833333333334,56.0546875,0)" xlink:href="#R"/><use transform="matrix(0.013020833333333334,0,0,0.013020833333333334,63.125,0)" xlink:href="#T"/><use transform="matrix(0.013020833333333334,0,0,0.013020833333333334,78.05989583333333,0)" xlink:href="#aI"/></g><g id="O"><use transform="matrix(0.013020833333333334,0,0,0.013020833333333334,0,0)" xlink:href="#V"/><use transform="matrix(0.013020833333333334,0,0,0.013020833333333334,17.330729166666668,0)" xlink:href="#W"/><use transform="matrix(0.013020833333333334,0,0,0.013020833333333334,31.575520833333336,0)" xlink:href="#as"/><use transform="matrix(0.013020833333333334,0,0,0.013020833333333334,44.8828125,0)" xlink:href="#W"/><use transform="matrix(0.013020833333333334,0,0,0.013020833333333334,59.296875,0)" xlink:href="#aq"/><use transform="matrix(0.013020833333333334,0,0,0.013020833333333334,66.3671875,0)" xlink:href="#Z"/><use transform="matrix(0.013020833333333334,0,0,0.013020833333333334,81.4453125,0)" xlink:href="#at"/><use transform="matrix(0.013020833333333334,0,0,0.013020833333333334,96.45833333333333,0)" xlink:href="#W"/><use transform="matrix(0.013020833333333334,0,0,0.013020833333333334,110.87239583333334,0)" xlink:href="#ar"/></g></defs></g></svg>