<svg xmlns="http://www.w3.org/2000/svg" xmlns:xlink="http://www.w3.org/1999/xlink" xmlns:lucid="lucid" width="1641.65" height="906.73"><g transform="translate(-378.34611541148286 -1960)" lucid:page-tab-id="0_0"><path d="M1113.27 1968a8 8 0 0 1 8-8H2012a8 8 0 0 1 8 8v890.73a8 8 0 0 1-8 8h-890.73a8 8 0 0 1-8-8z" stroke="#000" stroke-opacity="0" fill="#edf5ff"/><use xlink:href="#a" transform="matrix(1,0,0,1,1121.2664393800387,1968) translate(259.4425925925926 23.146666666666672)"/><use xlink:href="#b" transform="matrix(1,0,0,1,1121.2664393800387,1968) translate(389.3211111111111 23.146666666666672)"/><use xlink:href="#c" transform="matrix(1,0,0,1,1121.2664393800387,1968) translate(528.7637037037036 23.146666666666672)"/><path d="M1518.4 2126.33a8 8 0 0 1 8-8h426.76a8 8 0 0 1 8 8v597.36a8 8 0 0 1-8 8H1526.4a8 8 0 0 1-8-8z" stroke="#333" fill-opacity="0"/><path d="M1518.4 2059.08a8 8 0 0 1 8-8h216.18a8 8 0 0 1 8 8v39.25a8 8 0 0 1-8 8H1526.4a8 8 0 0 1-8-8z" fill="#333"/><use xlink:href="#d" transform="matrix(1,0,0,1,1530.4027111464045,2063.081113446979) translate(0 25.114583333333336)"/><use xlink:href="#e" transform="matrix(1,0,0,1,1530.4027111464045,2063.081113446979) translate(110.55989583333334 25.114583333333336)"/><path d="M1323.45 2135.63c0 31.96-34.55 57.87-77.17 57.87-42.62 0-77.17-25.9-77.17-57.87s34.56-57.88 77.18-57.88c42.62 0 77.17 25.9 77.17 57.88z" stroke="#ff80df" stroke-width="2" fill="#4d9eff"/><use xlink:href="#f" transform="matrix(1,0,0,1,1169.1119366212497,2077.7499635583818) translate(30.147144097222217 64.11631944444444)"/><use xlink:href="#g" transform="matrix(1,0,0,1,1169.1119366212497,2077.7499635583818) translate(84.81294270833334 64.11631944444444)"/><path d="M1324.95 2135.63h9.17m9.16 0h9.17l1.88.14 1.83.44 1.74.73 1.6 1 1.43 1.2 1.23 1.44.98 1.6.72 1.75.44 1.83.15 1.88v13.87l.15 1.88.44 1.83.72 1.75.98 1.6 1.22 1.44 1.44 1.2 1.6 1 1.74.7 1.83.45 1.88.15h9.17m9.18 0h18.35m9.18 0h18.35m9.17 0h18.35m9.18 0h18.35m9.17 0h18.36m9.17 0h9.18l1.88.15 1.84.44 1.74.7 1.6 1 1.43 1.2 1.22 1.45.98 1.6.72 1.74.44 1.82.15 1.88v13.3l.16 1.88.43 1.83.7 1.75 1 1.6 1.22 1.43 1.43 1.23 1.6 1 1.75.7 1.83.45 1.88.15h11.62" stroke="#333" fill="none"/><path d="M1324.96 2136.1h-.53l.02-.46v-.5h.5z" stroke="#333" stroke-width=".05" fill="#333"/><path d="M1592 2210.8l-14.28 4.63v-9.27z" stroke="#333" fill="#333"/><use xlink:href="#h" transform="matrix(1,0,0,1,1372.4495946044296,2133.4998980544656) translate(0.0049999999999954525 20.616319444444443)"/><use xlink:href="#i" transform="matrix(1,0,0,1,1372.4495946044296,2133.4998980544656) translate(67.6048263888889 20.616319444444443)"/><use xlink:href="#j" transform="matrix(1,0,0,1,1372.4495946044296,2133.4998980544656) translate(113.98069444444445 20.616319444444443)"/><use xlink:href="#k" transform="matrix(1,0,0,1,1372.4495946044296,2133.4998980544656) translate(139.2628125 20.616319444444443)"/><path d="M1323.45 2717.88c0 31.96-34.55 57.87-77.17 57.87-42.62 0-77.17-25.9-77.17-57.87s34.56-57.88 77.18-57.88c42.62 0 77.17 25.9 77.17 57.88z" stroke="#ff80df" stroke-width="2" fill="#4d9eff"/><use xlink:href="#l" transform="matrix(1,0,0,1,1169.1119366212497,2660) translate(9.844626736111119 53.24131944444444)"/><use xlink:href="#m" transform="matrix(1,0,0,1,1169.1119366212497,2660) translate(95.00087673611111 53.24131944444444)"/><use xlink:href="#n" transform="matrix(1,0,0,1,1169.1119366212497,2660) translate(38.31684895833333 79.28298611111111)"/><path d="M443.26 2359.92c0 11-8.92 19.92-19.92 19.92-11 0-19.92-8.92-19.92-19.92 0-11 8.92-19.92 19.92-19.92 11 0 19.92 8.92 19.92 19.92z" stroke="#3a414a" stroke-width="4" fill="#fff"/><path d="M423.34 2379.84v49.77a19.5 19.5 0 0 0 3.37 10.97l39.98 58.78m-43.34-63.74L380 2499.36m0-99.6h86.68" stroke="#3a414a" stroke-width="4" fill="none"/><path d="M380 2346a6 6 0 0 1 6-6h74.68a6 6 0 0 1 6 6v169.35a6 6 0 0 1-6 6H386a6 6 0 0 1-6-6z" fill="none"/><use xlink:href="#o" transform="matrix(1,0,0,1,300,2499.3467121239923) translate(95.79817708333333 24.739583333333336)"/><path d="M1826.1 2152.92h115.77v115.76H1826.1V2152.9z" stroke="#fff" stroke-opacity="0" stroke-width="2" fill="#3b48cc"/><path d="M1887.94 2232.02h-2.02c-.84 0-1.53-.67-1.53-1.53v-34.37c0-.86.68-1.54 1.52-1.54h18.24c.46 0 .84.18 1.15.52l4.63 5.57-2.17 1.98-4.3-5.02h-16.06v31.4h.54z" stroke="#fff" stroke-opacity="0" stroke-width="2" fill="#fff"/><path d="M1916.12 2237.6h-24.94c-.84 0-1.54-.67-1.54-1.53v-34.36.02c0-.87.7-1.54 1.54-1.54h19.24c.42 0 .75.15 1.06.45l5.7 5.76c.28.3.42.63.42 1.04v28.67c-.02.83-.67 1.47-1.48 1.5zm-23.46-2.88h21.98v-26.68l-4.84-4.83h-17.14z" stroke="#fff" stroke-opacity="0" stroke-width="2" fill="#fff"/><path d="M1916.12 2210.46h-7.23c-.87 0-1.56-.7-1.56-1.54v-7.26h2.96v5.76h5.76zM1902.33 2229.55h-.98c-.78.02-1.46-.3-1.97-.9-.64-.93-.85-1.96-.64-3.1-.1-2.73-1.63-3.17-1.63-3.17-.8-.3-1.2-1.2-.9-2 .18-.43.48-.73.9-.9.14 0 1.55-.57 1.55-3.28 0-1.62.76-3.42 2.56-3.5h1.03v3h-.5v.5c.12 1.8-.4 3.37-1.54 4.75 1.14 1.4 1.65 2.94 1.54 4.75v.27c-.02.23-.02.43 0 .67h.66zM1906.48 2229.55v-2.96h.57c.02-.2.02-.33 0-.5-.12-1.8.4-3.37 1.54-4.76-1.15-1.38-1.66-2.95-1.55-4.74v-.27c.02-.24.02-.42 0-.66h-.67v-2.97h.98c.78-.02 1.46.3 1.97.9.63.94.84 1.97.63 3.08 0 2.62 1.55 3.1 1.55 3.18.68.2 1.1.84 1.08 1.55 0 .68-.44 1.24-1.1 1.4-.12 0-1.55.6-1.55 3.3 0 1.62-.75 3.43-2.56 3.48zM1875.86 2194.9c-12.34 0-25.48-3.8-25.48-10.8 0-7 13.1-10.8 25.48-10.8s25.48 3.8 25.48 10.8c0 7-13.15 10.8-25.48 10.8zm0-18.7c-13.25 0-22.53 4.14-22.53 7.88 0 3.7 9.28 7.84 22.53 7.84 13.25 0 22.52-4.13 22.52-7.84 0-3.74-9.27-7.9-22.52-7.9z" stroke="#fff" stroke-opacity="0" stroke-width="2" fill="#fff"/><path d="M1898.36 2184.07h2.96v9.35h-2.96v-9.35zM1875.86 2248.36c-12.34 0-25.48-3.8-25.48-10.8v-53.5h2.95v53.44c0 3.73 9.28 7.9 22.53 7.9 13.25 0 22.52-4.17 22.52-7.9h2.96c0 7.07-13.15 10.86-25.48 10.86z" stroke="#fff" stroke-opacity="0" stroke-width="2" fill="#fff"/><path d="M1875.9 2213.6c-14.5 0-25.42-4.64-25.42-10.8h2.98c0 3.7 9.27 7.86 22.43 7.86 2.36 0 4.34-.1 6.67-.38l.32 2.95c-2.47.27-4.54.37-7 .36zM1875.9 2231.96c-14.5 0-25.42-4.64-25.42-10.8h2.98c0 3.7 9.27 7.86 22.45 7.86 2.35 0 4.32-.1 6.65-.37l.33 3c-2.43.24-4.54.32-6.97.3z" stroke="#fff" stroke-opacity="0" stroke-width="2" fill="#fff"/><use xlink:href="#p" transform="matrix(1,0,0,1,1796.1132991478664,2277.675254679136) translate(37.4753086419753 17.77777777777778)"/><path d="M1323.45 2343.85c0 31.96-34.55 57.87-77.17 57.87-42.62 0-77.17-25.9-77.17-57.87s34.56-57.88 77.18-57.88c42.62 0 77.17 25.9 77.17 57.88z" stroke="#ff80df" stroke-width="2" fill="#4d9eff"/><use xlink:href="#q" transform="matrix(1,0,0,1,1169.1119366212497,2285.9707150428762) translate(38.680347222222224 53.24131944444444)"/><use xlink:href="#r" transform="matrix(1,0,0,1,1169.1119366212497,2285.9707150428762) translate(11.927960069444461 79.28298611111111)"/><use xlink:href="#s" transform="matrix(1,0,0,1,1169.1119366212497,2285.9707150428762) translate(102.90018229166667 79.28298611111111)"/><path d="M1748.94 2210.8c0 31.96-34.55 57.88-77.16 57.88-42.62 0-77.17-25.92-77.17-57.88 0-31.97 34.56-57.88 77.18-57.88 42.62 0 77.16 25.9 77.16 57.88z" stroke="#ff80df" stroke-width="2" fill="#4d9eff"/><use xlink:href="#t" transform="matrix(1,0,0,1,1594.606858138514,2152.92203417446) translate(34.61133680555555 38.74131944444444)"/><use xlink:href="#u" transform="matrix(1,0,0,1,1594.606858138514,2152.92203417446) translate(34.14475694444444 64.78298611111111)"/><use xlink:href="#v" transform="matrix(1,0,0,1,1594.606858138514,2152.92203417446) translate(46.118498263888895 90.82465277777777)"/><path d="M1323.45 2546.4c0 31.98-34.55 57.9-77.17 57.9-42.62 0-77.17-25.92-77.17-57.9 0-31.95 34.56-57.86 77.18-57.86 42.62 0 77.17 25.9 77.17 57.88z" stroke="#ff80df" stroke-width="2" fill="#4d9eff"/><use xlink:href="#w" transform="matrix(1,0,0,1,1169.1119366212497,2488.538850926059) translate(5.054913194444447 64.11631944444444)"/><use xlink:href="#x" transform="matrix(1,0,0,1,1169.1119366212497,2488.538850926059) translate(84.03711805555555 64.11631944444444)"/><path d="M1884.95 2625.58c0 47.95-60.46 86.82-135.04 86.82-74.57 0-135.04-38.87-135.04-86.82 0-47.95 60.47-86.8 135.05-86.8 74.6 0 135.05 38.85 135.05 86.8zm-270.1 0h270.1" stroke="#333" fill="#cfe4ff"/><use xlink:href="#y" transform="matrix(1,0,0,1,1655.3773554102709,2556.1290855990806) translate(9.029947916666657 42.595486111111114)"/><use xlink:href="#z" transform="matrix(1,0,0,1,1655.3773554102709,2556.1290855990806) translate(85.65755208333333 42.595486111111114)"/><use xlink:href="#A" transform="matrix(1,0,0,1,1655.3773554102709,2649.5810179018863) translate(21.486545138888886 26.09548611111111)"/><use xlink:href="#B" transform="matrix(1,0,0,1,1655.3773554102709,2649.5810179018863) translate(101.08723958333333 26.09548611111111)"/><use xlink:href="#C" transform="matrix(1,0,0,1,1614.8637282336342,2625.5810179018863) translate(62.67499999999998 15.6)"/><use xlink:href="#D" transform="matrix(1,0,0,1,1614.8637282336342,2625.5810179018863) translate(153.475 15.6)"/><path d="M1571.3 2546.64l.87.54.77.66.66.77.53.88.4.93.23 1 .08 1v67.16l.07.9.2.83.34.8.45.73.56.66.66.55.74.45.8.33.84.2.88.08h17.6v.96h-17.63l-1-.08-1-.24-.93-.4-.86-.52-.78-.66-.66-.77-.53-.88-.4-.94-.23-1-.08-.98v-67.17l-.08-.88-.2-.84-.33-.8-.47-.73-.56-.66-.66-.55-.73-.46-.48-.2v-1.03zm-246.35.25v-.96h49.8v.95z" stroke="#3a414a" stroke-width=".05" fill="#3a414a"/><path d="M1324.96 2546.9h-.53l.02-.47v-.5h.5z" fill="#3a414a"/><path stroke="#3a414a" stroke-width=".05" fill="#3a414a"/><path d="M1612.75 2625.58l-14.27 4.64v-9.27z" fill="#3a414a"/><path d="M1614.28 2625.58l-16.27 5.3v-10.6zm-15.33 3.98l12.26-3.98-12.25-3.98z" stroke="#3a414a" stroke-width=".05" fill="#3a414a"/><use xlink:href="#E" transform="matrix(1,0,0,1,1374.73819638686,2533.26441951173) translate(0.0049999999999954525 20.822482638888886)"/><use xlink:href="#F" transform="matrix(1,0,0,1,1374.73819638686,2533.26441951173) translate(85.23470920138887 20.822482638888886)"/><use xlink:href="#G" transform="matrix(1,0,0,1,1374.73819638686,2533.26441951173) translate(102.8571050347222 20.822482638888886)"/><path d="M1749.9 2537.77v-79.82a6 6 0 0 1 6-6H1878a6 6 0 0 0 6-6v-160.9" stroke="#3a414a" fill="none"/><path d="M1750.38 2538.28h-.94v-.53h.95z" stroke="#3a414a" stroke-width=".05" fill="#3a414a"/><path d="M1884 2270.3l4.63 14.26h-9.28z" stroke="#3a414a" fill="#3a414a"/><path d="M830.54 2429.54h197.53a6 6 0 0 0 6-6v-281.9a6 6 0 0 1 6-6h127.54" stroke="#3a414a" fill="none"/><path d="M830.55 2430h-.5v-.82h.5zM1168.1 2135.6l.02.5h-.52v-.95h.53z" stroke="#3a414a" stroke-width=".05" fill="#3a414a"/><path d="M830.54 2429.54h150.3a6 6 0 0 1 6 6v276.34a6 6 0 0 0 6 6h174.77" stroke="#3a414a" fill="none"/><path d="M830.55 2430h-.5v-.82h.5zM1168.1 2717.86l.02.5h-.52v-.96h.53z" stroke="#3a414a" stroke-width=".05" fill="#3a414a"/><path d="M1167.6 2343.85h-33.5a6 6 0 0 1-6-6v-24.6a6 6 0 0 0-6-6H786a6 6 0 0 0-6 6v52.94" stroke="#3a414a" fill="none"/><path d="M1168.1 2343.84l.02.48h-.52v-.95h.53z" stroke="#3a414a" stroke-width=".05" fill="#3a414a"/><path d="M780 2380.96l-4.63-14.27h9.26z" stroke="#3a414a" fill="#3a414a"/><path d="M1672.25 2331.87l-.15 1.93-.46 1.9-.75 1.8-1.03 1.68-1.27 1.5-1.5 1.26-1.66 1.02-1.8.75-1.9.47-1.95.15h-9.7v-.95h9.66l1.82-.14 1.76-.42 1.67-.7 1.55-.93 1.37-1.17 1.18-1.38.94-1.54.7-1.67.42-1.75.14-1.82v-10.26h.95zm-31.8 12.45h-19.33v-.95h19.33zm-279.86 0h-.44v-.95h.43zm-10.1 0h-9.67v-.95h9.67zm260.95 0H1609v-.95h2.45zm60.8-33.03h-.95v-20.57h.95zm0-30.85h-.95v-10.27h.95z" stroke="#333" stroke-width=".05" fill="#333"/><path d="M1671.76 2269.68h.5v.5h-.96v-.52z" fill="#333"/><path stroke="#333" stroke-width=".05" fill="#333"/><path d="M1340.33 2348.48l-14.26-4.63 14.26-4.64z" fill="#333"/><path d="M1340.8 2349.14l-16.27-5.3 16.28-5.28zm-13.2-5.3l12.26 4v-7.97z" stroke="#333" stroke-width=".05" fill="#333"/><g><use xlink:href="#H" transform="matrix(1,0,0,1,1360.587740754787,2330.8264919618805) translate(0.0049999999999954525 20.616319444444443)"/><use xlink:href="#I" transform="matrix(1,0,0,1,1360.587740754787,2330.8264919618805) translate(80.41949652777778 20.616319444444443)"/><use xlink:href="#J" transform="matrix(1,0,0,1,1360.587740754787,2330.8264919618805) translate(129.34527777777777 20.616319444444443)"/><use xlink:href="#K" transform="matrix(1,0,0,1,1360.587740754787,2330.8264919618805) translate(212.65690972222222 20.616319444444443)"/></g><path d="M830.54 2429.54h162.54a6 6 0 0 1 6 6v104.88a6 6 0 0 0 6 6h162.53" stroke="#3a414a" fill="none"/><path d="M830.55 2430h-.5v-.82h.5zM1168.1 2546.4l.02.5h-.52v-.96h.53z" stroke="#3a414a" stroke-width=".05" fill="#3a414a"/><path d="M1324.95 2717.88h33.5a6 6 0 0 1 6 6v59.68a6 6 0 0 0 6 6h363.33a6 6 0 0 0 6-6v-35" stroke="#3a414a" fill="none"/><path d="M1324.96 2718.35h-.53l.02-.46v-.5h.5z" stroke="#3a414a" stroke-width=".05" fill="#3a414a"/><path d="M1739.78 2733.8l4.64 14.27h-9.28z" stroke="#3a414a" fill="#3a414a"/><path d="M748.76 2409.13H799c1.4 0 2.12.7 2.12 2.13v50.37c0 1.42-.7 2.13-2.13 2.13h-50.24c-1.4 0-2.12-.7-2.12-2.13v-50.37c0-1.43.7-2.14 2.13-2.14z" stroke="#000" stroke-opacity="0" fill="url(#L)"/><path d="M835.7 2370.54H784.2c-1.2 0-2.14.94-2.14 2.1v9.4c0 1.17.93 2.1 2.14 2.1h37.9c2.4 0 4.3 1.94 4.3 4.3v38.62c0 1.18.93 2.1 2.1 2.1h9.38c1.2 0 2.14-.92 2.14-2.1v-52.25c0-2.35-1.9-4.28-4.3-4.28z" stroke="#000" stroke-opacity="0" fill="#773adc"/><path d="M817.6 2438.2v34.02c0 2.12-1.75 3.92-3.85 3.92H736.3c-2.1 0-3.87-1.8-3.87-3.92v-73.33c0-2.13 1.77-3.93 3.86-3.93h38.83c1.2 0 2.1-.95 2.1-2.12v-8.16c0-1.17-.9-2.13-2.1-2.13h-51.28c-2.1 0-3.85 1.7-3.85 3.93v98.12c0 2.12 1.76 3.92 3.85 3.92H826.2c2.08 0 3.84-1.7 3.84-3.92v-46.4c0-1.18-1-2.13-2.1-2.13h-8.13-.1c-1.1 0-2.1.94-2.1 2.1z" stroke="#000" stroke-opacity="0" fill="#b3b3b3"/><path d="M830.04 2429.12h-1.56c-1.18 0-2.15-.94-2.15-2.06v-38.6c0-2.43-1.86-4.3-4.2-4.3h-38c-.88-.1-1.66-.65-1.95-1.6h-7.04c1.08 0 2.06.95 2.06 2.16v8.14c0 1.2-.98 2.14-2.06 2.14h-38.87c-2.15 0-3.9 1.7-3.9 3.93v73.18c0 2.16 1.75 3.93 3.9 3.93h77.46c2.15 0 3.9-1.78 3.9-3.92v-33.92c0-1.2.98-2.15 2.15-2.15h8.1c1.18 0 2.16.94 2.16 2.15z" stroke="#000" stroke-opacity="0" fill-opacity="0"/><g><use xlink:href="#M" transform="matrix(1,0,0,1,690,2497.538850926059) translate(35.16697530864199 17.955555555555552)"/></g><path d="M425.87 2430.67h146.25a.57.57 0 0 0 .57-.56.57.57 0 0 1 .55-.56H719.5M425.9 2430.67h-3.53" stroke="#3a414a" fill="none"/><path d="M720 2430h-.5v-.94h.5z" stroke="#3a414a" stroke-width=".05" fill="#3a414a"/><defs><path d="M24-248c93 1 206-16 204 79-1 75-69 88-152 82V0H24v-248zm52 121c47 0 100 7 100-41 0-47-54-39-100-39v80" id="N"/><path d="M114-157C55-157 80-60 75 0H25v-261h50l-1 109c12-26 28-41 61-42 86-1 58 113 63 194h-50c-7-57 23-157-34-157" id="O"/><path d="M25-224v-37h50v37H25zM25 0v-190h50V0H25" id="P"/><path d="M137-138c1-29-70-34-71-4 15 46 118 7 119 86 1 83-164 76-172 9l43-7c4 19 20 25 44 25 33 8 57-30 24-41C81-84 22-81 20-136c-2-80 154-74 161-7" id="Q"/><path d="M135-194c87-1 58 113 63 194h-50c-7-57 23-157-34-157-59 0-34 97-39 157H25l-1-190h47c2 12-1 28 3 38 12-26 28-41 61-42" id="R"/><path d="M195-6C206 82 75 100 31 46c-4-6-6-13-8-21l49-6c3 16 16 24 34 25 40 0 42-37 40-79-11 22-30 35-61 35-53 0-70-43-70-97 0-56 18-96 73-97 30 0 46 14 59 34l2-30h47zm-90-29c32 0 41-27 41-63 0-35-9-62-40-62-32 0-39 29-40 63 0 36 9 62 39 62" id="S"/><g id="a"><use transform="matrix(0.08037037037037038,0,0,0.08037037037037038,0,0)" xlink:href="#N"/><use transform="matrix(0.08037037037037038,0,0,0.08037037037037038,19.28888888888889,0)" xlink:href="#O"/><use transform="matrix(0.08037037037037038,0,0,0.08037037037037038,36.89,0)" xlink:href="#P"/><use transform="matrix(0.08037037037037038,0,0,0.08037037037037038,44.92703703703704,0)" xlink:href="#Q"/><use transform="matrix(0.08037037037037038,0,0,0.08037037037037038,61.001111111111115,0)" xlink:href="#O"/><use transform="matrix(0.08037037037037038,0,0,0.08037037037037038,78.60222222222222,0)" xlink:href="#P"/><use transform="matrix(0.08037037037037038,0,0,0.08037037037037038,86.63925925925926,0)" xlink:href="#R"/><use transform="matrix(0.08037037037037038,0,0,0.08037037037037038,104.24037037037037,0)" xlink:href="#S"/></g><path d="M24-248c120-7 223 5 221 122C244-46 201 0 124 0H24v-248zM76-40c74 7 117-18 117-86 0-67-45-88-117-82v168" id="T"/><path d="M185-48c-13 30-37 53-82 52C43 2 14-33 14-96s30-98 90-98c62 0 83 45 84 108H66c0 31 8 55 39 56 18 0 30-7 34-22zm-45-69c5-46-57-63-70-21-2 6-4 13-4 21h74" id="U"/><path d="M115-3C79 11 28 4 28-45v-112H4v-33h27l15-45h31v45h36v33H77v99c-1 23 16 31 38 25v30" id="V"/><path d="M190-63c-7 42-38 67-86 67-59 0-84-38-90-98-12-110 154-137 174-36l-49 2c-2-19-15-32-35-32-30 0-35 28-38 64-6 74 65 87 74 30" id="W"/><path d="M110-194c64 0 96 36 96 99 0 64-35 99-97 99-61 0-95-36-95-99 0-62 34-99 96-99zm-1 164c35 0 45-28 45-65 0-40-10-65-43-65-34 0-45 26-45 65 0 36 10 65 43 65" id="X"/><g id="b"><use transform="matrix(0.08037037037037038,0,0,0.08037037037037038,0,0)" xlink:href="#T"/><use transform="matrix(0.08037037037037038,0,0,0.08037037037037038,20.815925925925928,0)" xlink:href="#U"/><use transform="matrix(0.08037037037037038,0,0,0.08037037037037038,36.89,0)" xlink:href="#V"/><use transform="matrix(0.08037037037037038,0,0,0.08037037037037038,46.45407407407408,0)" xlink:href="#U"/><use transform="matrix(0.08037037037037038,0,0,0.08037037037037038,62.52814814814816,0)" xlink:href="#W"/><use transform="matrix(0.08037037037037038,0,0,0.08037037037037038,78.60222222222222,0)" xlink:href="#V"/><use transform="matrix(0.08037037037037038,0,0,0.08037037037037038,88.1662962962963,0)" xlink:href="#P"/><use transform="matrix(0.08037037037037038,0,0,0.08037037037037038,96.20333333333333,0)" xlink:href="#X"/><use transform="matrix(0.08037037037037038,0,0,0.08037037037037038,113.80444444444444,0)" xlink:href="#R"/></g><path d="M169-182c-1-43-94-46-97-3 18 66 151 10 154 114 3 95-165 93-204 36-6-8-10-19-12-30l50-8c3 46 112 56 116 5-17-69-150-10-154-114-4-87 153-88 188-35 5 8 8 18 10 28" id="Y"/><path d="M123 10C108 53 80 86 19 72V37c35 8 53-11 59-39L3-190h52l48 148c12-52 28-100 44-148h51" id="Z"/><path d="M220-157c-53 9-28 100-34 157h-49v-107c1-27-5-49-29-50C55-147 81-57 75 0H25l-1-190h47c2 12-1 28 3 38 10-53 101-56 108 0 13-22 24-43 59-42 82 1 51 116 57 194h-49v-107c-1-25-5-48-29-50" id="aa"/><g id="c"><use transform="matrix(0.08037037037037038,0,0,0.08037037037037038,0,0)" xlink:href="#Y"/><use transform="matrix(0.08037037037037038,0,0,0.08037037037037038,19.28888888888889,0)" xlink:href="#Z"/><use transform="matrix(0.08037037037037038,0,0,0.08037037037037038,35.36296296296297,0)" xlink:href="#Q"/><use transform="matrix(0.08037037037037038,0,0,0.08037037037037038,51.437037037037044,0)" xlink:href="#V"/><use transform="matrix(0.08037037037037038,0,0,0.08037037037037038,61.00111111111112,0)" xlink:href="#U"/><use transform="matrix(0.08037037037037038,0,0,0.08037037037037038,77.0751851851852,0)" xlink:href="#aa"/></g><path fill="#fff" d="M658-217c127 0 227-49 227-165 0-57-21-98-60-130-79-64-370-142-463-196-162-95-248-210-248-361 0-280 246-403 537-407 213-3 383 84 467 216 45 69 68 147 68 234H886c0-139-96-211-240-211-129 0-232 55-232 169 0 47 24 87 72 119s117 62 210 90c171 51 295 115 373 191s117 171 117 284c-2 272-237 411-528 404C331 13 78-135 69-458h301c0 161 96 241 288 241" id="ab"/><path fill="#fff" d="M632-800l303-656h328L785-528V0H480v-528L2-1456h329" id="ac"/><path fill="#fff" d="M1226-1213H780V0H480v-1213H40v-243h1186v243" id="ad"/><path fill="#fff" d="M1006-631H430v390h676V0H130v-1456h974v243H430v347h576v235" id="ae"/><path fill="#fff" d="M522-1456L896-400l372-1056h394V0h-301c-7-379 15-728 30-1085L998 0H792L400-1084c15 357 37 705 30 1084H130v-1456h392" id="af"/><g id="d"><use transform="matrix(0.013020833333333334,0,0,0.013020833333333334,0,0)" xlink:href="#ab"/><use transform="matrix(0.013020833333333334,0,0,0.013020833333333334,16.393229166666668,0)" xlink:href="#ac"/><use transform="matrix(0.013020833333333334,0,0,0.013020833333333334,32.669270833333336,0)" xlink:href="#ab"/><use transform="matrix(0.013020833333333334,0,0,0.013020833333333334,49.0625,0)" xlink:href="#ad"/><use transform="matrix(0.013020833333333334,0,0,0.013020833333333334,65.55989583333334,0)" xlink:href="#ae"/><use transform="matrix(0.013020833333333334,0,0,0.013020833333333334,80.55989583333334,0)" xlink:href="#af"/></g><path fill="#fff" d="M1209-1016c0 219-100 334-260 407l315 595V0H942L669-533H430V0H130v-1456h541c318-3 538 141 538 440zm-300 24c-1-144-85-221-238-221H430v437h242c144 2 238-77 237-216" id="ag"/><path fill="#fff" d="M668-361l330-1095h334L825 0H512L7-1456h333" id="ah"/><g id="e"><use transform="matrix(0.013020833333333334,0,0,0.013020833333333334,0,0)" xlink:href="#ab"/><use transform="matrix(0.013020833333333334,0,0,0.013020833333333334,16.393229166666668,0)" xlink:href="#ae"/><use transform="matrix(0.013020833333333334,0,0,0.013020833333333334,31.393229166666668,0)" xlink:href="#ag"/><use transform="matrix(0.013020833333333334,0,0,0.013020833333333334,48.1640625,0)" xlink:href="#ah"/><use transform="matrix(0.013020833333333334,0,0,0.013020833333333334,65.59895833333334,0)" xlink:href="#ae"/><use transform="matrix(0.013020833333333334,0,0,0.013020833333333334,80.59895833333334,0)" xlink:href="#ag"/></g><path d="M631-137c179 0 314-70 314-231 0-71-25-127-75-166s-141-77-272-115c-165-47-285-106-360-175s-112-154-112-255c0-245 231-397 495-397 206 0 369 89 449 218 43 68 65 142 65 223H942c0-184-129-283-321-283-172 0-299 76-301 236 0 59 26 109 76 150s135 78 256 113c205 59 345 116 436 256 35 53 50 119 50 193-2 256-231 398-507 390C333 12 90-129 80-422h193c0 187 160 285 358 285" id="ai"/><path d="M277-555c0 244 77 420 297 424 127 2 249-93 255-210h175C980-127 805 20 574 20 258 20 81-222 92-562c11-319 164-533 481-540 237-5 426 165 431 392H829c-7-133-115-242-256-240-209 4-296 166-296 395" id="aj"/><path d="M561-1102c238-4 403 126 403 351v498c0 99 13 178 38 237V0H808c-11-21-19-59-26-114C696-25 593 20 474 20c-199 0-368-130-365-320 4-251 214-359 490-356h180v-85c-1-135-86-212-229-212-115 0-232 67-233 171H131c20-205 206-316 430-320zM294-326c0 117 90 185 207 185 122 0 239-75 278-162v-222H634c-227 0-340 66-340 199" id="ak"/><path d="M589-945c-131 0-219 81-264 174V0H140v-1082h175l6 136c83-104 191-156 324-156 229 0 346 129 346 387V0H806v-716c-2-153-65-229-217-229" id="al"/><g id="f"><use transform="matrix(0.010850694444444444,0,0,0.010850694444444444,0,0)" xlink:href="#ai"/><use transform="matrix(0.010850694444444444,0,0,0.010850694444444444,13.18359375,0)" xlink:href="#aj"/><use transform="matrix(0.010850694444444444,0,0,0.010850694444444444,24.815538194444443,0)" xlink:href="#ak"/><use transform="matrix(0.010850694444444444,0,0,0.010850694444444444,36.90321180555556,0)" xlink:href="#al"/></g><path d="M665-137c214 0 337-121 336-332v-987h193v990c-3 300-218 486-529 486-309 0-526-181-525-484v-992h190v986c-1 210 123 333 335 333" id="am"/><path d="M1161-1018c0 201-122 330-278 388l342 618V0h-206L703-589H361V0H168v-1456h482c310-2 511 139 511 438zm-193 0c0-187-120-280-313-280H361v552h295c179 3 313-101 312-272" id="an"/><path d="M362-157h690V0H169v-1456h193v1299" id="ao"/><g id="g"><use transform="matrix(0.010850694444444444,0,0,0.010850694444444444,0,0)" xlink:href="#am"/><use transform="matrix(0.010850694444444444,0,0,0.010850694444444444,14.409722222222221,0)" xlink:href="#an"/><use transform="matrix(0.010850694444444444,0,0,0.010850694444444444,28.092447916666664,0)" xlink:href="#ao"/></g><path d="M658-217c127 0 227-49 227-165 0-57-21-98-60-130-79-64-370-142-463-196-162-95-248-210-248-361 0-280 246-403 537-407 213-3 383 84 467 216 45 69 68 147 68 234H886c0-139-96-211-240-211-129 0-232 55-232 169 0 47 24 87 72 119s117 62 210 90c171 51 295 115 373 191s117 171 117 284c-2 272-237 411-528 404C331 13 78-135 69-458h301c0 161 96 241 288 241" id="ap"/><path d="M1031-175C952-60 797 20 609 20 287 20 60-206 72-543c12-330 180-559 505-559 309 0 482 214 477 537v118H365c15 134 115 234 263 234 111 0 198-40 261-121zM770-644c5-139-62-226-194-224-130 1-191 97-208 224h402" id="aq"/><path d="M750-692c-1-124-48-174-173-175-81 0-142 35-183 104V0H105v-1082h272l9 125c77-97 181-145 311-145 244 0 342 151 342 403V0H750v-692" id="ar"/><path d="M488 20C204 20 66-234 66-549c0-305 140-551 424-553 105 0 192 39 261 118v-552h290V0H780l-14-115C694-25 601 20 488 20zM355-528c0 176 51 314 207 314 89 0 152-38 189-113v-427c-36-75-98-113-187-113-139 0-209 113-209 339" id="as"/><path d="M529-185c94 0 168-33 168-114 0-35-18-63-53-83s-91-39-168-55C219-491 90-600 90-765c0-208 203-337 432-337 246 0 451 124 453 349H686c-2-91-62-143-165-143-86 0-151 41-153 117 0 32 16 57 46 77 63 43 257 69 335 100 151 60 229 153 229 291C978-13 554 93 282-28 162-81 60-190 56-344h274c5 106 86 159 199 159" id="at"/><g id="h"><use transform="matrix(0.010850694444444444,0,0,0.010850694444444444,0,0)" xlink:href="#ap"/><use transform="matrix(0.010850694444444444,0,0,0.010850694444444444,13.661024305555555,0)" xlink:href="#aq"/><use transform="matrix(0.010850694444444444,0,0,0.010850694444444444,25.67274305555556,0)" xlink:href="#ar"/><use transform="matrix(0.010850694444444444,0,0,0.010850694444444444,38.118489583333336,0)" xlink:href="#as"/><use transform="matrix(0.010850694444444444,0,0,0.010850694444444444,50.64019097222223,0)" xlink:href="#at"/></g><path d="M416-495c-3 181 88 274 258 274 169 0 257-89 257-266v-969h301v959c3 324-227 517-558 517-328 0-557-188-558-506v-970h300v961" id="au"/><path d="M1209-1016c0 219-100 334-260 407l315 595V0H942L669-533H430V0H130v-1456h541c318-3 538 141 538 440zm-300 24c-1-144-85-221-238-221H430v437h242c144 2 238-77 237-216" id="av"/><path d="M430-241h637V0H130v-1456h300v1215" id="aw"/><g id="i"><use transform="matrix(0.010850694444444444,0,0,0.010850694444444444,0,0)" xlink:href="#au"/><use transform="matrix(0.010850694444444444,0,0,0.010850694444444444,14.62673611111111,0)" xlink:href="#av"/><use transform="matrix(0.010850694444444444,0,0,0.010850694444444444,28.80859375,0)" xlink:href="#aw"/></g><path d="M457-330c2 83 25 111 111 112 32 0 60-2 85-7V-6c-57 17-115 26-175 26-203 0-310-102-310-307v-583H10v-212h158v-266h289v266h185v212H457v540" id="ax"/><path d="M579 20C257 20 58-214 66-551c8-331 182-551 511-551 324 0 514 231 514 572 0 319-198 550-512 550zm-2-888c-169 0-222 141-222 338 0 181 61 317 224 317 170 0 223-137 223-338 0-178-64-317-225-317" id="ay"/><g id="j"><use transform="matrix(0.010850694444444444,0,0,0.010850694444444444,0,0)" xlink:href="#ax"/><use transform="matrix(0.010850694444444444,0,0,0.010850694444444444,7.183159722222222,0)" xlink:href="#ay"/></g><path d="M522-1456L896-400l372-1056h394V0h-301c-7-379 15-728 30-1085L998 0H792L400-1084c15 357 37 705 30 1084H130v-1456h392" id="az"/><path d="M416 0H126v-1536h290V0" id="aA"/><g id="k"><use transform="matrix(0.010850694444444444,0,0,0.010850694444444444,0,0)" xlink:href="#az"/><use transform="matrix(0.010850694444444444,0,0,0.010850694444444444,19.466145833333332,0)" xlink:href="#ay"/><use transform="matrix(0.010850694444444444,0,0,0.010850694444444444,32.03125,0)" xlink:href="#as"/><use transform="matrix(0.010850694444444444,0,0,0.010850694444444444,44.552951388888886,0)" xlink:href="#aq"/><use transform="matrix(0.010850694444444444,0,0,0.010850694444444444,56.564670138888886,0)" xlink:href="#aA"/></g><path d="M599-131c141 0 220-65 285-146l113 88C906-50 770 20 589 20 281 21 93-214 93-545c0-223 93-397 233-485 74-48 154-72 240-72 300 2 449 218 445 537v77H278c0 197 129 357 321 357zm227-509c-3-180-88-310-260-310-170 0-264 140-282 310h542" id="aB"/><path d="M456 20C285 20 205-92 206-268v-671H9v-143h197v-262h185v262h202v143H391v671c-9 125 92 149 207 118V0c-49 13-96 20-142 20" id="aC"/><path d="M663-916c-163-27-288 18-338 148V0H140v-1082h180l3 125c61-97 147-145 258-145 36 0 63 5 82 14v172" id="aD"/><path d="M341 0H156v-1082h185V0zm-91-1264c-68 0-108-42-109-105 0-62 41-107 109-107s110 44 110 107-42 105-110 105" id="aE"/><path d="M497-251l268-831h189L566 0H425L33-1082h189" id="aF"/><g id="l"><use transform="matrix(0.010850694444444444,0,0,0.010850694444444444,0,0)" xlink:href="#an"/><use transform="matrix(0.010850694444444444,0,0,0.010850694444444444,13.682725694444445,0)" xlink:href="#aB"/><use transform="matrix(0.010850694444444444,0,0,0.010850694444444444,25.455729166666664,0)" xlink:href="#aC"/><use transform="matrix(0.010850694444444444,0,0,0.010850694444444444,32.71484375,0)" xlink:href="#aD"/><use transform="matrix(0.010850694444444444,0,0,0.010850694444444444,40.234375,0)" xlink:href="#aE"/><use transform="matrix(0.010850694444444444,0,0,0.010850694444444444,45.627170138888886,0)" xlink:href="#aB"/><use transform="matrix(0.010850694444444444,0,0,0.010850694444444444,57.25911458333333,0)" xlink:href="#aF"/><use transform="matrix(0.010850694444444444,0,0,0.010850694444444444,67.88194444444444,0)" xlink:href="#aB"/></g><g id="m"><use transform="matrix(0.010850694444444444,0,0,0.010850694444444444,0,0)" xlink:href="#ai"/><use transform="matrix(0.010850694444444444,0,0,0.010850694444444444,13.18359375,0)" xlink:href="#aj"/><use transform="matrix(0.010850694444444444,0,0,0.010850694444444444,24.815538194444443,0)" xlink:href="#ak"/><use transform="matrix(0.010850694444444444,0,0,0.010850694444444444,36.90321180555556,0)" xlink:href="#al"/></g><path d="M632-1102c291 0 422 251 422 573 0 297-141 548-419 549-131 0-235-42-310-125v521H140v-1498h169l9 120c75-93 180-140 314-140zm-53 971c207 0 290-180 290-419 0-218-92-395-292-395-112 0-196 50-252 149v517c55 99 140 148 254 148" id="aG"/><path d="M584 20C278 26 81-227 91-551c10-320 175-545 491-551 308-5 503 247 494 573-9 322-175 543-492 549zm-2-970c-208 0-305 185-305 421 0 216 106 398 307 398 211 0 307-186 307-420 0-214-109-399-309-399" id="aH"/><path d="M538-131c121 0 232-49 232-156 0-50-20-88-56-117-73-60-334-92-420-143-92-55-162-110-162-238 0-190 192-317 400-317 223 0 414 129 413 338H759c0-108-110-186-227-186-119 0-215 53-215 159 0 45 18 78 53 101 76 52 331 90 416 139 98 57 169 115 169 251C955-92 760 20 538 20c-176 0-314-68-386-174-38-55-57-115-57-179h185c6 129 116 202 258 202" id="aI"/><g id="n"><use transform="matrix(0.010850694444444444,0,0,0.010850694444444444,0,0)" xlink:href="#an"/><use transform="matrix(0.010850694444444444,0,0,0.010850694444444444,13.682725694444445,0)" xlink:href="#aB"/><use transform="matrix(0.010850694444444444,0,0,0.010850694444444444,25.455729166666664,0)" xlink:href="#aG"/><use transform="matrix(0.010850694444444444,0,0,0.010850694444444444,37.92317708333333,0)" xlink:href="#aH"/><use transform="matrix(0.010850694444444444,0,0,0.010850694444444444,50.59678819444444,0)" xlink:href="#aD"/><use transform="matrix(0.010850694444444444,0,0,0.010850694444444444,58.658854166666664,0)" xlink:href="#aC"/><use transform="matrix(0.010850694444444444,0,0,0.010850694444444444,65.91796875,0)" xlink:href="#aI"/></g><path d="M719-811c-143-24-279 1-319 103V0H111v-1082h273l8 129c74-124 180-175 331-136" id="aJ"/><g id="o"><use transform="matrix(0.013020833333333334,0,0,0.013020833333333334,0,0)" xlink:href="#au"/><use transform="matrix(0.013020833333333334,0,0,0.013020833333333334,17.552083333333336,0)" xlink:href="#at"/><use transform="matrix(0.013020833333333334,0,0,0.013020833333333334,31.263020833333336,0)" xlink:href="#aq"/><use transform="matrix(0.013020833333333334,0,0,0.013020833333333334,45.677083333333336,0)" xlink:href="#aJ"/></g><path d="M133-34C117-15 103 5 69 4 32 3 11-16 11-54c-1-60 55-63 116-61 1-26-3-47-28-47-18 1-26 9-28 27l-52-2c7-38 36-58 82-57s74 22 75 68l1 82c-1 14 12 18 25 15v27c-30 8-71 5-69-32zm-48 3c29 0 43-24 42-57-32 0-66-3-65 30 0 17 8 27 23 27" id="aK"/><path d="M182-130c37 4 62 22 62 59C244 23 116-4 24 0v-248c84 5 203-23 205 63 0 31-19 50-47 55zM76-148c40-3 101 13 101-30 0-44-60-28-101-31v61zm0 110c48-3 116 14 116-37 0-48-69-32-116-35v72" id="aL"/><g id="p"><use transform="matrix(0.06172839506172839,0,0,0.06172839506172839,0,0)" xlink:href="#T"/><use transform="matrix(0.06172839506172839,0,0,0.06172839506172839,15.987654320987653,0)" xlink:href="#aK"/><use transform="matrix(0.06172839506172839,0,0,0.06172839506172839,28.333333333333332,0)" xlink:href="#V"/><use transform="matrix(0.06172839506172839,0,0,0.06172839506172839,35.67901234567901,0)" xlink:href="#aK"/><use transform="matrix(0.06172839506172839,0,0,0.06172839506172839,48.02469135802469,0)" xlink:href="#aL"/><use transform="matrix(0.06172839506172839,0,0,0.06172839506172839,64.01234567901234,0)" xlink:href="#aK"/><use transform="matrix(0.06172839506172839,0,0,0.06172839506172839,76.35802469135803,0)" xlink:href="#Q"/><use transform="matrix(0.06172839506172839,0,0,0.06172839506172839,88.70370370370371,0)" xlink:href="#U"/></g><g id="q"><use transform="matrix(0.010850694444444444,0,0,0.010850694444444444,0,0)" xlink:href="#an"/><use transform="matrix(0.010850694444444444,0,0,0.010850694444444444,13.682725694444445,0)" xlink:href="#aB"/><use transform="matrix(0.010850694444444444,0,0,0.010850694444444444,25.455729166666664,0)" xlink:href="#aj"/><use transform="matrix(0.010850694444444444,0,0,0.010850694444444444,37.08767361111111,0)" xlink:href="#aB"/><use transform="matrix(0.010850694444444444,0,0,0.010850694444444444,48.86067708333333,0)" xlink:href="#aE"/><use transform="matrix(0.010850694444444444,0,0,0.010850694444444444,54.25347222222221,0)" xlink:href="#aF"/><use transform="matrix(0.010850694444444444,0,0,0.010850694444444444,64.87630208333333,0)" xlink:href="#aB"/></g><path d="M1216-1011c-1 297-202 441-512 441H361V0H169v-1456h537c297-6 510 164 510 445zm-192 2c1-178-126-288-307-289H361v571h345c196 1 318-92 318-282" id="aM"/><path d="M589-945c-131 0-219 81-264 174V0H140v-1536h185v585c82-101 189-151 320-151 229 0 346 129 346 387V0H806v-716c-2-153-65-229-217-229" id="aN"/><path d="M521 20C240 20 96-239 96-550c0-303 147-552 427-552 132 0 235 47 309 140l9-120h169V-26c4 277-183 454-459 452-165-1-334-81-400-187l96-111c79 98 176 147 291 147 180 1 288-109 286-290v-93C750-23 649 20 521 20zm48-965c-209 0-287 178-287 416 0 217 86 392 285 392 117 0 202-53 257-159v-494c-57-103-142-155-255-155" id="aO"/><g id="r"><use transform="matrix(0.010850694444444444,0,0,0.010850694444444444,0,0)" xlink:href="#aM"/><use transform="matrix(0.010850694444444444,0,0,0.010850694444444444,14.019097222222221,0)" xlink:href="#aN"/><use transform="matrix(0.010850694444444444,0,0,0.010850694444444444,26.258680555555554,0)" xlink:href="#aE"/><use transform="matrix(0.010850694444444444,0,0,0.010850694444444444,31.651475694444443,0)" xlink:href="#aI"/><use transform="matrix(0.010850694444444444,0,0,0.010850694444444444,43.10980902777777,0)" xlink:href="#aN"/><use transform="matrix(0.010850694444444444,0,0,0.010850694444444444,55.3493923611111,0)" xlink:href="#aE"/><use transform="matrix(0.010850694444444444,0,0,0.010850694444444444,60.742187499999986,0)" xlink:href="#al"/><use transform="matrix(0.010850694444444444,0,0,0.010850694444444444,73.0034722222222,0)" xlink:href="#aO"/></g><path d="M973-380H363L226 0H28l556-1456h168L1309 0h-197zM421-538h495l-248-681" id="aP"/><path d="M341 0H156v-1536h185V0" id="aQ"/><g id="s"><use transform="matrix(0.010850694444444444,0,0,0.010850694444444444,0,0)" xlink:href="#aP"/><use transform="matrix(0.010850694444444444,0,0,0.010850694444444444,14.496527777777777,0)" xlink:href="#aQ"/><use transform="matrix(0.010850694444444444,0,0,0.010850694444444444,19.889322916666664,0)" xlink:href="#aB"/><use transform="matrix(0.010850694444444444,0,0,0.010850694444444444,31.66232638888889,0)" xlink:href="#aD"/></g><path d="M417-1456L893-268l476-1188h249V0h-192c-4-403 4-794 18-1179L966 0H819L342-1176c15 384 23 773 19 1176H169v-1456h248" id="aR"/><g id="t"><use transform="matrix(0.010850694444444444,0,0,0.010850694444444444,0,0)" xlink:href="#aR"/><use transform="matrix(0.010850694444444444,0,0,0.010850694444444444,19.401041666666664,0)" xlink:href="#ak"/><use transform="matrix(0.010850694444444444,0,0,0.010850694444444444,31.488715277777775,0)" xlink:href="#aj"/><use transform="matrix(0.010850694444444444,0,0,0.010850694444444444,43.12065972222222,0)" xlink:href="#aN"/><use transform="matrix(0.010850694444444444,0,0,0.010850694444444444,55.36024305555556,0)" xlink:href="#aE"/><use transform="matrix(0.010850694444444444,0,0,0.010850694444444444,60.75303819444444,0)" xlink:href="#al"/><use transform="matrix(0.010850694444444444,0,0,0.010850694444444444,73.01432291666666,0)" xlink:href="#aB"/></g><g id="u"><use transform="matrix(0.010850694444444444,0,0,0.010850694444444444,0,0)" xlink:href="#ao"/><use transform="matrix(0.010850694444444444,0,0,0.010850694444444444,11.957465277777777,0)" xlink:href="#aB"/><use transform="matrix(0.010850694444444444,0,0,0.010850694444444444,23.73046875,0)" xlink:href="#ak"/><use transform="matrix(0.010850694444444444,0,0,0.010850694444444444,35.818142361111114,0)" xlink:href="#aD"/><use transform="matrix(0.010850694444444444,0,0,0.010850694444444444,43.337673611111114,0)" xlink:href="#al"/><use transform="matrix(0.010850694444444444,0,0,0.010850694444444444,55.59895833333333,0)" xlink:href="#aE"/><use transform="matrix(0.010850694444444444,0,0,0.010850694444444444,60.99175347222222,0)" xlink:href="#al"/><use transform="matrix(0.010850694444444444,0,0,0.010850694444444444,73.25303819444444,0)" xlink:href="#aO"/></g><path d="M520 20C244 20 95-247 95-550c0-298 151-550 427-552 127 0 227 43 301 130v-564h185V0H838l-9-116C755-25 652 20 520 20zm48-965c-210 0-288 177-288 416 0 218 87 392 286 392 117 0 203-53 257-158v-497c-55-102-140-153-255-153" id="aS"/><g id="v"><use transform="matrix(0.010850694444444444,0,0,0.010850694444444444,0,0)" xlink:href="#aR"/><use transform="matrix(0.010850694444444444,0,0,0.010850694444444444,19.401041666666664,0)" xlink:href="#aH"/><use transform="matrix(0.010850694444444444,0,0,0.010850694444444444,32.07465277777777,0)" xlink:href="#aS"/><use transform="matrix(0.010850694444444444,0,0,0.010850694444444444,44.6072048611111,0)" xlink:href="#aB"/><use transform="matrix(0.010850694444444444,0,0,0.010850694444444444,56.38020833333332,0)" xlink:href="#aQ"/></g><path d="M491 20c-241-1-355-148-355-398v-704h185v699c0 164 67 246 200 246 141 0 235-53 282-158v-787h185V0H812l-4-107C736-22 630 20 491 20" id="aT"/><g id="w"><use transform="matrix(0.010850694444444444,0,0,0.010850694444444444,0,0)" xlink:href="#aR"/><use transform="matrix(0.010850694444444444,0,0,0.010850694444444444,19.401041666666664,0)" xlink:href="#ak"/><use transform="matrix(0.010850694444444444,0,0,0.010850694444444444,31.488715277777775,0)" xlink:href="#al"/><use transform="matrix(0.010850694444444444,0,0,0.010850694444444444,43.75,0)" xlink:href="#aT"/><use transform="matrix(0.010850694444444444,0,0,0.010850694444444444,56.00043402777778,0)" xlink:href="#ak"/><use transform="matrix(0.010850694444444444,0,0,0.010850694444444444,68.08810763888889,0)" xlink:href="#aQ"/></g><g id="x"><use transform="matrix(0.010850694444444444,0,0,0.010850694444444444,0,0)" xlink:href="#an"/><use transform="matrix(0.010850694444444444,0,0,0.010850694444444444,13.682725694444445,0)" xlink:href="#aB"/><use transform="matrix(0.010850694444444444,0,0,0.010850694444444444,25.455729166666664,0)" xlink:href="#aG"/><use transform="matrix(0.010850694444444444,0,0,0.010850694444444444,37.92317708333333,0)" xlink:href="#aH"/><use transform="matrix(0.010850694444444444,0,0,0.010850694444444444,50.59678819444444,0)" xlink:href="#aD"/><use transform="matrix(0.010850694444444444,0,0,0.010850694444444444,58.658854166666664,0)" xlink:href="#aC"/></g><path d="M663-1102c295 0 422 250 422 571 0 300-141 549-420 551-109 0-198-38-265-114v510H111v-1498h268l10 106c70-84 161-126 274-126zm133 550c0-175-53-315-209-315-91 0-153 35-187 104v443c35 71 98 107 189 107 138 0 207-113 207-339" id="aU"/><path d="M552-1102c254-4 435 134 435 383v469c1 103 15 180 43 233V0H738c-13-26-23-58-29-97C639-19 548 20 436 20 238 20 64-113 68-304c5-258 212-357 496-357h133c11-137-29-227-160-227-90 0-156 45-156 131H92c15-231 213-342 460-345zM357-325c0 76 61 124 142 124 88 0 168-45 198-105v-186H589c-152 2-232 51-232 167" id="aV"/><g id="y"><use transform="matrix(0.010850694444444444,0,0,0.010850694444444444,0,0)" xlink:href="#au"/><use transform="matrix(0.010850694444444444,0,0,0.010850694444444444,14.62673611111111,0)" xlink:href="#aU"/><use transform="matrix(0.010850694444444444,0,0,0.010850694444444444,27.13758680555556,0)" xlink:href="#as"/><use transform="matrix(0.010850694444444444,0,0,0.010850694444444444,39.65928819444444,0)" xlink:href="#aV"/><use transform="matrix(0.010850694444444444,0,0,0.010850694444444444,51.57335069444444,0)" xlink:href="#ax"/><use transform="matrix(0.010850694444444444,0,0,0.010850694444444444,59.08203125,0)" xlink:href="#aq"/></g><path d="M130 0v-1456h448c435 14 673 299 665 762-5 285-130 500-319 606C822-31 708 0 581 0H130zm809-685c9-311-79-526-361-528H430v972h145c252-2 356-181 364-444" id="aW"/><path d="M1212-428C1211-131 1004 0 696 0H130v-1456h510c318-1 539 108 539 399 0 155-89 264-208 308 141 33 242 151 241 321zM687-241c132 2 225-65 225-190 0-133-69-203-207-203H430v393h257zm192-786c0-145-86-186-239-186H430v367h222c151-3 227-63 227-181" id="aX"/><g id="z"><use transform="matrix(0.010850694444444444,0,0,0.010850694444444444,0,0)" xlink:href="#aW"/><use transform="matrix(0.010850694444444444,0,0,0.010850694444444444,14.442274305555555,0)" xlink:href="#aV"/><use transform="matrix(0.010850694444444444,0,0,0.010850694444444444,26.35633680555556,0)" xlink:href="#ax"/><use transform="matrix(0.010850694444444444,0,0,0.010850694444444444,33.865017361111114,0)" xlink:href="#aV"/><use transform="matrix(0.010850694444444444,0,0,0.010850694444444444,45.77907986111111,0)" xlink:href="#aX"/><use transform="matrix(0.010850694444444444,0,0,0.010850694444444444,59.9609375,0)" xlink:href="#aV"/><use transform="matrix(0.010850694444444444,0,0,0.010850694444444444,71.875,0)" xlink:href="#at"/><use transform="matrix(0.010850694444444444,0,0,0.010850694444444444,83.30078125,0)" xlink:href="#aq"/></g><path d="M463 20c-241-1-359-147-359-393v-709h289v699c0 113 51 169 154 169 98 0 165-34 202-102v-766h290V0H767l-8-110C688-23 589 20 463 20" id="aY"/><g id="A"><use transform="matrix(0.010850694444444444,0,0,0.010850694444444444,0,0)" xlink:href="#az"/><use transform="matrix(0.010850694444444444,0,0,0.010850694444444444,19.466145833333332,0)" xlink:href="#aV"/><use transform="matrix(0.010850694444444444,0,0,0.010850694444444444,31.380208333333332,0)" xlink:href="#ar"/><use transform="matrix(0.010850694444444444,0,0,0.010850694444444444,43.82595486111111,0)" xlink:href="#aY"/><use transform="matrix(0.010850694444444444,0,0,0.010850694444444444,56.26085069444444,0)" xlink:href="#aV"/><use transform="matrix(0.010850694444444444,0,0,0.010850694444444444,68.17491319444444,0)" xlink:href="#aA"/></g><g id="B"><use transform="matrix(0.010850694444444444,0,0,0.010850694444444444,0,0)" xlink:href="#av"/><use transform="matrix(0.010850694444444444,0,0,0.010850694444444444,14.181857638888888,0)" xlink:href="#aq"/><use transform="matrix(0.010850694444444444,0,0,0.010850694444444444,26.19357638888889,0)" xlink:href="#aU"/><use transform="matrix(0.010850694444444444,0,0,0.010850694444444444,38.70442708333333,0)" xlink:href="#ay"/><use transform="matrix(0.010850694444444444,0,0,0.010850694444444444,51.269531249999986,0)" xlink:href="#aJ"/><use transform="matrix(0.010850694444444444,0,0,0.010850694444444444,59.91753472222221,0)" xlink:href="#ax"/></g><path d="M24 0v-248h195v40H76v63h132v40H76v65h150V0H24" id="aZ"/><path d="M144 0l-44-69L55 0H2l70-98-66-92h53l41 62 40-62h54l-67 91 71 99h-54" id="ba"/><g id="C"><use transform="matrix(0.05,0,0,0.05,0,0)" xlink:href="#aZ"/><use transform="matrix(0.05,0,0,0.05,12,0)" xlink:href="#ba"/><use transform="matrix(0.05,0,0,0.05,22,0)" xlink:href="#V"/><use transform="matrix(0.05,0,0,0.05,27.950000000000003,0)" xlink:href="#U"/><use transform="matrix(0.05,0,0,0.05,37.95,0)" xlink:href="#R"/><use transform="matrix(0.05,0,0,0.05,48.900000000000006,0)" xlink:href="#Q"/><use transform="matrix(0.05,0,0,0.05,58.900000000000006,0)" xlink:href="#P"/><use transform="matrix(0.05,0,0,0.05,63.900000000000006,0)" xlink:href="#X"/><use transform="matrix(0.05,0,0,0.05,74.85000000000001,0)" xlink:href="#R"/></g><g id="D"><use transform="matrix(0.05,0,0,0.05,0,0)" xlink:href="#N"/><use transform="matrix(0.05,0,0,0.05,12,0)" xlink:href="#X"/><use transform="matrix(0.05,0,0,0.05,22.950000000000003,0)" xlink:href="#P"/><use transform="matrix(0.05,0,0,0.05,27.950000000000003,0)" xlink:href="#R"/><use transform="matrix(0.05,0,0,0.05,38.900000000000006,0)" xlink:href="#V"/><use transform="matrix(0.05,0,0,0.05,44.85000000000001,0)" xlink:href="#Q"/></g><g id="E"><use transform="matrix(0.010959201388888886,0,0,0.010959201388888886,0,0)" xlink:href="#av"/><use transform="matrix(0.010959201388888886,0,0,0.010959201388888886,14.323676215277775,0)" xlink:href="#aq"/><use transform="matrix(0.010959201388888886,0,0,0.010959201388888886,26.45551215277777,0)" xlink:href="#aU"/><use transform="matrix(0.010959201388888886,0,0,0.010959201388888886,39.09147135416666,0)" xlink:href="#ay"/><use transform="matrix(0.010959201388888886,0,0,0.010959201388888886,51.782226562499986,0)" xlink:href="#aJ"/><use transform="matrix(0.010959201388888886,0,0,0.010959201388888886,60.51671006944443,0)" xlink:href="#ax"/><use transform="matrix(0.010959201388888886,0,0,0.010959201388888886,68.10047743055554,0)" xlink:href="#at"/></g><use transform="matrix(0.010959201388888886,0,0,0.010959201388888886,0,0)" xlink:href="#aV" id="F"/><path d="M1264-420l196-1036h299L1436 0h-302L897-974 660 0H358L35-1456h299L531-422l240-1034h254" id="bb"/><path d="M663-1102c295 0 423 246 423 571 0 313-131 551-421 551-117 0-211-45-281-135L371 0H111v-1536h289v551c67-78 154-117 263-117zm-71 889c164 0 209-139 205-339-3-189-44-315-207-315-92 0-155 38-190 113v427c35 76 99 114 192 114" id="bc"/><path d="M416 0H126v-1082h290V0zM271-1212c-92 0-162-61-162-150s68-149 162-149c93 0 162 60 162 149s-70 150-162 150" id="bd"/><g id="G"><use transform="matrix(0.010959201388888886,0,0,0.010959201388888886,0,0)" xlink:href="#bb"/><use transform="matrix(0.010959201388888886,0,0,0.010959201388888886,19.28819444444444,0)" xlink:href="#aq"/><use transform="matrix(0.010959201388888886,0,0,0.010959201388888886,31.420030381944436,0)" xlink:href="#bc"/><use transform="matrix(0.010959201388888886,0,0,0.010959201388888886,44.05598958333332,0)" xlink:href="#at"/><use transform="matrix(0.010959201388888886,0,0,0.010959201388888886,55.59602864583332,0)" xlink:href="#bd"/><use transform="matrix(0.010959201388888886,0,0,0.010959201388888886,61.546874999999986,0)" xlink:href="#ax"/><use transform="matrix(0.010959201388888886,0,0,0.010959201388888886,69.1306423611111,0)" xlink:href="#aq"/><use transform="matrix(0.010959201388888886,0,0,0.010959201388888886,81.2624782986111,0)" xlink:href="#at"/></g><g id="H"><use transform="matrix(0.010850694444444444,0,0,0.010850694444444444,0,0)" xlink:href="#av"/><use transform="matrix(0.010850694444444444,0,0,0.010850694444444444,14.181857638888888,0)" xlink:href="#aq"/><use transform="matrix(0.010850694444444444,0,0,0.010850694444444444,26.19357638888889,0)" xlink:href="#at"/><use transform="matrix(0.010850694444444444,0,0,0.010850694444444444,37.619357638888886,0)" xlink:href="#aY"/><use transform="matrix(0.010850694444444444,0,0,0.010850694444444444,50.05425347222221,0)" xlink:href="#aA"/><use transform="matrix(0.010850694444444444,0,0,0.010850694444444444,55.94618055555555,0)" xlink:href="#ax"/><use transform="matrix(0.010850694444444444,0,0,0.010850694444444444,63.45486111111111,0)" xlink:href="#at"/></g><g id="I"><use transform="matrix(0.010850694444444444,0,0,0.010850694444444444,0,0)" xlink:href="#at"/><use transform="matrix(0.010850694444444444,0,0,0.010850694444444444,11.42578125,0)" xlink:href="#aq"/><use transform="matrix(0.010850694444444444,0,0,0.010850694444444444,23.4375,0)" xlink:href="#ar"/><use transform="matrix(0.010850694444444444,0,0,0.010850694444444444,35.88324652777778,0)" xlink:href="#ax"/></g><path d="M750-685c-1-124-48-182-173-182-85 0-146 33-184 98V0H104v-1536h289v572c77-92 173-138 289-138 235 0 357 136 357 409V0H750v-685" id="be"/><path d="M505 20C221 18 69-239 69-549c0-302 153-553 438-553 119 0 211 41 277 122l12-102h262V-36c-8 305-208 458-520 462-160 1-335-76-403-170L263 80c72 81 159 121 262 121 172 1 260-107 243-294C701-18 614 20 505 20zm76-887c-165 0-223 147-223 339 0 172 66 314 221 314 88 0 151-33 189-99v-455c-39-66-101-99-187-99" id="bf"/><g id="J"><use transform="matrix(0.010850694444444444,0,0,0.010850694444444444,0,0)" xlink:href="#ax"/><use transform="matrix(0.010850694444444444,0,0,0.010850694444444444,7.508680555555555,0)" xlink:href="#be"/><use transform="matrix(0.010850694444444444,0,0,0.010850694444444444,19.943576388888886,0)" xlink:href="#aJ"/><use transform="matrix(0.010850694444444444,0,0,0.010850694444444444,27.65842013888889,0)" xlink:href="#ay"/><use transform="matrix(0.010850694444444444,0,0,0.010850694444444444,40.22352430555555,0)" xlink:href="#aY"/><use transform="matrix(0.010850694444444444,0,0,0.010850694444444444,52.658420138888886,0)" xlink:href="#bf"/><use transform="matrix(0.010850694444444444,0,0,0.010850694444444444,65.34288194444444,0)" xlink:href="#be"/></g><path d="M952-300H426L326 0H7l542-1456h278L1372 0h-319zM507-543h364l-183-545" id="bg"/><path d="M1245-974c0 302-233 466-552 461H430V0H130v-1456h568c323 5 547 167 547 482zm-303 2c1-143-93-241-237-241H430v457h268c151 1 244-71 244-216" id="bh"/><path d="M449 0H149v-1456h300V0" id="bi"/><g id="K"><use transform="matrix(0.010850694444444444,0,0,0.010850694444444444,0,0)" xlink:href="#bg"/><use transform="matrix(0.010850694444444444,0,0,0.010850694444444444,14.952256944444445,0)" xlink:href="#bh"/><use transform="matrix(0.010850694444444444,0,0,0.010850694444444444,29.28602430555556,0)" xlink:href="#bi"/></g><linearGradient gradientUnits="userSpaceOnUse" id="L" x1="780" y1="2488.55" x2="780" y2="2370.54"><stop offset="0%" stop-color="#32bedd"/><stop offset="17.5%" stop-color="#32caea"/><stop offset="41%" stop-color="#32d2f2"/><stop offset="77.5%" stop-color="#32d4f5"/></linearGradient><path fill="#3a414a" d="M30 0v-248h187v28H63v79h144v27H63v87h162V0H30" id="bj"/><path fill="#3a414a" d="M141 0L90-78 38 0H4l68-98-65-92h35l48 74 47-74h35l-64 92 68 98h-35" id="bk"/><path fill="#3a414a" d="M59-47c-2 24 18 29 38 22v24C64 9 27 4 27-40v-127H5v-23h24l9-43h21v43h35v23H59v120" id="bl"/><path fill="#3a414a" d="M100-194c63 0 86 42 84 106H49c0 40 14 67 53 68 26 1 43-12 49-29l28 8c-11 28-37 45-77 45C44 4 14-33 15-96c1-61 26-98 85-98zm52 81c6-60-76-77-97-28-3 7-6 17-6 28h103" id="bm"/><path fill="#3a414a" d="M117-194c89-4 53 116 60 194h-32v-121c0-31-8-49-39-48C34-167 62-67 57 0H25l-1-190h30c1 10-1 24 2 32 11-22 29-35 61-36" id="bn"/><path fill="#3a414a" d="M135-143c-3-34-86-38-87 0 15 53 115 12 119 90S17 21 10-45l28-5c4 36 97 45 98 0-10-56-113-15-118-90-4-57 82-63 122-42 12 7 21 19 24 35" id="bo"/><path fill="#3a414a" d="M24-231v-30h32v30H24zM24 0v-190h32V0H24" id="bp"/><path fill="#3a414a" d="M100-194c62-1 85 37 85 99 1 63-27 99-86 99S16-35 15-95c0-66 28-99 85-99zM99-20c44 1 53-31 53-75 0-43-8-75-51-75s-53 32-53 75 10 74 51 75" id="bq"/><g id="M"><use transform="matrix(0.06234567901234567,0,0,0.06234567901234567,0,0)" xlink:href="#bj"/><use transform="matrix(0.06234567901234567,0,0,0.06234567901234567,14.96296296296296,0)" xlink:href="#bk"/><use transform="matrix(0.06234567901234567,0,0,0.06234567901234567,26.18518518518518,0)" xlink:href="#bl"/><use transform="matrix(0.06234567901234567,0,0,0.06234567901234567,32.419753086419746,0)" xlink:href="#bm"/><use transform="matrix(0.06234567901234567,0,0,0.06234567901234567,44.88888888888888,0)" xlink:href="#bn"/><use transform="matrix(0.06234567901234567,0,0,0.06234567901234567,57.35802469135801,0)" xlink:href="#bo"/><use transform="matrix(0.06234567901234567,0,0,0.06234567901234567,68.58024691358023,0)" xlink:href="#bp"/><use transform="matrix(0.06234567901234567,0,0,0.06234567901234567,73.50555555555553,0)" xlink:href="#bq"/><use transform="matrix(0.06234567901234567,0,0,0.06234567901234567,85.97469135802467,0)" xlink:href="#bn"/><use transform="matrix(0.06234567901234567,0,0,0.06234567901234567,98.44382716049381,0)" xlink:href="#bo"/></g></defs></g></svg>